<?xml version="1.0" encoding="UTF-8" standalone="no"?>
<svg
   id="Ebene_1"
   viewBox="0 0 2000 2000"
   version="1.1"
   sodipodi:docname="briefmarke-mit-qr-code-oma-song.svg"
   inkscape:version="1.4 (86a8ad7, 2024-10-11)"
   xmlns:inkscape="http://www.inkscape.org/namespaces/inkscape"
   xmlns:sodipodi="http://sodipodi.sourceforge.net/DTD/sodipodi-0.dtd"
   xmlns="http://www.w3.org/2000/svg"
   xmlns:svg="http://www.w3.org/2000/svg">
  <sodipodi:namedview
     id="namedview78"
     pagecolor="#505050"
     bordercolor="#ffffff"
     borderopacity="1"
     inkscape:showpageshadow="0"
     inkscape:pageopacity="0"
     inkscape:pagecheckerboard="1"
     inkscape:deskcolor="#d1d1d1"
     inkscape:zoom="0.9075"
     inkscape:cx="999.44904"
     inkscape:cy="1000"
     inkscape:window-width="3840"
     inkscape:window-height="2054"
     inkscape:window-x="-11"
     inkscape:window-y="-11"
     inkscape:window-maximized="1"
     inkscape:current-layer="Ebene_1" />
  <defs
     id="defs1">
    <style
       id="style1">
      .cls-1, .cls-2 {
        fill: #474746;
      }

      .cls-3 {
        fill: #f4f4f4;
      }

      .cls-2 {
        stroke-linecap: round;
        stroke-linejoin: round;
      }

      .cls-2, .cls-4 {
        stroke: #474746;
      }

      .cls-4 {
        fill: none;
        stroke-miterlimit: 10;
        stroke-width: 20px;
      }
    </style>
  </defs>
  <path
     class="cls-3"
     d="M1752.55,1723.42c0-19.43,15.75-35.19,35.19-35.19v-19.31c-19.43,0-35.19-15.75-35.19-35.19s15.75-35.19,35.19-35.19v-19.31c-19.43,0-35.19-15.75-35.19-35.19s15.75-35.19,35.19-35.19v-19.31c-19.43,0-35.19-15.75-35.19-35.19s15.75-35.19,35.19-35.19v-19.31c-19.43,0-35.19-15.75-35.19-35.19s15.75-35.19,35.19-35.19v-23.91c-19.43,0-35.19-15.75-35.19-35.19s15.75-35.19,35.19-35.19v-19.31c-19.43,0-35.19-15.75-35.19-35.19s15.75-35.19,35.19-35.19v-19.31c-19.43,0-35.19-15.75-35.19-35.19s15.75-35.19,35.19-35.19v-19.31c-19.43,0-35.19-15.75-35.19-35.19s15.75-35.19,35.19-35.19v-19.31c-19.43,0-35.19-15.75-35.19-35.19s15.75-35.19,35.19-35.19v-19.31c-19.43,0-35.19-15.75-35.19-35.19s15.75-35.19,35.19-35.19v-19.31c-19.43,0-35.19-15.75-35.19-35.19s15.75-35.19,35.19-35.19v-19.31c-19.43,0-35.19-15.75-35.19-35.19s15.75-35.19,35.19-35.19v-19.31c-19.43,0-35.19-15.75-35.19-35.19s15.75-35.19,35.19-35.19v-19.31c-19.43,0-35.19-15.75-35.19-35.19s15.75-35.19,35.19-35.19v-19.31c-19.43,0-35.19-15.75-35.19-35.19s15.75-35.19,35.19-35.19v-19.31c-19.43,0-35.19-15.75-35.19-35.19s15.75-35.19,35.19-35.19v-31.09h-36.22c0,19.43-15.75,35.19-35.19,35.19s-35.19-15.75-35.19-35.19h-19.31c0,19.43-15.75,35.19-35.19,35.19s-35.19-15.75-35.19-35.19h-19.31c0,19.43-15.75,35.19-35.19,35.19s-35.19-15.75-35.19-35.19h-19.31c0,19.43-15.75,35.19-35.19,35.19s-35.19-15.75-35.19-35.19h-19.31c0,19.43-15.75,35.19-35.19,35.19s-35.19-15.75-35.19-35.19h-23.91c0,19.43-15.75,35.19-35.19,35.19s-35.19-15.75-35.19-35.19h-19.31c0,19.43-15.75,35.19-35.19,35.19s-35.19-15.75-35.19-35.19h-19.31c0,19.43-15.75,35.19-35.19,35.19s-35.19-15.75-35.19-35.19h-19.31c0,19.43-15.75,35.19-35.19,35.19s-35.19-15.75-35.19-35.19h-19.31c0,19.43-15.75,35.19-35.19,35.19s-35.19-15.75-35.19-35.19h-19.31c0,19.43-15.75,35.19-35.19,35.19s-35.19-15.75-35.19-35.19h-19.31c0,19.43-15.75,35.19-35.19,35.19s-35.19-15.75-35.19-35.19h-19.31c0,19.43-15.75,35.19-35.19,35.19s-35.19-15.75-35.19-35.19h-19.31c0,19.43-15.75,35.19-35.19,35.19s-35.19-15.75-35.19-35.19h-19.31c0,19.43-15.75,35.19-35.19,35.19s-35.19-15.75-35.19-35.19h-19.31c0,19.43-15.75,35.19-35.19,35.19s-35.19-15.75-35.19-35.19h-19.31c0,19.43-15.75,35.19-35.19,35.19s-35.19-15.75-35.19-35.19h-29.38v31.09h0c19.43,0,35.19,15.75,35.19,35.19s-15.75,35.19-35.19,35.19h0v19.31h0c19.43,0,35.19,15.75,35.19,35.19s-15.75,35.19-35.19,35.19h0v19.31h0c19.43,0,35.19,15.75,35.19,35.19s-15.75,35.19-35.19,35.19h0v19.31h0c19.43,0,35.19,15.75,35.19,35.19s-15.75,35.19-35.19,35.19h0v19.31h0c19.43,0,35.19,15.75,35.19,35.19s-15.75,35.19-35.19,35.19h0v19.31h0c19.43,0,35.19,15.75,35.19,35.19s-15.75,35.19-35.19,35.19h0v19.31h0c19.43,0,35.19,15.75,35.19,35.19s-15.75,35.19-35.19,35.19h0v19.31h0c19.43,0,35.19,15.75,35.19,35.19s-15.75,35.19-35.19,35.19h0v19.31h0c19.43,0,35.19,15.75,35.19,35.19s-15.75,35.19-35.19,35.19h0v19.31h0c19.43,0,35.19,15.75,35.19,35.19s-15.75,35.19-35.19,35.19h0v19.31h0c19.43,0,35.19,15.75,35.19,35.19s-15.75,35.19-35.19,35.19h0v19.31h0c19.43,0,35.19,15.75,35.19,35.19s-15.75,35.19-35.19,35.19h0v23.91h0c19.43,0,35.19,15.75,35.19,35.19s-15.75,35.19-35.19,35.19h0v19.31h0c19.43,0,35.19,15.75,35.19,35.19s-15.75,35.19-35.19,35.19h0v19.31h0c19.43,0,35.19,15.75,35.19,35.19s-15.75,35.19-35.19,35.19h0v19.31h0c19.43,0,35.19,15.75,35.19,35.19s-15.75,35.19-35.19,35.19h0v19.31h0c19.43,0,35.19,15.75,35.19,35.19s-15.75,35.19-35.19,35.19h0v34.51h29.38c0-19.43,15.75-35.19,35.19-35.19s35.19,15.75,35.19,35.19h19.31c0-19.43,15.75-35.19,35.19-35.19s35.19,15.75,35.19,35.19h19.31c0-19.43,15.75-35.19,35.19-35.19s35.19,15.75,35.19,35.19h19.31c0-19.43,15.75-35.19,35.19-35.19s35.19,15.75,35.19,35.19h19.31c0-19.43,15.75-35.19,35.19-35.19s35.19,15.75,35.19,35.19h19.31c0-19.43,15.75-35.19,35.19-35.19s35.19,15.75,35.19,35.19h19.31c0-19.43,15.75-35.19,35.19-35.19s35.19,15.75,35.19,35.19h19.31c0-19.43,15.75-35.19,35.19-35.19s35.19,15.75,35.19,35.19h19.31c0-19.43,15.75-35.19,35.19-35.19s35.19,15.75,35.19,35.19h19.31c0-19.43,15.75-35.19,35.19-35.19s35.19,15.75,35.19,35.19h19.31c0-19.43,15.75-35.19,35.19-35.19s35.19,15.75,35.19,35.19h19.31c0-19.43,15.75-35.19,35.19-35.19s35.19,15.75,35.19,35.19h23.91c0-19.43,15.75-35.19,35.19-35.19s35.19,15.75,35.19,35.19h19.31c0-19.43,15.75-35.19,35.19-35.19s35.19,15.75,35.19,35.19h19.31c0-19.43,15.75-35.19,35.19-35.19s35.19,15.75,35.19,35.19h19.31c0-19.43,15.75-35.19,35.19-35.19s35.19,15.75,35.19,35.19h19.31c0-19.43,15.75-35.19,35.19-35.19s35.19,15.75,35.19,35.19h36.22v-34.51c-19.43,0-35.19-15.75-35.19-35.19Z"
     id="path1" />
  <rect
     class="cls-4"
     x="376.38"
     y="381.76"
     width="1247.24"
     height="1247.24"
     id="rect1" />
  <g
     id="g12">
    <polygon
       class="cls-1"
       points="778.3 591.32 800.98 591.32 801.68 591.32 824.35 591.32 825.05 591.32 848.42 591.32 848.42 567.24 825.05 567.24 824.35 567.24 801.68 567.24 800.98 567.24 778.3 567.24 777.6 567.24 754.23 567.24 754.23 591.32 777.6 591.32 778.3 591.32"
       id="polygon1" />
    <polygon
       class="cls-1"
       points="848.42 661.44 848.42 638.06 848.42 637.36 848.42 613.99 825.05 613.99 824.35 613.99 800.98 613.99 800.98 638.06 824.35 638.06 824.35 661.44 848.42 661.44"
       id="polygon2" />
    <path
       class="cls-1"
       d="M777.6,754.93h24.07v-23.37h23.37v-24.07h-23.37v-46.75h-47.45v70.82h23.37v23.37ZM800.98,708.18v22.67h-22.67v-22.67h22.67Z"
       id="path2" />
    <rect
       class="cls-1"
       x="1408.68"
       y="754.23"
       width="24.07"
       height="24.07"
       id="rect2" />
    <polygon
       class="cls-1"
       points="1408.68 824.35 1385.31 824.35 1385.31 848.42 1408.68 848.42 1408.68 871.8 1432.76 871.8 1432.76 847.72 1409.39 847.72 1409.39 825.05 1432.76 825.05 1432.76 800.98 1408.68 800.98 1408.68 824.35"
       id="polygon3" />
    <rect
       class="cls-1"
       x="567.24"
       y="847.72"
       width="24.07"
       height="24.07"
       id="rect3" />
    <rect
       class="cls-1"
       x="567.24"
       y="894.47"
       width="24.07"
       height="24.07"
       id="rect4" />
    <path
       class="cls-1"
       d="M1408.68,894.47h-22.67v-23.37h-46.75v-23.37h-46.75v-46.05h22.67v23.37h47.45v-24.07h-46.75v-22.67h23.37v-24.07h-47.45v46.75h-23.37v46.75h-23.37v23.37h-46.05v-22.67h23.37v-46.75h23.37v-24.07h-47.45v23.37h-22.67v-46.75h-23.37v-46.05h22.67v23.37h24.07v-23.37h22.67v46.75h24.07v-70.82h-46.75v-22.67h23.37v-23.37h23.37v-24.07h-23.37v-22.67h23.37v-24.07h-24.07v23.37h-23.37v23.37h-23.37v46.75h-23.37v23.37h-23.37v70.12h-46.05v-22.67h23.37v-47.45h-23.37v-22.67h46.75v-46.75h23.37v-24.07h-70.82v23.37h-23.37v24.07h23.37v22.67h-23.37v46.75h-23.37v23.37h-22.67v-23.37h-23.37v-22.67h23.37v-46.75h23.37v-47.45h-24.07v23.37h-23.37v46.75h-23.37v46.75h-22.67v-23.37h-23.37v-22.67h23.37v-23.37h23.37v-46.75h23.37v-24.07h-24.07v23.37h-22.67v-23.37h-70.82v47.45h23.37v22.67h-23.37v46.75h-23.37v47.45h23.37v23.37h24.07v-23.37h23.37v-23.37h22.67v23.37h23.37v22.67h-46.75v140.24h-22.67v-46.75h-70.82v23.37h-46.05v-22.67h23.37v-23.37h23.37v-23.37h46.05v23.37h24.07v-47.45h-70.82v23.37h-22.67v-23.37h-24.07v24.07h23.37v22.67h-46.75v47.45h23.37v23.37h23.37v23.37h24.07v-23.37h23.37v-23.37h22.67v23.37h23.37v92.79h-22.67v-23.37h-46.75v-23.37h-24.07v47.45h70.12v23.37h23.37v22.67h-23.37v24.07h24.07v-23.37h22.67v69.42h-22.67v-23.37h-24.07v70.82h46.75v23.37h46.75v46.05h-22.67v-23.37h-46.75v-23.37h-24.07v23.37h-22.67v-93.49h-23.37v-23.37h-24.07v70.82h23.37v22.67h-23.37v24.07h23.37v46.05h-69.42v-22.67h23.37v-24.07h-46.75v-22.67h46.75v-94.19h-24.07v70.12h-22.67v-23.37h-24.07v24.07h23.37v22.67h-23.37v24.07h23.37v22.67h-23.37v24.07h46.75v163.61h47.45v-46.75h23.37v-23.37h22.67v23.37h23.37v22.67h-23.37v24.07h23.37v23.37h24.07v-46.75h22.67v23.37h47.45v-24.07h-46.75v-46.05h22.67v23.37h24.07v-23.37h23.37v-23.37h23.37v-24.07h-23.37v-23.37h-46.75v-22.67h23.37v-23.37h22.67v23.37h46.75v23.37h24.07v-46.75h22.67v23.37h23.37v22.67h-23.37v24.07h24.07v-23.37h22.67v70.12h23.37v22.67h-69.42v-22.67h23.37v-24.07h-46.75v-23.37h-24.07v47.45h23.37v22.67h-23.37v24.07h23.37v46.75h70.82v-46.75h23.37v-23.37h46.05v46.05h-46.75v24.07h47.45v-23.37h46.05v23.37h24.07v-23.37h22.67v23.37h24.07v-23.37h22.67v23.37h94.2v-70.82h-23.37v-22.67h23.37v-70.82h-23.37v-22.67h23.37v-24.07h-23.37v-22.67h23.37v-24.07h-23.37v-23.37h-23.37v-23.37h-23.37v-22.67h46.05v23.37h24.07v-94.19h-93.49v-46.05h46.05v23.37h47.45v-24.07h-46.75v-46.05h22.67v23.37h24.07v-24.07h-23.37v-22.67h23.37v-24.07h-24.07ZM894.47,1361.94h-22.67v-22.67h22.67v22.67ZM917.84,1245.07h-22.67v-22.67h22.67v22.67ZM847.72,1268.44h-22.67v-22.67h22.67v22.67ZM871.8,1199.02h22.67v22.67h-22.67v-22.67ZM778.3,1338.56v-22.67h23.37v-46.75h22.67v23.37h24.07v-23.37h69.42v22.67h-46.75v46.75h-22.67v-23.37h-24.07v23.37h-23.37v23.37h-22.67v-23.37ZM964.59,1292.52h23.37v22.67h-46.05v-22.67h22.67ZM1339.27,1128.9h22.67v22.67h-22.67v-22.67ZM1385.31,1174.95h-22.67v-22.67h22.67v22.67ZM1338.56,1174.95v24.07h46.75v23.37h23.37v22.67h-23.37v70.12h-23.37v23.37h-22.67v-46.05h23.37v-24.07h-23.37v-22.67h23.37v-24.07h-46.75v-23.37h-23.37v-22.67h23.37v-23.37h22.67v22.67ZM1385.31,1361.94h-22.67v-22.67h22.67v22.67ZM1315.19,1361.94h-22.67v-22.67h22.67v22.67ZM1268.44,1361.94h-22.67v-22.67h22.67v22.67ZM1151.58,1268.44h-22.67v-22.67h22.67v22.67ZM1152.28,1199.02h22.67v22.67h-22.67v-22.67ZM1104.83,1174.95h-22.67v-22.67h22.67v22.67ZM1012.04,1081.46v-23.37h-23.37v-22.67h46.05v23.37h24.07v-23.37h22.67v69.42h-23.37v23.37h-22.67v-23.37h-23.37v-23.37ZM1058.78,848.42h22.67v22.67h-22.67v-22.67ZM1128.9,895.17v-23.37h69.42v22.67h-23.37v46.75h-23.37v23.37h-23.37v24.07h23.37v22.67h-23.37v47.45h23.37v22.67h-23.37v23.37h-22.67v-140.24h-23.37v-22.67h23.37v-24.07h-23.37v-46.05h22.67v23.37h24.07ZM1245.77,965.29h46.05v22.67h-46.05v-22.67ZM1291.82,1174.95h-23.37v23.37h-23.37v23.37h-46.05v-22.67h23.37v-24.07h-46.75v-23.37h-23.37v-46.05h22.67v23.37h24.07v-23.37h23.37v-24.07h-23.37v-22.67h23.37v-46.75h69.42v22.67h-46.75v24.07h23.37v22.67h-23.37v46.75h-23.37v24.07h70.12v22.67ZM1291.82,1315.19h-46.05v-69.42h69.42v69.42h-23.37ZM1269.15,1199.02h22.67v22.67h-22.67v-22.67ZM1174.95,1034.71v23.37h-22.67v-46.05h22.67v22.67ZM1058.78,965.29h22.67v22.67h-22.67v-22.67ZM1058.78,1128.9h22.67v22.67h-22.67v-22.67ZM1105.53,1128.9h22.67v22.67h-22.67v-22.67ZM1199.02,1291.82v-46.05h22.67v69.42h-22.67v-23.37ZM1245.77,1386.01h22.67v22.67h-22.67v-22.67ZM1292.52,1011.34v-22.67h22.67v22.67h-22.67ZM1315.89,965.29h22.67v22.67h-22.67v-22.67ZM1315.19,964.59h-22.67v-22.67h22.67v22.67ZM1245.07,895.17h23.37v22.67h-23.37v46.75h-23.37v23.37h-23.37v23.37h-22.67v-23.37h-23.37v-22.67h46.75v-46.75h23.37v-23.37h22.67ZM1128.9,801.68v-23.37h22.67v46.75h23.37v22.67h-46.05v-23.37h-24.07v23.37h-22.67v-23.37h-23.37v-46.75h-23.37v-22.67h46.05v23.37h23.37v23.37h24.07ZM1058.78,708.18h22.67v22.67h-22.67v-22.67ZM1011.34,754.23h-22.67v-22.67h22.67v22.67ZM987.96,730.85h-22.67v-22.67h22.67v22.67ZM1104.83,637.36h-22.67v-22.67h22.67v22.67ZM895.17,638.06h22.67v22.67h-22.67v-22.67ZM894.47,708.18v22.67h-22.67v-22.67h22.67ZM895.17,684.81h22.67v22.67h-22.67v-22.67ZM917.84,591.32h23.37v22.67h-46.05v-22.67h22.67ZM965.29,778.3v-23.37h22.67v70.12h24.07v-46.75h22.67v46.75h23.37v22.67h-23.37v70.82h23.37v22.67h-23.37v46.75h-23.37v23.37h-92.79v-22.67h70.12v-24.07h-23.37v-22.67h23.37v-24.07h-23.37v-22.67h46.75v-47.45h-24.07v23.37h-22.67v-23.37h-23.37v-22.67h23.37v-24.07h-23.37v-22.67h23.37ZM964.59,871.8v22.67h-22.67v-22.67h22.67ZM918.54,941.22v-46.05h22.67v23.37h23.37v22.67h-23.37v23.37h-22.67v-23.37ZM941.92,1081.46v-22.67h46.05v22.67h-23.37v46.75h-22.67v-46.75ZM1012.04,1221.7h-23.37v-22.67h23.37v-24.07h-23.37v-23.37h-23.37v-22.67h23.37v-23.37h22.67v46.75h23.37v69.42h-22.67ZM1058.78,1175.65h22.67v22.67h-22.67v-22.67ZM1082.16,1221.7v-22.67h23.37v-23.37h46.05v22.67h-23.37v23.37h-46.05ZM1152.28,1291.82v-22.67h22.67v46.05h-22.67v-23.37ZM1269.15,1385.31v-22.67h22.67v22.67h-22.67ZM1315.89,1385.31v-22.67h46.05v22.67h-46.05ZM1408.68,1386.01v22.67h-46.05v-22.67h23.37v-23.37h22.67v23.37ZM1408.68,1058.78v22.67h-22.67v-22.67h22.67ZM1361.94,1058.78v46.05h-23.37v23.37h-22.67v-23.37h-23.37v-22.67h23.37v-23.37h46.05ZM1339.27,964.59v-23.37h-23.37v-23.37h-23.37v-23.37h-23.37v-22.67h69.42v46.75h24.07v-23.37h22.67v46.05h-23.37v23.37h-22.67Z"
       id="path4" />
    <rect
       class="cls-1"
       x="847.72"
       y="917.84"
       width="24.07"
       height="24.07"
       id="rect5" />
    <rect
       class="cls-1"
       x="567.24"
       y="941.22"
       width="24.07"
       height="24.07"
       id="rect6" />
    <path
       class="cls-1"
       d="M591.32,1222.4v-46.75h22.67v70.12h70.82v-47.45h-24.07v23.37h-22.67v-46.05h23.37v-23.37h23.37v-47.45h-46.75v-22.67h69.42v23.37h24.07v-24.07h-23.37v-22.67h140.24v-47.45h-70.82v23.37h-70.12v23.37h-46.05v-69.42h46.05v23.37h24.07v-24.07h-23.37v-22.67h70.12v-24.07h-23.37v-46.75h-46.75v-22.67h23.37v-24.07h-46.75v-22.67h46.75v-23.37h23.37v-47.45h-164.32v46.75h-23.37v24.07h46.75v23.37h23.37v46.05h-23.37v24.07h24.07v-23.37h22.67v46.05h-23.37v24.07h23.37v22.67h-23.37v23.37h-23.37v47.45h23.37v22.67h-46.05v-46.75h-24.07v47.45h23.37v46.05h-23.37v117.57h24.07v-23.37ZM660.73,1128.9v22.67h-23.37v23.37h-22.67v-46.05h46.05ZM684.81,895.17h22.67v22.67h-22.67v-22.67ZM684.81,941.92h22.67v22.67h-22.67v-22.67ZM730.85,941.22h-22.67v-22.67h22.67v22.67ZM684.11,778.3h46.75v22.67h-46.75v23.37h-46.05v-22.67h23.37v-23.37h22.67ZM637.36,778.3v22.67h-22.67v-22.67h22.67Z"
       id="path6" />
    <rect
       class="cls-1"
       x="1268.44"
       y="1268.44"
       width="24.07"
       height="24.07"
       id="rect7" />
    <rect
       class="cls-1"
       x="987.96"
       y="1408.68"
       width="24.07"
       height="24.07"
       id="rect8" />
    <path
       class="cls-1"
       d="M730.85,567.24h-163.61v163.61h163.61v-163.61ZM707.48,707.48h-116.87v-116.87h116.87v116.87Z"
       id="path8" />
    <path
       class="cls-1"
       d="M1432.06,567.24h-163.61v163.61h163.61v-163.61ZM1408.68,707.48h-116.87v-116.87h116.87v116.87Z"
       id="path9" />
    <path
       class="cls-1"
       d="M567.24,1432.06h163.61v-163.61h-163.61v163.61ZM590.61,1291.82h116.87v116.87h-116.87v-116.87Z"
       id="path10" />
    <rect
       class="cls-1"
       x="613.99"
       y="613.99"
       width="70.12"
       height="70.12"
       id="rect10" />
    <rect
       class="cls-1"
       x="1315.19"
       y="613.99"
       width="70.12"
       height="70.12"
       id="rect11" />
    <rect
       class="cls-1"
       x="613.99"
       y="1315.19"
       width="70.12"
       height="70.12"
       id="rect12" />
  </g>
  <g
     id="g27">
    <path
       class="cls-2"
       d="M588.92,512.13c-5.12,0-9.48-.99-13.08-2.98-3.6-1.99-6.36-4.89-8.27-8.72-1.91-3.82-2.87-8.42-2.87-13.79s.96-9.64,2.87-13.42c1.91-3.77,4.7-6.71,8.35-8.79s7.99-3.13,13.01-3.13,9.48.99,13.08,2.98c3.6,1.99,6.36,4.83,8.27,8.53,1.91,3.7,2.87,8.09,2.87,13.16,0,5.36-.96,10-2.87,13.9-1.91,3.9-4.67,6.92-8.27,9.06-3.6,2.13-7.96,3.21-13.08,3.21ZM588.99,508.55c4.72,0,8.22-1.82,10.51-5.48s3.43-9.28,3.43-16.88c0-4.57-.58-8.45-1.75-11.62-1.17-3.18-2.82-5.6-4.96-7.27-2.14-1.66-4.65-2.5-7.53-2.5-4.22,0-7.58,1.85-10.06,5.55-2.48,3.7-3.73,8.98-3.73,15.83s1.17,12.48,3.5,16.43c2.33,3.95,5.86,5.92,10.58,5.92Z"
       id="path12" />
    <path
       class="cls-2"
       d="M643.92,511.16h-24.45v-2.83c2.09,0,3.6-.17,4.55-.52.94-.35,1.56-1.03,1.86-2.05s.45-2.57.45-4.66v-30.41c0-2.33-.49-3.86-1.45-4.58s-2.72-1.08-5.25-1.08v-2.83h22.06c2.43,0,4.81.17,7.12.52,2.31.35,4.36.99,6.15,1.94,1.79.94,3.22,2.25,4.29,3.91,1.07,1.67,1.6,3.82,1.6,6.45,0,2.98-.55,5.47-1.64,7.45-1.09,1.99-2.57,3.58-4.43,4.77-1.86,1.19-3.99,2.04-6.37,2.53-2.38.5-4.87.75-7.45.75-.85,0-1.73-.08-2.65-.26-.92-.17-1.73-.36-2.42-.56v11.7c0,1.99.17,3.48.52,4.47.35.99,1.11,1.65,2.27,1.98,1.17.32,2.92.49,5.25.49v2.83ZM639.82,486.64c2.43,0,4.47-.3,6.11-.89s2.87-1.68,3.69-3.24c.82-1.57,1.23-3.81,1.23-6.74,0-3.43-.87-5.99-2.61-7.68-1.74-1.69-4.55-2.53-8.42-2.53-.69,0-1.34.02-1.94.07-.6.05-1.27.12-2.01.23v20.42c.5.05,1.04.12,1.64.22.6.1,1.37.15,2.31.15Z"
       id="path13" />
    <path
       class="cls-2"
       d="M707.04,511.16h-41.66v-2.83c1.84,0,3.27-.14,4.29-.41s1.74-.86,2.16-1.75c.42-.89.63-2.28.63-4.17v-30.11c0-1.89-.16-3.32-.49-4.28-.32-.97-.99-1.63-2.01-1.98-1.02-.35-2.55-.52-4.58-.52v-2.91h40.92l.45,13.04h-3.28c-.35-2.34-.86-4.15-1.53-5.44-.67-1.29-1.74-2.18-3.21-2.68-1.47-.5-3.64-.75-6.52-.75h-10.28v17.81h7.45c2.38,0,4.16-.15,5.33-.45,1.17-.3,1.94-.93,2.31-1.9.37-.97.56-2.42.56-4.36h3.06v17.22h-3.06c0-2.09-.19-3.61-.56-4.59-.37-.97-1.14-1.59-2.31-1.86-1.17-.27-2.94-.41-5.33-.41h-7.45v19.23h9.09c2.63,0,4.77-.14,6.41-.41s2.95-.78,3.95-1.53c.99-.75,1.81-1.79,2.46-3.13s1.29-3.08,1.94-5.22h3.13l-1.86,14.38Z"
       id="path14" />
    <path
       class="cls-2"
       d="M760.47,511.68h-6.33l-29.36-38.98h-2.46l-1.94-3.35c-.89-1.24-1.7-2.16-2.42-2.76s-1.47-1.01-2.24-1.23c-.77-.23-1.7-.34-2.8-.34v-2.83h15.95l26.68,35.4h.37v-22.95c0-2.09-.12-3.84-.37-5.25-.25-1.42-.86-2.5-1.83-3.24s-2.6-1.12-4.88-1.12v-2.83h18.33v2.83c-2.04,0-3.54.37-4.51,1.12s-1.58,1.85-1.83,3.32-.37,3.24-.37,5.33v36.89ZM731.18,511.16h-18.26v-2.83c1.99,0,3.48-.51,4.47-1.53.99-1.02,1.66-2.45,2.01-4.28.35-1.84.52-4,.52-6.48v-28.62h4.47v32.05c0,2.48.18,4.36.52,5.62.35,1.27,1.02,2.12,2.01,2.57.99.45,2.41.67,4.25.67v2.83Z"
       id="path15" />
    <path
       class="cls-2"
       d="M806.68,511.16h-18.41v-2.83c1.99,0,3.47-.16,4.43-.49s1.63-1.08,1.98-2.27c.35-1.19.52-3.05.52-5.59v-28.02c0-1.89-.18-3.33-.52-4.32-.35-.99-1.01-1.68-1.98-2.05-.97-.37-2.4-.56-4.29-.56v-2.83h18.78l14.68,35.62h.45l14.61-35.62h17.51v2.83c-1.69,0-3.01.19-3.95.56-.94.37-1.59,1.06-1.94,2.05-.35.99-.52,2.41-.52,4.25v30.19c0,1.69.19,2.98.56,3.87s1.03,1.51,1.98,1.86c.94.35,2.26.52,3.95.52v2.83h-22.51v-2.83c1.94,0,3.38-.17,4.32-.52.94-.35,1.57-.97,1.86-1.86s.45-2.19.45-3.87v-30.56h-.45l-16.55,39.65h-4.4l-16.84-39.65h-.37v28.47c0,2.54.16,4.4.49,5.59.32,1.19.96,1.95,1.9,2.27.94.32,2.36.49,4.25.49v2.83Z"
       id="path16" />
    <path
       class="cls-2"
       d="M887.54,512.13c-7.3,0-12.59-1.52-15.87-4.55-3.28-3.03-4.92-8-4.92-14.91v-21.09c0-1.74-.19-3.08-.56-4.02-.37-.94-1.07-1.6-2.09-1.98-1.02-.37-2.52-.56-4.51-.56v-2.83h23.77v2.83c-2.04,0-3.57.19-4.58.56-1.02.37-1.69,1.06-2.01,2.05-.32.99-.49,2.43-.49,4.32v19.82c0,3.23.38,5.94,1.16,8.12.77,2.19,2.11,3.83,4.02,4.92,1.91,1.1,4.56,1.64,7.94,1.64,4.77,0,8.22-1.09,10.36-3.28,2.13-2.19,3.2-5.84,3.2-10.96v-17.59c0-2.63-.15-4.64-.45-6.04-.3-1.39-.94-2.33-1.94-2.83-.99-.5-2.54-.75-4.62-.75v-2.83h18.93v2.83c-2.14,0-3.7.25-4.69.75-.99.5-1.63,1.42-1.9,2.76-.27,1.34-.41,3.3-.41,5.89v17.14c0,6.86-1.56,12-4.69,15.43s-8.35,5.14-15.65,5.14Z"
       id="path17" />
    <path
       class="cls-2"
       d="M922.05,512.2h-2.91l-.67-16.1h3.21c.84,3.28,1.79,5.79,2.83,7.53s2.33,2.93,3.87,3.58c1.54.65,3.4.97,5.59.97,1.69,0,3.23-.23,4.62-.67s2.51-1.19,3.35-2.24c.84-1.04,1.27-2.43,1.27-4.17,0-2.13-.56-3.9-1.68-5.29-1.12-1.39-2.55-2.61-4.29-3.65-1.74-1.04-3.6-2.03-5.59-2.98-2.19-1.14-4.25-2.36-6.19-3.65s-3.49-2.87-4.66-4.73c-1.17-1.86-1.75-4.24-1.75-7.12,0-2.68.66-4.93,1.98-6.74,1.32-1.81,3.15-3.19,5.52-4.13,2.36-.94,5.08-1.42,8.16-1.42,2.04,0,3.66.16,4.88.49,1.22.33,2.21.65,2.98.97s1.45.48,2.05.48c.5,0,.96-.12,1.38-.37.42-.25.73-.77.93-1.57h2.46l.52,15.43h-3.06c-1.09-4.37-2.53-7.49-4.32-9.35s-4.25-2.79-7.38-2.79c-2.58,0-4.56.51-5.92,1.52-1.37,1.02-2.05,2.6-2.05,4.73,0,1.84.52,3.37,1.56,4.58,1.04,1.22,2.42,2.3,4.14,3.24s3.54,1.91,5.48,2.9c1.74.89,3.44,1.82,5.1,2.76,1.67.95,3.17,2.05,4.51,3.32,1.34,1.27,2.42,2.74,3.24,4.43.82,1.69,1.23,3.68,1.23,5.96,0,3.03-.75,5.58-2.24,7.64s-3.54,3.63-6.15,4.7c-2.61,1.07-5.63,1.6-9.06,1.6-2.43,0-4.36-.19-5.78-.56-1.42-.37-2.51-.75-3.28-1.12-.77-.37-1.43-.56-1.98-.56s-1.01.21-1.38.63-.56,1.01-.56,1.75Z"
       id="path18" />
    <path
       class="cls-2"
       d="M980.85,511.16h-23.48v-2.83c2.19,0,3.78-.19,4.77-.56.99-.37,1.63-1.1,1.9-2.16.27-1.07.41-2.67.41-4.81v-28.1c0-1.99-.14-3.53-.41-4.62-.27-1.09-.91-1.87-1.9-2.35-.99-.47-2.58-.71-4.77-.71v-2.83h23.63v2.83c-2.24,0-3.86.24-4.88.71-1.02.47-1.64,1.27-1.86,2.38-.22,1.12-.34,2.65-.34,4.59v28.1c0,2.09.14,3.68.41,4.77.27,1.1.89,1.83,1.86,2.2.97.37,2.52.56,4.66.56v2.83Z"
       id="path19" />
    <path
       class="cls-2"
       d="M1010.58,512.05c-5.32,0-9.71-1.08-13.19-3.24-3.48-2.16-6.06-5.13-7.75-8.91-1.69-3.77-2.54-8.08-2.54-12.89,0-5.57,1.06-10.26,3.17-14.09,2.11-3.82,5.04-6.72,8.79-8.68,3.75-1.96,8.09-2.94,13.01-2.94,2.63,0,4.72.21,6.26.63,1.54.42,2.76.85,3.65,1.26.89.42,1.69.63,2.38.63.75,0,1.27-.27,1.57-.82.3-.54.6-1.12.89-1.71h2.83v17.89h-3.2c-.94-4.77-2.63-8.32-5.07-10.66s-5.56-3.5-9.39-3.5c-4.82,0-8.47,1.78-10.96,5.33-2.48,3.55-3.73,8.61-3.73,15.17,0,4.77.63,8.64,1.9,11.62s3.13,5.16,5.59,6.52,5.43,2.05,8.91,2.05,6.57-.63,8.98-1.9c2.41-1.27,4.68-3.09,6.82-5.48l2.16,1.94c-1.54,2.19-3.23,4.18-5.07,5.96-1.84,1.79-4.04,3.2-6.6,4.25-2.56,1.05-5.7,1.57-9.43,1.57Z"
       id="path20" />
    <path
       class="cls-2"
       d="M1068.41,511.16h-16.55v-2.83c1.34,0,2.42-.21,3.24-.63s1.59-1.22,2.31-2.38c.72-1.17,1.55-2.87,2.5-5.1l16.02-38.38h6.04l16.69,39.57c1.04,2.38,2.1,4.13,3.17,5.25,1.07,1.12,2.5,1.68,4.29,1.68v2.83h-22.43v-2.83c.65,0,1.33-.05,2.05-.15.72-.1,1.33-.32,1.83-.67.5-.35.75-.92.75-1.71,0-.55-.12-1.31-.37-2.27-.25-.97-.6-1.98-1.04-3.02l-2.46-6.19-.6-1.79-7.53-20.27h-.3l-8.2,20.27-.52,1.79-2.98,7.23c-.2.64-.41,1.33-.63,2.05-.22.72-.34,1.41-.34,2.05,0,1.14.38,1.87,1.16,2.2.77.32,2.07.49,3.91.49v2.83ZM1085.7,495.21h-19.75l1.27-3.58h17.22l1.27,3.58Z"
       id="path21" />
    <path
       class="cls-2"
       d="M1130.72,512.05c-5.32,0-9.71-1.08-13.19-3.24-3.48-2.16-6.06-5.13-7.75-8.91-1.69-3.77-2.54-8.08-2.54-12.89,0-5.57,1.06-10.26,3.17-14.09,2.11-3.82,5.04-6.72,8.79-8.68,3.75-1.96,8.09-2.94,13.01-2.94,2.63,0,4.72.21,6.26.63,1.54.42,2.76.85,3.65,1.26.89.42,1.69.63,2.38.63.75,0,1.27-.27,1.57-.82.3-.54.6-1.12.89-1.71h2.83v17.89h-3.2c-.94-4.77-2.63-8.32-5.07-10.66s-5.56-3.5-9.39-3.5c-4.82,0-8.47,1.78-10.96,5.33-2.48,3.55-3.73,8.61-3.73,15.17,0,4.77.63,8.64,1.9,11.62s3.13,5.16,5.59,6.52,5.43,2.05,8.91,2.05,6.57-.63,8.98-1.9c2.41-1.27,4.68-3.09,6.82-5.48l2.16,1.94c-1.54,2.19-3.23,4.18-5.07,5.96-1.84,1.79-4.04,3.2-6.6,4.25-2.56,1.05-5.7,1.57-9.43,1.57Z"
       id="path22" />
    <path
       class="cls-2"
       d="M1171.04,511.16h-16.55v-2.83c1.34,0,2.42-.21,3.24-.63s1.59-1.22,2.31-2.38c.72-1.17,1.55-2.87,2.5-5.1l16.02-38.38h6.04l16.69,39.57c1.04,2.38,2.1,4.13,3.17,5.25,1.07,1.12,2.5,1.68,4.29,1.68v2.83h-22.43v-2.83c.65,0,1.33-.05,2.05-.15.72-.1,1.33-.32,1.83-.67.5-.35.75-.92.75-1.71,0-.55-.12-1.31-.37-2.27-.25-.97-.6-1.98-1.04-3.02l-2.46-6.19-.6-1.79-7.53-20.27h-.3l-8.2,20.27-.52,1.79-2.98,7.23c-.2.64-.41,1.33-.63,2.05-.22.72-.34,1.41-.34,2.05,0,1.14.38,1.87,1.16,2.2.77.32,2.07.49,3.91.49v2.83ZM1188.33,495.21h-19.75l1.27-3.58h17.22l1.27,3.58Z"
       id="path23" />
    <path
       class="cls-2"
       d="M1233.56,511.16h-21.61v-2.83c2.09,0,3.64-.16,4.66-.49s1.68-.99,1.98-2.01c.3-1.02.45-2.52.45-4.51v-29.96c0-1.84-.22-3.19-.67-4.06s-1.18-1.44-2.2-1.72c-1.02-.27-2.42-.41-4.21-.41v-2.98h21.09c3.77,0,7.4.36,10.88,1.08,3.48.72,6.57,1.96,9.28,3.73s4.85,4.19,6.41,7.27,2.35,7,2.35,11.77-.71,8.61-2.12,11.81c-1.42,3.2-3.42,5.79-6,7.75-2.58,1.96-5.6,3.38-9.06,4.25s-7.19,1.3-11.22,1.3ZM1232.29,507.43c4.03,0,7.48-.57,10.36-1.72,2.88-1.14,5.09-3.19,6.63-6.15s2.31-7.22,2.31-12.78c0-6.71-1.62-11.85-4.85-15.43-3.23-3.58-8.25-5.36-15.06-5.36h-1.45c-.47,0-1.06.02-1.75.07v41.21c.64.05,1.29.09,1.94.11s1.27.04,1.86.04Z"
       id="path24" />
    <path
       class="cls-2"
       d="M1309.73,511.16h-41.66v-2.83c1.84,0,3.27-.14,4.29-.41s1.74-.86,2.16-1.75c.42-.89.63-2.28.63-4.17v-30.11c0-1.89-.16-3.32-.49-4.28-.32-.97-.99-1.63-2.01-1.98-1.02-.35-2.55-.52-4.58-.52v-2.91h40.92l.45,13.04h-3.28c-.35-2.34-.86-4.15-1.53-5.44-.67-1.29-1.74-2.18-3.21-2.68-1.47-.5-3.64-.75-6.52-.75h-10.28v17.81h7.45c2.38,0,4.16-.15,5.33-.45,1.17-.3,1.94-.93,2.31-1.9.37-.97.56-2.42.56-4.36h3.06v17.22h-3.06c0-2.09-.19-3.61-.56-4.59-.37-.97-1.14-1.59-2.31-1.86-1.17-.27-2.94-.41-5.33-.41h-7.45v19.23h9.09c2.63,0,4.77-.14,6.41-.41s2.95-.78,3.95-1.53c.99-.75,1.81-1.79,2.46-3.13s1.29-3.08,1.94-5.22h3.13l-1.86,14.38Z"
       id="path25" />
    <path
       class="cls-2"
       d="M1334.1,511.16h-18.41v-2.83c1.99,0,3.47-.16,4.43-.49s1.63-1.08,1.98-2.27c.35-1.19.52-3.05.52-5.59v-28.02c0-1.89-.18-3.33-.52-4.32-.35-.99-1.01-1.68-1.98-2.05-.97-.37-2.4-.56-4.29-.56v-2.83h18.78l14.68,35.62h.45l14.61-35.62h17.51v2.83c-1.69,0-3.01.19-3.95.56-.94.37-1.59,1.06-1.94,2.05-.35.99-.52,2.41-.52,4.25v30.19c0,1.69.19,2.98.56,3.87s1.03,1.51,1.98,1.86c.94.35,2.26.52,3.95.52v2.83h-22.51v-2.83c1.94,0,3.38-.17,4.32-.52.94-.35,1.57-.97,1.86-1.86s.45-2.19.45-3.87v-30.56h-.45l-16.55,39.65h-4.4l-16.84-39.65h-.37v28.47c0,2.54.16,4.4.49,5.59.32,1.19.96,1.95,1.9,2.27.94.32,2.36.49,4.25.49v2.83Z"
       id="path26" />
    <path
       class="cls-2"
       d="M1422.49,511.16h-24.52v-2.83c2.19,0,3.8-.14,4.85-.41s1.73-.93,2.05-1.98c.32-1.04.48-2.66.48-4.85v-9.32l-9.84-16.4c-1.44-2.43-2.66-4.34-3.65-5.7-.99-1.37-1.89-2.38-2.68-3.06-.8-.67-1.54-1.11-2.24-1.3-.7-.2-1.49-.3-2.38-.3v-2.83h21.98v2.83c-1.99,0-3.27.15-3.84.45s-.86.72-.86,1.27c0,.89.37,1.99,1.12,3.28l6.41,11.1,3.06,5.96h.45l9.46-17.51c.2-.35.37-.77.52-1.27.15-.5.22-.94.22-1.34,0-.6-.26-1.07-.78-1.41-.52-.35-1.73-.52-3.61-.52v-2.83h16.62v2.83c-1.39.1-2.57.31-3.54.63-.97.32-1.88.94-2.72,1.86-.85.92-1.86,2.35-3.06,4.29l-11.1,19.9v9.39c0,2.19.21,3.79.63,4.81.42,1.02,1.19,1.68,2.31,1.98s2.67.45,4.66.45v2.83Z"
       id="path27" />
  </g>
  <g
     id="g43">
    <path
       class="cls-2"
       d="M1411.08,1487.87c5.12,0,9.48.99,13.08,2.98,3.6,1.99,6.36,4.89,8.27,8.72,1.91,3.82,2.87,8.42,2.87,13.79s-.96,9.64-2.87,13.42c-1.91,3.77-4.7,6.71-8.35,8.79s-7.99,3.13-13.01,3.13-9.48-.99-13.08-2.98c-3.6-1.99-6.36-4.83-8.27-8.53-1.91-3.7-2.87-8.09-2.87-13.16,0-5.36.96-10,2.87-13.9,1.91-3.9,4.67-6.92,8.27-9.06,3.6-2.13,7.96-3.21,13.08-3.21ZM1411.01,1491.45c-4.72,0-8.22,1.82-10.51,5.48s-3.43,9.28-3.43,16.88c0,4.57.58,8.45,1.75,11.62,1.17,3.18,2.82,5.6,4.96,7.27,2.14,1.66,4.65,2.5,7.53,2.5,4.22,0,7.58-1.85,10.06-5.55,2.48-3.7,3.73-8.98,3.73-15.83s-1.17-12.48-3.5-16.43c-2.33-3.95-5.86-5.92-10.58-5.92Z"
       id="path28" />
    <path
       class="cls-2"
       d="M1356.08,1488.84h24.45v2.83c-2.09,0-3.6.17-4.55.52-.94.35-1.56,1.03-1.86,2.05s-.45,2.57-.45,4.66v30.41c0,2.33.49,3.86,1.45,4.58s2.72,1.08,5.25,1.08v2.83h-22.06c-2.43,0-4.81-.17-7.12-.52-2.31-.35-4.36-.99-6.15-1.94-1.79-.94-3.22-2.25-4.29-3.91-1.07-1.67-1.6-3.82-1.6-6.45,0-2.98.55-5.47,1.64-7.45,1.09-1.99,2.57-3.58,4.43-4.77,1.86-1.19,3.99-2.04,6.37-2.53,2.38-.5,4.87-.75,7.45-.75.85,0,1.73.08,2.65.26.92.17,1.73.36,2.42.56v-11.7c0-1.99-.17-3.48-.52-4.47-.35-.99-1.11-1.65-2.27-1.98-1.17-.32-2.92-.49-5.25-.49v-2.83ZM1360.18,1513.36c-2.43,0-4.47.3-6.11.89s-2.87,1.68-3.69,3.24c-.82,1.57-1.23,3.81-1.23,6.74,0,3.43.87,5.99,2.61,7.68,1.74,1.69,4.55,2.53,8.42,2.53.69,0,1.34-.02,1.94-.07.6-.05,1.27-.12,2.01-.23v-20.42c-.5-.05-1.04-.12-1.64-.22-.6-.1-1.37-.15-2.31-.15Z"
       id="path29" />
    <path
       class="cls-2"
       d="M1292.96,1488.84h41.66v2.83c-1.84,0-3.27.14-4.29.41s-1.74.86-2.16,1.75c-.42.89-.63,2.28-.63,4.17v30.11c0,1.89.16,3.32.49,4.28.32.97.99,1.63,2.01,1.98,1.02.35,2.55.52,4.58.52v2.91h-40.92l-.45-13.04h3.28c.35,2.34.86,4.15,1.53,5.44.67,1.29,1.74,2.18,3.21,2.68,1.47.5,3.64.75,6.52.75h10.28v-17.81h-7.45c-2.38,0-4.16.15-5.33.45-1.17.3-1.94.93-2.31,1.9-.37.97-.56,2.42-.56,4.36h-3.06v-17.22h3.06c0,2.09.19,3.61.56,4.59.37.97,1.14,1.59,2.31,1.86,1.17.27,2.94.41,5.33.41h7.45v-19.23h-9.09c-2.63,0-4.77.14-6.41.41s-2.95.78-3.95,1.53c-.99.75-1.81,1.79-2.46,3.13s-1.29,3.08-1.94,5.22h-3.13l1.86-14.38Z"
       id="path30" />
    <path
       class="cls-2"
       d="M1239.53,1488.32h6.33l29.36,38.98h2.46l1.94,3.35c.89,1.24,1.7,2.16,2.42,2.76s1.47,1.01,2.24,1.23c.77.23,1.7.34,2.8.34v2.83h-15.95l-26.68-35.4h-.37v22.95c0,2.09.12,3.84.37,5.25.25,1.42.86,2.5,1.83,3.24s2.6,1.12,4.88,1.12v2.83h-18.33v-2.83c2.04,0,3.54-.37,4.51-1.12s1.58-1.85,1.83-3.32.37-3.24.37-5.33v-36.89ZM1268.82,1488.84h18.26v2.83c-1.99,0-3.48.51-4.47,1.53-.99,1.02-1.66,2.45-2.01,4.28-.35,1.84-.52,4-.52,6.48v28.62h-4.47v-32.05c0-2.48-.18-4.36-.52-5.62-.35-1.27-1.02-2.12-2.01-2.57-.99-.45-2.41-.67-4.25-.67v-2.83Z"
       id="path31" />
    <path
       class="cls-2"
       d="M1193.32,1488.84h18.41v2.83c-1.99,0-3.47.16-4.43.49s-1.63,1.08-1.98,2.27c-.35,1.19-.52,3.05-.52,5.59v28.02c0,1.89.18,3.33.52,4.32.35.99,1.01,1.68,1.98,2.05.97.37,2.4.56,4.29.56v2.83h-18.78l-14.68-35.62h-.45l-14.61,35.62h-17.51v-2.83c1.69,0,3.01-.19,3.95-.56.94-.37,1.59-1.06,1.94-2.05.35-.99.52-2.41.52-4.25v-30.19c0-1.69-.19-2.98-.56-3.87s-1.03-1.51-1.98-1.86c-.94-.35-2.26-.52-3.95-.52v-2.83h22.51v2.83c-1.94,0-3.38.17-4.32.52-.94.35-1.57.97-1.86,1.86s-.45,2.19-.45,3.87v30.56h.45l16.55-39.65h4.4l16.84,39.65h.37v-28.47c0-2.54-.16-4.4-.49-5.59-.32-1.19-.96-1.95-1.9-2.27-.94-.32-2.36-.49-4.25-.49v-2.83Z"
       id="path32" />
    <path
       class="cls-2"
       d="M1112.46,1487.87c7.3,0,12.59,1.52,15.87,4.55,3.28,3.03,4.92,8,4.92,14.91v21.09c0,1.74.19,3.08.56,4.02.37.94,1.07,1.6,2.09,1.98,1.02.37,2.52.56,4.51.56v2.83h-23.77v-2.83c2.04,0,3.57-.19,4.58-.56,1.02-.37,1.69-1.06,2.01-2.05.32-.99.49-2.43.49-4.32v-19.82c0-3.23-.38-5.94-1.16-8.12-.77-2.19-2.11-3.83-4.02-4.92-1.91-1.1-4.56-1.64-7.94-1.64-4.77,0-8.22,1.09-10.36,3.28-2.13,2.19-3.2,5.84-3.2,10.96v17.59c0,2.63.15,4.64.45,6.04.3,1.39.94,2.33,1.94,2.83.99.5,2.54.75,4.62.75v2.83h-18.93v-2.83c2.14,0,3.7-.25,4.69-.75.99-.5,1.63-1.42,1.9-2.76.27-1.34.41-3.3.41-5.89v-17.14c0-6.86,1.56-12,4.69-15.43s8.35-5.14,15.65-5.14Z"
       id="path33" />
    <path
       class="cls-2"
       d="M1077.95,1487.8h2.91l.67,16.1h-3.21c-.84-3.28-1.79-5.79-2.83-7.53s-2.33-2.93-3.87-3.58c-1.54-.65-3.4-.97-5.59-.97-1.69,0-3.23.23-4.62.67s-2.51,1.19-3.35,2.24c-.84,1.04-1.27,2.43-1.27,4.17,0,2.13.56,3.9,1.68,5.29,1.12,1.39,2.55,2.61,4.29,3.65,1.74,1.04,3.6,2.03,5.59,2.98,2.19,1.14,4.25,2.36,6.19,3.65s3.49,2.87,4.66,4.73c1.17,1.86,1.75,4.24,1.75,7.12,0,2.68-.66,4.93-1.98,6.74-1.32,1.81-3.15,3.19-5.52,4.13-2.36.94-5.08,1.42-8.16,1.42-2.04,0-3.66-.16-4.88-.49-1.22-.33-2.21-.65-2.98-.97s-1.45-.48-2.05-.48c-.5,0-.96.12-1.38.37-.42.25-.73.77-.93,1.57h-2.46l-.52-15.43h3.06c1.09,4.37,2.53,7.49,4.32,9.35s4.25,2.79,7.38,2.79c2.58,0,4.56-.51,5.92-1.52,1.37-1.02,2.05-2.6,2.05-4.73,0-1.84-.52-3.37-1.56-4.58-1.04-1.22-2.42-2.3-4.14-3.24s-3.54-1.91-5.48-2.9c-1.74-.89-3.44-1.82-5.1-2.76-1.67-.95-3.17-2.05-4.51-3.32-1.34-1.27-2.42-2.74-3.24-4.43-.82-1.69-1.23-3.68-1.23-5.96,0-3.03.75-5.58,2.24-7.64s3.54-3.63,6.15-4.7c2.61-1.07,5.63-1.6,9.06-1.6,2.43,0,4.36.19,5.78.56,1.42.37,2.51.75,3.28,1.12.77.37,1.43.56,1.98.56s1.01-.21,1.38-.63.56-1.01.56-1.75Z"
       id="path34" />
    <path
       class="cls-2"
       d="M1019.15,1488.84h23.48v2.83c-2.19,0-3.78.19-4.77.56-.99.37-1.63,1.1-1.9,2.16-.27,1.07-.41,2.67-.41,4.81v28.1c0,1.99.14,3.53.41,4.62.27,1.09.91,1.87,1.9,2.35.99.47,2.58.71,4.77.71v2.83h-23.63v-2.83c2.24,0,3.86-.24,4.88-.71,1.02-.47,1.64-1.27,1.86-2.38.22-1.12.34-2.65.34-4.59v-28.1c0-2.09-.14-3.68-.41-4.77-.27-1.1-.89-1.83-1.86-2.2-.97-.37-2.52-.56-4.66-.56v-2.83Z"
       id="path35" />
    <path
       class="cls-2"
       d="M989.42,1487.95c5.32,0,9.71,1.08,13.19,3.24,3.48,2.16,6.06,5.13,7.75,8.91,1.69,3.77,2.54,8.08,2.54,12.89,0,5.57-1.06,10.26-3.17,14.09-2.11,3.82-5.04,6.72-8.79,8.68-3.75,1.96-8.09,2.94-13.01,2.94-2.63,0-4.72-.21-6.26-.63-1.54-.42-2.76-.85-3.65-1.26-.89-.42-1.69-.63-2.38-.63-.75,0-1.27.27-1.57.82-.3.54-.6,1.12-.89,1.71h-2.83v-17.89h3.2c.94,4.77,2.63,8.32,5.07,10.66s5.56,3.5,9.39,3.5c4.82,0,8.47-1.78,10.96-5.33,2.48-3.55,3.73-8.61,3.73-15.17,0-4.77-.63-8.64-1.9-11.62s-3.13-5.16-5.59-6.52-5.43-2.05-8.91-2.05-6.57.63-8.98,1.9c-2.41,1.27-4.68,3.09-6.82,5.48l-2.16-1.94c1.54-2.19,3.23-4.18,5.07-5.96,1.84-1.79,4.04-3.2,6.6-4.25,2.56-1.05,5.7-1.57,9.43-1.57Z"
       id="path36" />
    <path
       class="cls-2"
       d="M931.59,1488.84h16.55v2.83c-1.34,0-2.42.21-3.24.63s-1.59,1.22-2.31,2.38c-.72,1.17-1.55,2.87-2.5,5.1l-16.02,38.38h-6.04l-16.69-39.57c-1.04-2.38-2.1-4.13-3.17-5.25-1.07-1.12-2.5-1.68-4.29-1.68v-2.83h22.43v2.83c-.65,0-1.33.05-2.05.15-.72.1-1.33.32-1.83.67-.5.35-.75.92-.75,1.71,0,.55.12,1.31.37,2.27.25.97.6,1.98,1.04,3.02l2.46,6.19.6,1.79,7.53,20.27h.3l8.2-20.27.52-1.79,2.98-7.23c.2-.64.41-1.33.63-2.05.22-.72.34-1.41.34-2.05,0-1.14-.38-1.87-1.16-2.2-.77-.32-2.07-.49-3.91-.49v-2.83ZM914.3,1504.79h19.75l-1.27,3.58h-17.22l-1.27-3.58Z"
       id="path37" />
    <path
       class="cls-2"
       d="M869.28,1487.95c5.32,0,9.71,1.08,13.19,3.24,3.48,2.16,6.06,5.13,7.75,8.91,1.69,3.77,2.54,8.08,2.54,12.89,0,5.57-1.06,10.26-3.17,14.09-2.11,3.82-5.04,6.72-8.79,8.68-3.75,1.96-8.09,2.94-13.01,2.94-2.63,0-4.72-.21-6.26-.63-1.54-.42-2.76-.85-3.65-1.26-.89-.42-1.69-.63-2.38-.63-.75,0-1.27.27-1.57.82-.3.54-.6,1.12-.89,1.71h-2.83v-17.89h3.2c.94,4.77,2.63,8.32,5.07,10.66s5.56,3.5,9.39,3.5c4.82,0,8.47-1.78,10.96-5.33,2.48-3.55,3.73-8.61,3.73-15.17,0-4.77-.63-8.64-1.9-11.62s-3.13-5.16-5.59-6.52-5.43-2.05-8.91-2.05-6.57.63-8.98,1.9c-2.41,1.27-4.68,3.09-6.82,5.48l-2.16-1.94c1.54-2.19,3.23-4.18,5.07-5.96,1.84-1.79,4.04-3.2,6.6-4.25,2.56-1.05,5.7-1.57,9.43-1.57Z"
       id="path38" />
    <path
       class="cls-2"
       d="M828.96,1488.84h16.55v2.83c-1.34,0-2.42.21-3.24.63s-1.59,1.22-2.31,2.38c-.72,1.17-1.55,2.87-2.5,5.1l-16.02,38.38h-6.04l-16.69-39.57c-1.04-2.38-2.1-4.13-3.17-5.25-1.07-1.12-2.5-1.68-4.29-1.68v-2.83h22.43v2.83c-.65,0-1.33.05-2.05.15-.72.1-1.33.32-1.83.67-.5.35-.75.92-.75,1.71,0,.55.12,1.31.37,2.27.25.97.6,1.98,1.04,3.02l2.46,6.19.6,1.79,7.53,20.27h.3l8.2-20.27.52-1.79,2.98-7.23c.2-.64.41-1.33.63-2.05.22-.72.34-1.41.34-2.05,0-1.14-.38-1.87-1.16-2.2-.77-.32-2.07-.49-3.91-.49v-2.83ZM811.67,1504.79h19.75l-1.27,3.58h-17.22l-1.27-3.58Z"
       id="path39" />
    <path
       class="cls-2"
       d="M766.44,1488.84h21.61v2.83c-2.09,0-3.64.16-4.66.49s-1.68.99-1.98,2.01c-.3,1.02-.45,2.52-.45,4.51v29.96c0,1.84.22,3.19.67,4.06s1.18,1.44,2.2,1.72c1.02.27,2.42.41,4.21.41v2.98h-21.09c-3.77,0-7.4-.36-10.88-1.08-3.48-.72-6.57-1.96-9.28-3.73s-4.85-4.19-6.41-7.27-2.35-7-2.35-11.77.71-8.61,2.12-11.81c1.42-3.2,3.42-5.79,6-7.75,2.58-1.96,5.6-3.38,9.06-4.25,3.45-.87,7.19-1.3,11.22-1.3ZM767.71,1492.57c-4.03,0-7.48.57-10.36,1.72-2.88,1.14-5.09,3.19-6.63,6.15s-2.31,7.22-2.31,12.78c0,6.71,1.62,11.85,4.85,15.43,3.23,3.58,8.25,5.36,15.06,5.36h1.45c.47,0,1.06-.02,1.75-.07v-41.21c-.64-.05-1.29-.09-1.94-.11s-1.27-.04-1.86-.04Z"
       id="path40" />
    <path
       class="cls-2"
       d="M690.27,1488.84h41.66v2.83c-1.84,0-3.27.14-4.29.41s-1.74.86-2.16,1.75c-.42.89-.63,2.28-.63,4.17v30.11c0,1.89.16,3.32.49,4.28.32.97.99,1.63,2.01,1.98,1.02.35,2.55.52,4.58.52v2.91h-40.92l-.45-13.04h3.28c.35,2.34.86,4.15,1.53,5.44.67,1.29,1.74,2.18,3.21,2.68,1.47.5,3.64.75,6.52.75h10.28v-17.81h-7.45c-2.38,0-4.16.15-5.33.45-1.17.3-1.94.93-2.31,1.9-.37.97-.56,2.42-.56,4.36h-3.06v-17.22h3.06c0,2.09.19,3.61.56,4.59.37.97,1.14,1.59,2.31,1.86,1.17.27,2.94.41,5.33.41h7.45v-19.23h-9.09c-2.63,0-4.77.14-6.41.41s-2.95.78-3.95,1.53c-.99.75-1.81,1.79-2.46,3.13s-1.29,3.08-1.94,5.22h-3.13l1.86-14.38Z"
       id="path41" />
    <path
       class="cls-2"
       d="M665.9,1488.84h18.41v2.83c-1.99,0-3.47.16-4.43.49s-1.63,1.08-1.98,2.27c-.35,1.19-.52,3.05-.52,5.59v28.02c0,1.89.18,3.33.52,4.32.35.99,1.01,1.68,1.98,2.05.97.37,2.4.56,4.29.56v2.83h-18.78l-14.68-35.62h-.45l-14.61,35.62h-17.51v-2.83c1.69,0,3.01-.19,3.95-.56.94-.37,1.59-1.06,1.94-2.05.35-.99.52-2.41.52-4.25v-30.19c0-1.69-.19-2.98-.56-3.87s-1.03-1.51-1.98-1.86c-.94-.35-2.26-.52-3.95-.52v-2.83h22.51v2.83c-1.94,0-3.38.17-4.32.52-.94.35-1.57.97-1.86,1.86s-.45,2.19-.45,3.87v30.56h.45l16.55-39.65h4.4l16.84,39.65h.37v-28.47c0-2.54-.16-4.4-.49-5.59-.32-1.19-.96-1.95-1.9-2.27-.94-.32-2.36-.49-4.25-.49v-2.83Z"
       id="path42" />
    <path
       class="cls-2"
       d="M577.51,1488.84h24.52v2.83c-2.19,0-3.8.14-4.85.41s-1.73.93-2.05,1.98c-.32,1.04-.48,2.66-.48,4.85v9.32l9.84,16.4c1.44,2.43,2.66,4.34,3.65,5.7.99,1.37,1.89,2.38,2.68,3.06.8.67,1.54,1.11,2.24,1.3.7.2,1.49.3,2.38.3v2.83h-21.98v-2.83c1.99,0,3.27-.15,3.84-.45s.86-.72.86-1.27c0-.89-.37-1.99-1.12-3.28l-6.41-11.1-3.06-5.96h-.45l-9.46,17.51c-.2.35-.37.77-.52,1.27-.15.5-.22.94-.22,1.34,0,.6.26,1.07.78,1.41.52.35,1.73.52,3.61.52v2.83h-16.62v-2.83c1.39-.1,2.57-.31,3.54-.63.97-.32,1.88-.94,2.72-1.86.85-.92,1.86-2.35,3.06-4.29l11.1-19.9v-9.39c0-2.19-.21-3.79-.63-4.81-.42-1.02-1.19-1.68-2.31-1.98s-2.67-.45-4.66-.45v-2.83Z"
       id="path43" />
  </g>
  <g
     id="g59">
    <path
       class="cls-2"
       d="M1492.32,588.92c0-5.12.99-9.48,2.98-13.08,1.99-3.6,4.89-6.36,8.72-8.27,3.82-1.91,8.42-2.87,13.79-2.87s9.64.96,13.42,2.87c3.77,1.91,6.71,4.7,8.79,8.35s3.13,7.99,3.13,13.01-.99,9.48-2.98,13.08c-1.99,3.6-4.83,6.36-8.53,8.27-3.7,1.91-8.09,2.87-13.16,2.87-5.36,0-10-.96-13.9-2.87-3.9-1.91-6.92-4.67-9.06-8.27-2.13-3.6-3.21-7.96-3.21-13.08ZM1495.9,588.99c0,4.72,1.82,8.22,5.48,10.51,3.65,2.29,9.28,3.43,16.88,3.43,4.57,0,8.45-.58,11.62-1.75,3.18-1.17,5.6-2.82,7.27-4.96,1.66-2.14,2.5-4.65,2.5-7.53,0-4.22-1.85-7.58-5.55-10.06-3.7-2.48-8.98-3.73-15.83-3.73s-12.48,1.17-16.43,3.5c-3.95,2.33-5.92,5.86-5.92,10.58Z"
       id="path44" />
    <path
       class="cls-2"
       d="M1493.29,643.92v-24.45h2.83c0,2.09.17,3.6.52,4.55.35.94,1.03,1.56,2.05,1.86s2.57.45,4.66.45h30.41c2.33,0,3.86-.49,4.58-1.45s1.08-2.72,1.08-5.25h2.83v22.06c0,2.43-.17,4.81-.52,7.12-.35,2.31-.99,4.36-1.94,6.15-.94,1.79-2.25,3.22-3.91,4.29-1.67,1.07-3.82,1.6-6.45,1.6-2.98,0-5.47-.55-7.45-1.64-1.99-1.09-3.58-2.57-4.77-4.43-1.19-1.86-2.04-3.99-2.53-6.37-.5-2.38-.75-4.87-.75-7.45,0-.85.08-1.73.26-2.65.17-.92.36-1.73.56-2.42h-11.7c-1.99,0-3.48.17-4.47.52-.99.35-1.65,1.11-1.98,2.27-.32,1.17-.49,2.92-.49,5.25h-2.83ZM1517.81,639.82c0,2.43.3,4.47.89,6.11s1.68,2.87,3.24,3.69c1.57.82,3.81,1.23,6.74,1.23,3.43,0,5.99-.87,7.68-2.61,1.69-1.74,2.53-4.55,2.53-8.42,0-.69-.02-1.34-.07-1.94-.05-.6-.12-1.27-.23-2.01h-20.42c-.05.5-.12,1.04-.22,1.64-.1.6-.15,1.37-.15,2.31Z"
       id="path45" />
    <path
       class="cls-2"
       d="M1493.29,707.04v-41.66h2.83c0,1.84.14,3.27.41,4.29s.86,1.74,1.75,2.16c.89.42,2.28.63,4.17.63h30.11c1.89,0,3.32-.16,4.28-.49.97-.32,1.63-.99,1.98-2.01.35-1.02.52-2.55.52-4.58h2.91v40.92l-13.04.45v-3.28c2.34-.35,4.15-.86,5.44-1.53,1.29-.67,2.18-1.74,2.68-3.21.5-1.47.75-3.64.75-6.52v-10.28h-17.81v7.45c0,2.38.15,4.16.45,5.33.3,1.17.93,1.94,1.9,2.31.97.37,2.42.56,4.36.56v3.06h-17.22v-3.06c2.09,0,3.61-.19,4.59-.56.97-.37,1.59-1.14,1.86-2.31.27-1.17.41-2.94.41-5.33v-7.45h-19.23v9.09c0,2.63.14,4.77.41,6.41s.78,2.95,1.53,3.95c.75.99,1.79,1.81,3.13,2.46s3.08,1.29,5.22,1.94v3.13l-14.38-1.86Z"
       id="path46" />
    <path
       class="cls-2"
       d="M1492.77,760.47v-6.33l38.98-29.36v-2.46l3.35-1.94c1.24-.89,2.16-1.7,2.76-2.42s1.01-1.47,1.23-2.24c.23-.77.34-1.7.34-2.8h2.83v15.95l-35.4,26.68v.37h22.95c2.09,0,3.84-.12,5.25-.37,1.42-.25,2.5-.86,3.24-1.83s1.12-2.6,1.12-4.88h2.83v18.33h-2.83c0-2.04-.37-3.54-1.12-4.51s-1.85-1.58-3.32-1.83-3.24-.37-5.33-.37h-36.89ZM1493.29,731.18v-18.26h2.83c0,1.99.51,3.48,1.53,4.47,1.02.99,2.45,1.66,4.28,2.01,1.84.35,4,.52,6.48.52h28.62v4.47h-32.05c-2.48,0-4.36.18-5.62.52-1.27.35-2.12,1.02-2.57,2.01-.45.99-.67,2.41-.67,4.25h-2.83Z"
       id="path47" />
    <path
       class="cls-2"
       d="M1493.29,806.68v-18.41h2.83c0,1.99.16,3.47.49,4.43s1.08,1.63,2.27,1.98c1.19.35,3.05.52,5.59.52h28.02c1.89,0,3.33-.18,4.32-.52.99-.35,1.68-1.01,2.05-1.98.37-.97.56-2.4.56-4.29h2.83v18.78l-35.62,14.68v.45l35.62,14.61v17.51h-2.83c0-1.69-.19-3.01-.56-3.95-.37-.94-1.06-1.59-2.05-1.94-.99-.35-2.41-.52-4.25-.52h-30.19c-1.69,0-2.98.19-3.87.56s-1.51,1.03-1.86,1.98c-.35.94-.52,2.26-.52,3.95h-2.83v-22.51h2.83c0,1.94.17,3.38.52,4.32.35.94.97,1.57,1.86,1.86s2.19.45,3.87.45h30.56v-.45l-39.65-16.55v-4.4l39.65-16.84v-.37h-28.47c-2.54,0-4.4.16-5.59.49-1.19.32-1.95.96-2.27,1.9-.32.94-.49,2.36-.49,4.25h-2.83Z"
       id="path48" />
    <path
       class="cls-2"
       d="M1492.32,887.54c0-7.3,1.52-12.59,4.55-15.87,3.03-3.28,8-4.92,14.91-4.92h21.09c1.74,0,3.08-.19,4.02-.56.94-.37,1.6-1.07,1.98-2.09.37-1.02.56-2.52.56-4.51h2.83v23.77h-2.83c0-2.04-.19-3.57-.56-4.58-.37-1.02-1.06-1.69-2.05-2.01-.99-.32-2.43-.49-4.32-.49h-19.82c-3.23,0-5.94.38-8.12,1.16-2.19.77-3.83,2.11-4.92,4.02-1.1,1.91-1.64,4.56-1.64,7.94,0,4.77,1.09,8.22,3.28,10.36,2.19,2.13,5.84,3.2,10.96,3.2h17.59c2.63,0,4.64-.15,6.04-.45,1.39-.3,2.33-.94,2.83-1.94.5-.99.75-2.54.75-4.62h2.83v18.93h-2.83c0-2.14-.25-3.7-.75-4.69-.5-.99-1.42-1.63-2.76-1.9-1.34-.27-3.3-.41-5.89-.41h-17.14c-6.86,0-12-1.56-15.43-4.69s-5.14-8.35-5.14-15.65Z"
       id="path49" />
    <path
       class="cls-2"
       d="M1492.25,922.05v-2.91l16.1-.67v3.21c-3.28.84-5.79,1.79-7.53,2.83s-2.93,2.33-3.58,3.87c-.65,1.54-.97,3.4-.97,5.59,0,1.69.23,3.23.67,4.62s1.19,2.51,2.24,3.35c1.04.84,2.43,1.27,4.17,1.27,2.13,0,3.9-.56,5.29-1.68,1.39-1.12,2.61-2.55,3.65-4.29,1.04-1.74,2.03-3.6,2.98-5.59,1.14-2.19,2.36-4.25,3.65-6.19s2.87-3.49,4.73-4.66c1.86-1.17,4.24-1.75,7.12-1.75,2.68,0,4.93.66,6.74,1.98,1.81,1.32,3.19,3.15,4.13,5.52.94,2.36,1.42,5.08,1.42,8.16,0,2.04-.16,3.66-.49,4.88-.33,1.22-.65,2.21-.97,2.98s-.48,1.45-.48,2.05c0,.5.12.96.37,1.38.25.42.77.73,1.57.93v2.46l-15.43.52v-3.06c4.37-1.09,7.49-2.53,9.35-4.32s2.79-4.25,2.79-7.38c0-2.58-.51-4.56-1.52-5.92-1.02-1.37-2.6-2.05-4.73-2.05-1.84,0-3.37.52-4.58,1.56-1.22,1.04-2.3,2.42-3.24,4.14s-1.91,3.54-2.9,5.48c-.89,1.74-1.82,3.44-2.76,5.1-.95,1.67-2.05,3.17-3.32,4.51-1.27,1.34-2.74,2.42-4.43,3.24-1.69.82-3.68,1.23-5.96,1.23-3.03,0-5.58-.75-7.64-2.24s-3.63-3.54-4.7-6.15c-1.07-2.61-1.6-5.63-1.6-9.06,0-2.43.19-4.36.56-5.78.37-1.42.75-2.51,1.12-3.28.37-.77.56-1.43.56-1.98s-.21-1.01-.63-1.38-1.01-.56-1.75-.56Z"
       id="path50" />
    <path
       class="cls-2"
       d="M1493.29,980.85v-23.48h2.83c0,2.19.19,3.78.56,4.77.37.99,1.1,1.63,2.16,1.9,1.07.27,2.67.41,4.81.41h28.1c1.99,0,3.53-.14,4.62-.41,1.09-.27,1.87-.91,2.35-1.9.47-.99.71-2.58.71-4.77h2.83v23.63h-2.83c0-2.24-.24-3.86-.71-4.88-.47-1.02-1.27-1.64-2.38-1.86-1.12-.22-2.65-.34-4.59-.34h-28.1c-2.09,0-3.68.14-4.77.41-1.1.27-1.83.89-2.2,1.86-.37.97-.56,2.52-.56,4.66h-2.83Z"
       id="path51" />
    <path
       class="cls-2"
       d="M1492.39,1010.58c0-5.32,1.08-9.71,3.24-13.19,2.16-3.48,5.13-6.06,8.91-7.75,3.77-1.69,8.08-2.54,12.89-2.54,5.57,0,10.26,1.06,14.09,3.17,3.82,2.11,6.72,5.04,8.68,8.79,1.96,3.75,2.94,8.09,2.94,13.01,0,2.63-.21,4.72-.63,6.26-.42,1.54-.85,2.76-1.26,3.65-.42.89-.63,1.69-.63,2.38,0,.75.27,1.27.82,1.57.54.3,1.12.6,1.71.89v2.83h-17.89v-3.2c4.77-.94,8.32-2.63,10.66-5.07s3.5-5.56,3.5-9.39c0-4.82-1.78-8.47-5.33-10.96-3.55-2.48-8.61-3.73-15.17-3.73-4.77,0-8.64.63-11.62,1.9s-5.16,3.13-6.52,5.59-2.05,5.43-2.05,8.91.63,6.57,1.9,8.98c1.27,2.41,3.09,4.68,5.48,6.82l-1.94,2.16c-2.19-1.54-4.18-3.23-5.96-5.07-1.79-1.84-3.2-4.04-4.25-6.6-1.05-2.56-1.57-5.7-1.57-9.43Z"
       id="path52" />
    <path
       class="cls-2"
       d="M1493.29,1068.41v-16.55h2.83c0,1.34.21,2.42.63,3.24s1.22,1.59,2.38,2.31c1.17.72,2.87,1.55,5.1,2.5l38.38,16.02v6.04l-39.57,16.69c-2.38,1.04-4.13,2.1-5.25,3.17-1.12,1.07-1.68,2.5-1.68,4.29h-2.83v-22.43h2.83c0,.65.05,1.33.15,2.05.1.72.32,1.33.67,1.83.35.5.92.75,1.71.75.55,0,1.31-.12,2.27-.37.97-.25,1.98-.6,3.02-1.04l6.19-2.46,1.79-.6,20.27-7.53v-.3l-20.27-8.2-1.79-.52-7.23-2.98c-.64-.2-1.33-.41-2.05-.63-.72-.22-1.41-.34-2.05-.34-1.14,0-1.87.38-2.2,1.16-.32.77-.49,2.07-.49,3.91h-2.83ZM1509.24,1085.7v-19.75l3.58,1.27v17.22l-3.58,1.27Z"
       id="path53" />
    <path
       class="cls-2"
       d="M1492.39,1130.72c0-5.32,1.08-9.71,3.24-13.19,2.16-3.48,5.13-6.06,8.91-7.75,3.77-1.69,8.08-2.54,12.89-2.54,5.57,0,10.26,1.06,14.09,3.17,3.82,2.11,6.72,5.04,8.68,8.79,1.96,3.75,2.94,8.09,2.94,13.01,0,2.63-.21,4.72-.63,6.26-.42,1.54-.85,2.76-1.26,3.65-.42.89-.63,1.69-.63,2.38,0,.75.27,1.27.82,1.57.54.3,1.12.6,1.71.89v2.83h-17.89v-3.2c4.77-.94,8.32-2.63,10.66-5.07s3.5-5.56,3.5-9.39c0-4.82-1.78-8.47-5.33-10.96-3.55-2.48-8.61-3.73-15.17-3.73-4.77,0-8.64.63-11.62,1.9s-5.16,3.13-6.52,5.59-2.05,5.43-2.05,8.91.63,6.57,1.9,8.98c1.27,2.41,3.09,4.68,5.48,6.82l-1.94,2.16c-2.19-1.54-4.18-3.23-5.96-5.07-1.79-1.84-3.2-4.04-4.25-6.6-1.05-2.56-1.57-5.7-1.57-9.43Z"
       id="path54" />
    <path
       class="cls-2"
       d="M1493.29,1171.04v-16.55h2.83c0,1.34.21,2.42.63,3.24s1.22,1.59,2.38,2.31c1.17.72,2.87,1.55,5.1,2.5l38.38,16.02v6.04l-39.57,16.69c-2.38,1.04-4.13,2.1-5.25,3.17-1.12,1.07-1.68,2.5-1.68,4.29h-2.83v-22.43h2.83c0,.65.05,1.33.15,2.05.1.72.32,1.33.67,1.83.35.5.92.75,1.71.75.55,0,1.31-.12,2.27-.37.97-.25,1.98-.6,3.02-1.04l6.19-2.46,1.79-.6,20.27-7.53v-.3l-20.27-8.2-1.79-.52-7.23-2.98c-.64-.2-1.33-.41-2.05-.63-.72-.22-1.41-.34-2.05-.34-1.14,0-1.87.38-2.2,1.16-.32.77-.49,2.07-.49,3.91h-2.83ZM1509.24,1188.33v-19.75l3.58,1.27v17.22l-3.58,1.27Z"
       id="path55" />
    <path
       class="cls-2"
       d="M1493.29,1233.56v-21.61h2.83c0,2.09.16,3.64.49,4.66s.99,1.68,2.01,1.98c1.02.3,2.52.45,4.51.45h29.96c1.84,0,3.19-.22,4.06-.67s1.44-1.18,1.72-2.2c.27-1.02.41-2.42.41-4.21h2.98v21.09c0,3.77-.36,7.4-1.08,10.88-.72,3.48-1.96,6.57-3.73,9.28s-4.19,4.85-7.27,6.41-7,2.35-11.77,2.35-8.61-.71-11.81-2.12c-3.2-1.42-5.79-3.42-7.75-6-1.96-2.58-3.38-5.6-4.25-9.06s-1.3-7.19-1.3-11.22ZM1497.01,1232.29c0,4.03.57,7.48,1.72,10.36,1.14,2.88,3.19,5.09,6.15,6.63s7.22,2.31,12.78,2.31c6.71,0,11.85-1.62,15.43-4.85,3.58-3.23,5.36-8.25,5.36-15.06v-1.45c0-.47-.02-1.06-.07-1.75h-41.21c-.05.64-.09,1.29-.11,1.94s-.04,1.27-.04,1.86Z"
       id="path56" />
    <path
       class="cls-2"
       d="M1493.29,1309.73v-41.66h2.83c0,1.84.14,3.27.41,4.29s.86,1.74,1.75,2.16c.89.42,2.28.63,4.17.63h30.11c1.89,0,3.32-.16,4.28-.49.97-.32,1.63-.99,1.98-2.01.35-1.02.52-2.55.52-4.58h2.91v40.92l-13.04.45v-3.28c2.34-.35,4.15-.86,5.44-1.53,1.29-.67,2.18-1.74,2.68-3.21.5-1.47.75-3.64.75-6.52v-10.28h-17.81v7.45c0,2.38.15,4.16.45,5.33.3,1.17.93,1.94,1.9,2.31.97.37,2.42.56,4.36.56v3.06h-17.22v-3.06c2.09,0,3.61-.19,4.59-.56.97-.37,1.59-1.14,1.86-2.31.27-1.17.41-2.94.41-5.33v-7.45h-19.23v9.09c0,2.63.14,4.77.41,6.41s.78,2.95,1.53,3.95c.75.99,1.79,1.81,3.13,2.46s3.08,1.29,5.22,1.94v3.13l-14.38-1.86Z"
       id="path57" />
    <path
       class="cls-2"
       d="M1493.29,1334.1v-18.41h2.83c0,1.99.16,3.47.49,4.43s1.08,1.63,2.27,1.98c1.19.35,3.05.52,5.59.52h28.02c1.89,0,3.33-.18,4.32-.52.99-.35,1.68-1.01,2.05-1.98.37-.97.56-2.4.56-4.29h2.83v18.78l-35.62,14.68v.45l35.62,14.61v17.51h-2.83c0-1.69-.19-3.01-.56-3.95-.37-.94-1.06-1.59-2.05-1.94-.99-.35-2.41-.52-4.25-.52h-30.19c-1.69,0-2.98.19-3.87.56s-1.51,1.03-1.86,1.98c-.35.94-.52,2.26-.52,3.95h-2.83v-22.51h2.83c0,1.94.17,3.38.52,4.32.35.94.97,1.57,1.86,1.86s2.19.45,3.87.45h30.56v-.45l-39.65-16.55v-4.4l39.65-16.84v-.37h-28.47c-2.54,0-4.4.16-5.59.49-1.19.32-1.95.96-2.27,1.9-.32.94-.49,2.36-.49,4.25h-2.83Z"
       id="path58" />
    <path
       class="cls-2"
       d="M1493.29,1422.49v-24.52h2.83c0,2.19.14,3.8.41,4.85s.93,1.73,1.98,2.05c1.04.32,2.66.48,4.85.48h9.32l16.4-9.84c2.43-1.44,4.34-2.66,5.7-3.65,1.37-.99,2.38-1.89,3.06-2.68.67-.8,1.11-1.54,1.3-2.24.2-.7.3-1.49.3-2.38h2.83v21.98h-2.83c0-1.99-.15-3.27-.45-3.84s-.72-.86-1.27-.86c-.89,0-1.99.37-3.28,1.12l-11.1,6.41-5.96,3.06v.45l17.51,9.46c.35.2.77.37,1.27.52.5.15.94.22,1.34.22.6,0,1.07-.26,1.41-.78.35-.52.52-1.73.52-3.61h2.83v16.62h-2.83c-.1-1.39-.31-2.57-.63-3.54-.32-.97-.94-1.88-1.86-2.72-.92-.85-2.35-1.86-4.29-3.06l-19.9-11.1h-9.39c-2.19,0-3.79.21-4.81.63-1.02.42-1.68,1.19-1.98,2.31s-.45,2.67-.45,4.66h-2.83Z"
       id="path59" />
  </g>
  <g
     id="g75">
    <path
       class="cls-2"
       d="M512.13,1411.08c0,5.12-.99,9.48-2.98,13.08-1.99,3.6-4.89,6.36-8.72,8.27-3.82,1.91-8.42,2.87-13.79,2.87s-9.64-.96-13.42-2.87c-3.77-1.91-6.71-4.7-8.79-8.35-2.09-3.65-3.13-7.99-3.13-13.01s.99-9.48,2.98-13.08c1.99-3.6,4.83-6.36,8.53-8.27,3.7-1.91,8.09-2.87,13.16-2.87,5.36,0,10,.96,13.9,2.87,3.9,1.91,6.92,4.67,9.06,8.27,2.13,3.6,3.21,7.96,3.21,13.08ZM508.55,1411.01c0-4.72-1.82-8.22-5.48-10.51-3.65-2.29-9.28-3.43-16.88-3.43-4.57,0-8.45.58-11.62,1.75-3.18,1.17-5.6,2.82-7.27,4.96-1.66,2.14-2.5,4.65-2.5,7.53,0,4.22,1.85,7.58,5.55,10.06,3.7,2.48,8.98,3.73,15.83,3.73,7.01,0,12.48-1.17,16.43-3.5,3.95-2.33,5.92-5.86,5.92-10.58Z"
       id="path60" />
    <path
       class="cls-2"
       d="M511.16,1356.08v24.45h-2.83c0-2.09-.17-3.6-.52-4.55-.35-.94-1.03-1.56-2.05-1.86s-2.57-.45-4.66-.45h-30.41c-2.33,0-3.86.49-4.58,1.45s-1.08,2.72-1.08,5.25h-2.83v-22.06c0-2.43.17-4.81.52-7.12.35-2.31.99-4.36,1.94-6.15.94-1.79,2.25-3.22,3.91-4.29,1.67-1.07,3.82-1.6,6.45-1.6,2.98,0,5.47.55,7.45,1.64,1.99,1.09,3.58,2.57,4.77,4.43,1.19,1.86,2.04,3.99,2.53,6.37.5,2.38.75,4.87.75,7.45,0,.85-.08,1.73-.26,2.65-.17.92-.36,1.73-.56,2.42h11.7c1.99,0,3.48-.17,4.47-.52.99-.35,1.65-1.11,1.98-2.27.32-1.17.49-2.92.49-5.25h2.83ZM486.64,1360.18c0-2.43-.3-4.47-.89-6.11s-1.68-2.87-3.24-3.69c-1.57-.82-3.81-1.23-6.74-1.23-3.43,0-5.99.87-7.68,2.61-1.69,1.74-2.53,4.55-2.53,8.42,0,.69.02,1.34.07,1.94.05.6.12,1.27.23,2.01h20.42c.05-.5.12-1.04.22-1.64.1-.6.15-1.37.15-2.31Z"
       id="path61" />
    <path
       class="cls-2"
       d="M511.16,1292.96v41.66s-2.83,0-2.83,0c0-1.84-.14-3.27-.41-4.29s-.86-1.74-1.75-2.16c-.89-.42-2.28-.63-4.17-.63h-30.11c-1.89,0-3.32.16-4.28.49-.97.32-1.63.99-1.98,2.01-.35,1.02-.52,2.55-.52,4.58h-2.91s0-40.92,0-40.92l13.04-.45v3.28c-2.34.35-4.15.86-5.44,1.53-1.29.67-2.18,1.74-2.68,3.21-.5,1.47-.75,3.64-.75,6.52v10.28s17.81,0,17.81,0v-7.45c0-2.38-.15-4.16-.45-5.33-.3-1.17-.93-1.94-1.9-2.31-.97-.37-2.42-.56-4.36-.56v-3.06h17.22v3.06c-2.09,0-3.61.19-4.59.56-.97.37-1.59,1.14-1.86,2.31-.27,1.17-.41,2.94-.41,5.33v7.45s19.23,0,19.23,0v-9.09c0-2.63-.14-4.77-.41-6.41s-.78-2.95-1.53-3.95c-.75-.99-1.79-1.81-3.13-2.46s-3.08-1.29-5.22-1.94v-3.13s14.38,1.86,14.38,1.86Z"
       id="path62" />
    <path
       class="cls-2"
       d="M511.68,1239.53v6.33s-38.98,29.36-38.98,29.36v2.46s-3.35,1.94-3.35,1.94c-1.24.89-2.16,1.7-2.76,2.42s-1.01,1.47-1.23,2.24c-.23.77-.34,1.7-.34,2.8h-2.83v-15.95s35.4-26.68,35.4-26.68v-.37s-22.95,0-22.95,0c-2.09,0-3.84.12-5.25.37-1.42.25-2.5.86-3.24,1.83s-1.12,2.6-1.12,4.88h-2.83v-18.33h2.83c0,2.04.37,3.54,1.12,4.51s1.85,1.58,3.32,1.83,3.24.37,5.33.37h36.89ZM511.16,1268.82v18.26h-2.83c0-1.99-.51-3.48-1.53-4.47-1.02-.99-2.45-1.66-4.28-2.01-1.84-.35-4-.52-6.48-.52h-28.62s0-4.47,0-4.47h32.05c2.48,0,4.36-.18,5.62-.52,1.27-.35,2.12-1.02,2.57-2.01.45-.99.67-2.41.67-4.25h2.83Z"
       id="path63" />
    <path
       class="cls-2"
       d="M511.16,1193.32v18.41h-2.83c0-1.99-.16-3.47-.49-4.43s-1.08-1.63-2.27-1.98c-1.19-.35-3.05-.52-5.59-.52h-28.02c-1.89,0-3.33.18-4.32.52-.99.35-1.68,1.01-2.05,1.98-.37.97-.56,2.4-.56,4.29h-2.83v-18.78s35.62-14.68,35.62-14.68v-.45s-35.62-14.61-35.62-14.61v-17.51h2.83c0,1.69.19,3.01.56,3.95.37.94,1.06,1.59,2.05,1.94.99.35,2.41.52,4.25.52h30.19c1.69,0,2.98-.19,3.87-.56s1.51-1.03,1.86-1.98c.35-.94.52-2.26.52-3.95h2.83v22.51h-2.83c0-1.94-.17-3.38-.52-4.32-.35-.94-.97-1.57-1.86-1.86s-2.19-.45-3.87-.45h-30.56s0,.45,0,.45l39.65,16.55v4.4s-39.65,16.84-39.65,16.84v.37s28.47,0,28.47,0c2.54,0,4.4-.16,5.59-.49,1.19-.32,1.95-.96,2.27-1.9.32-.94.49-2.36.49-4.25h2.83Z"
       id="path64" />
    <path
       class="cls-2"
       d="M512.13,1112.46c0,7.3-1.52,12.59-4.55,15.87-3.03,3.28-8,4.92-14.91,4.92h-21.09c-1.74,0-3.08.19-4.02.56-.94.37-1.6,1.07-1.98,2.09-.37,1.02-.56,2.52-.56,4.51h-2.83v-23.77h2.83c0,2.04.19,3.57.56,4.58.37,1.02,1.06,1.69,2.05,2.01.99.32,2.43.49,4.32.49h19.82c3.23,0,5.94-.38,8.12-1.16,2.19-.77,3.83-2.11,4.92-4.02,1.1-1.91,1.64-4.56,1.64-7.94,0-4.77-1.09-8.22-3.28-10.36-2.19-2.13-5.84-3.2-10.96-3.2h-17.59c-2.63,0-4.64.15-6.04.45-1.39.3-2.33.94-2.83,1.94-.5.99-.75,2.54-.75,4.62h-2.83v-18.93h2.83c0,2.14.25,3.7.75,4.69.5.99,1.42,1.63,2.76,1.9,1.34.27,3.3.41,5.89.41h17.14c6.86,0,12,1.56,15.43,4.69s5.14,8.35,5.14,15.65Z"
       id="path65" />
    <path
       class="cls-2"
       d="M512.2,1077.95v2.91s-16.1.67-16.1.67v-3.21c3.28-.84,5.79-1.79,7.53-2.83s2.93-2.33,3.58-3.87c.65-1.54.97-3.4.97-5.59,0-1.69-.23-3.23-.67-4.62s-1.19-2.51-2.24-3.35c-1.04-.84-2.43-1.27-4.17-1.27-2.13,0-3.9.56-5.29,1.68-1.39,1.12-2.61,2.55-3.65,4.29-1.04,1.74-2.03,3.6-2.98,5.59-1.14,2.19-2.36,4.25-3.65,6.19s-2.87,3.49-4.73,4.66c-1.86,1.17-4.24,1.75-7.12,1.75-2.68,0-4.93-.66-6.74-1.98-1.81-1.32-3.19-3.15-4.13-5.52-.94-2.36-1.42-5.08-1.42-8.16,0-2.04.16-3.66.49-4.88.33-1.22.65-2.21.97-2.98s.48-1.45.48-2.05c0-.5-.12-.96-.37-1.38-.25-.42-.77-.73-1.57-.93v-2.46s15.43-.52,15.43-.52v3.06c-4.37,1.09-7.49,2.53-9.35,4.32s-2.79,4.25-2.79,7.38c0,2.58.51,4.56,1.52,5.92,1.02,1.37,2.6,2.05,4.73,2.05,1.84,0,3.37-.52,4.58-1.56,1.22-1.04,2.3-2.42,3.24-4.14s1.91-3.54,2.9-5.48c.89-1.74,1.82-3.44,2.76-5.1.95-1.67,2.05-3.17,3.32-4.51,1.27-1.34,2.74-2.42,4.43-3.24,1.69-.82,3.68-1.23,5.96-1.23,3.03,0,5.58.75,7.64,2.24s3.63,3.54,4.7,6.15c1.07,2.61,1.6,5.63,1.6,9.06,0,2.43-.19,4.36-.56,5.78-.37,1.42-.75,2.51-1.12,3.28-.37.77-.56,1.43-.56,1.98s.21,1.01.63,1.38,1.01.56,1.75.56Z"
       id="path66" />
    <path
       class="cls-2"
       d="M511.16,1019.15v23.48h-2.83c0-2.19-.19-3.78-.56-4.77-.37-.99-1.1-1.63-2.16-1.9-1.07-.27-2.67-.41-4.81-.41h-28.1c-1.99,0-3.53.14-4.62.41-1.09.27-1.87.91-2.35,1.9-.47.99-.71,2.58-.71,4.77h-2.83v-23.63h2.83c0,2.24.24,3.86.71,4.88.47,1.02,1.27,1.64,2.38,1.86,1.12.22,2.65.34,4.59.34h28.1c2.09,0,3.68-.14,4.77-.41,1.1-.27,1.83-.89,2.2-1.86.37-.97.56-2.52.56-4.66h2.83Z"
       id="path67" />
    <path
       class="cls-2"
       d="M512.05,989.42c0,5.32-1.08,9.71-3.24,13.19-2.16,3.48-5.13,6.06-8.91,7.75-3.77,1.69-8.08,2.54-12.89,2.54-5.57,0-10.26-1.06-14.09-3.17-3.82-2.11-6.72-5.04-8.68-8.79-1.96-3.75-2.94-8.09-2.94-13.01,0-2.63.21-4.72.63-6.26.42-1.54.85-2.76,1.26-3.65.42-.89.63-1.69.63-2.38,0-.75-.27-1.27-.82-1.57-.54-.3-1.12-.6-1.71-.89v-2.83h17.89v3.2c-4.77.94-8.32,2.63-10.66,5.07s-3.5,5.56-3.5,9.39c0,4.82,1.78,8.47,5.33,10.96,3.55,2.48,8.61,3.73,15.17,3.73,4.77,0,8.64-.63,11.62-1.9s5.16-3.13,6.52-5.59,2.05-5.43,2.05-8.91-.63-6.57-1.9-8.98c-1.27-2.41-3.09-4.68-5.48-6.82l1.94-2.16c2.19,1.54,4.18,3.23,5.96,5.07,1.79,1.84,3.2,4.04,4.25,6.6,1.05,2.56,1.57,5.7,1.57,9.43Z"
       id="path68" />
    <path
       class="cls-2"
       d="M511.16,931.59v16.55h-2.83c0-1.34-.21-2.42-.63-3.24s-1.22-1.59-2.38-2.31c-1.17-.72-2.87-1.55-5.1-2.5l-38.38-16.02v-6.04s39.57-16.69,39.57-16.69c2.38-1.04,4.13-2.1,5.25-3.17,1.12-1.07,1.68-2.5,1.68-4.29h2.83v22.43h-2.83c0-.65-.05-1.33-.15-2.05-.1-.72-.32-1.33-.67-1.83-.35-.5-.92-.75-1.71-.75-.55,0-1.31.12-2.27.37-.97.25-1.98.6-3.02,1.04l-6.19,2.46-1.79.6-20.27,7.53v.3s20.27,8.2,20.27,8.2l1.79.52,7.23,2.98c.64.2,1.33.41,2.05.63.72.22,1.41.34,2.05.34,1.14,0,1.87-.38,2.2-1.16.32-.77.49-2.07.49-3.91h2.83ZM495.21,914.3v19.75s-3.58-1.27-3.58-1.27v-17.22s3.58-1.27,3.58-1.27Z"
       id="path69" />
    <path
       class="cls-2"
       d="M512.05,869.28c0,5.32-1.08,9.71-3.24,13.19-2.16,3.48-5.13,6.06-8.91,7.75-3.77,1.69-8.08,2.54-12.89,2.54-5.57,0-10.26-1.06-14.09-3.17-3.82-2.11-6.72-5.04-8.68-8.79-1.96-3.75-2.94-8.09-2.94-13.01,0-2.63.21-4.72.63-6.26.42-1.54.85-2.76,1.26-3.65.42-.89.63-1.69.63-2.38,0-.75-.27-1.27-.82-1.57-.54-.3-1.12-.6-1.71-.89v-2.83h17.89v3.2c-4.77.94-8.32,2.63-10.66,5.07s-3.5,5.56-3.5,9.39c0,4.82,1.78,8.47,5.33,10.96,3.55,2.48,8.61,3.73,15.17,3.73,4.77,0,8.64-.63,11.62-1.9s5.16-3.13,6.52-5.59c1.37-2.46,2.05-5.43,2.05-8.91s-.63-6.57-1.9-8.98c-1.27-2.41-3.09-4.68-5.48-6.82l1.94-2.16c2.19,1.54,4.18,3.23,5.96,5.07,1.79,1.84,3.2,4.04,4.25,6.6,1.05,2.56,1.57,5.7,1.57,9.43Z"
       id="path70" />
    <path
       class="cls-2"
       d="M511.16,828.97v16.55h-2.83c0-1.34-.21-2.42-.63-3.24s-1.22-1.59-2.38-2.31c-1.17-.72-2.87-1.55-5.1-2.5l-38.38-16.02v-6.04s39.57-16.69,39.57-16.69c2.38-1.04,4.13-2.1,5.25-3.17,1.12-1.07,1.68-2.5,1.68-4.29h2.83v22.43h-2.83c0-.65-.05-1.33-.15-2.05-.1-.72-.32-1.33-.67-1.83-.35-.5-.92-.75-1.71-.75-.55,0-1.31.12-2.27.37-.97.25-1.98.6-3.02,1.04l-6.19,2.46-1.79.6-20.27,7.53v.3s20.27,8.2,20.27,8.2l1.79.52,7.23,2.98c.64.2,1.33.41,2.05.63.72.22,1.41.34,2.05.34,1.14,0,1.87-.38,2.2-1.16.32-.77.49-2.07.49-3.91h2.83ZM495.21,811.67v19.75s-3.58-1.27-3.58-1.27v-17.22s3.58-1.27,3.58-1.27Z"
       id="path71" />
    <path
       class="cls-2"
       d="M511.16,766.44v21.61h-2.83c0-2.09-.16-3.64-.49-4.66s-.99-1.68-2.01-1.98c-1.02-.3-2.52-.45-4.51-.45h-29.96c-1.84,0-3.19.22-4.06.67s-1.44,1.18-1.72,2.2c-.27,1.02-.41,2.42-.41,4.21h-2.98v-21.09c0-3.77.36-7.4,1.08-10.88.72-3.48,1.96-6.57,3.73-9.28s4.19-4.85,7.27-6.41,7-2.35,11.77-2.35,8.61.71,11.81,2.12c3.2,1.42,5.79,3.42,7.75,6,1.96,2.58,3.38,5.6,4.25,9.06.87,3.45,1.3,7.19,1.3,11.22ZM507.43,767.71c0-4.03-.57-7.48-1.72-10.36-1.14-2.88-3.19-5.09-6.15-6.63s-7.22-2.31-12.78-2.31c-6.71,0-11.85,1.62-15.43,4.85-3.58,3.23-5.36,8.25-5.36,15.06v1.45c0,.47.02,1.06.07,1.75h41.21c.05-.64.09-1.29.11-1.94s.04-1.27.04-1.86Z"
       id="path72" />
    <path
       class="cls-2"
       d="M511.16,690.27v41.66s-2.83,0-2.83,0c0-1.84-.14-3.27-.41-4.29s-.86-1.74-1.75-2.16c-.89-.42-2.28-.63-4.17-.63h-30.11c-1.89,0-3.32.16-4.28.49-.97.32-1.63.99-1.98,2.01-.35,1.02-.52,2.55-.52,4.58h-2.91s0-40.92,0-40.92l13.04-.45v3.28c-2.34.35-4.15.86-5.44,1.53-1.29.67-2.18,1.74-2.68,3.21-.5,1.47-.75,3.64-.75,6.52v10.28s17.81,0,17.81,0v-7.45c0-2.38-.15-4.16-.45-5.33-.3-1.17-.93-1.94-1.9-2.31-.97-.37-2.42-.56-4.36-.56v-3.06h17.22v3.06c-2.09,0-3.61.19-4.59.56-.97.37-1.59,1.14-1.86,2.31-.27,1.17-.41,2.94-.41,5.33v7.45s19.23,0,19.23,0v-9.09c0-2.63-.14-4.77-.41-6.41s-.78-2.95-1.53-3.95c-.75-.99-1.79-1.81-3.13-2.46s-3.08-1.29-5.22-1.94v-3.13s14.38,1.86,14.38,1.86Z"
       id="path73" />
    <path
       class="cls-2"
       d="M511.16,665.9v18.41h-2.83c0-1.99-.16-3.47-.49-4.43s-1.08-1.63-2.27-1.98c-1.19-.35-3.05-.52-5.59-.52h-28.02c-1.89,0-3.33.18-4.32.52-.99.35-1.68,1.01-2.05,1.98-.37.97-.56,2.4-.56,4.29h-2.83v-18.78s35.62-14.68,35.62-14.68v-.45s-35.62-14.61-35.62-14.61v-17.51h2.83c0,1.69.19,3.01.56,3.95.37.94,1.06,1.59,2.05,1.94.99.35,2.41.52,4.25.52h30.19c1.69,0,2.98-.19,3.87-.56s1.51-1.03,1.86-1.98c.35-.94.52-2.26.52-3.95h2.83v22.51h-2.83c0-1.94-.17-3.38-.52-4.32-.35-.94-.97-1.57-1.86-1.86s-2.19-.45-3.87-.45h-30.56s0,.45,0,.45l39.65,16.55v4.4s-39.65,16.84-39.65,16.84v.37s28.47,0,28.47,0c2.54,0,4.4-.16,5.59-.49,1.19-.32,1.95-.96,2.27-1.9.32-.94.49-2.36.49-4.25h2.83Z"
       id="path74" />
    <path
       class="cls-2"
       d="M511.16,577.51v24.52h-2.83c0-2.19-.14-3.8-.41-4.85s-.93-1.73-1.98-2.05c-1.04-.32-2.66-.48-4.85-.48h-9.32s-16.4,9.84-16.4,9.84c-2.43,1.44-4.34,2.66-5.7,3.65-1.37.99-2.38,1.89-3.06,2.68-.67.8-1.11,1.54-1.3,2.24-.2.7-.3,1.49-.3,2.38h-2.83v-21.98h2.83c0,1.99.15,3.27.45,3.84s.72.86,1.27.86c.89,0,1.99-.37,3.28-1.12l11.1-6.41,5.96-3.06v-.45s-17.51-9.46-17.51-9.46c-.35-.2-.77-.37-1.27-.52-.5-.15-.94-.22-1.34-.22-.6,0-1.07.26-1.41.78-.35.52-.52,1.73-.52,3.61h-2.83v-16.62h2.83c.1,1.39.31,2.57.63,3.54.32.97.94,1.88,1.86,2.72.92.85,2.35,1.86,4.29,3.06l19.9,11.1h9.39c2.19,0,3.79-.21,4.81-.63,1.02-.42,1.68-1.19,1.98-2.31s.45-2.67.45-4.66h2.83Z"
       id="path75" />
  </g>
  <g
     id="g78">
    <rect
       class="cls-1"
       x="451.69"
       y="1478.19"
       width="70.12"
       height="70.12"
       id="rect75" />
    <rect
       class="cls-1"
       x="1478.19"
       y="1478.19"
       width="70.12"
       height="70.12"
       id="rect76" />
    <rect
       class="cls-1"
       x="451.69"
       y="451.69"
       width="70.12"
       height="70.12"
       id="rect77" />
    <rect
       class="cls-1"
       x="1478.19"
       y="451.69"
       width="70.12"
       height="70.12"
       id="rect78" />
  </g>
</svg>
