<?xml version="1.0" encoding="UTF-8" standalone="no"?>
<svg
   id="Ebene_1"
   viewBox="0 0 3961.52 2613.72"
   version="1.1"
   sodipodi:docname="postkarte-mit-briefmarke.svg"
   inkscape:version="1.4 (86a8ad7, 2024-10-11)"
   xmlns:inkscape="http://www.inkscape.org/namespaces/inkscape"
   xmlns:sodipodi="http://sodipodi.sourceforge.net/DTD/sodipodi-0.dtd"
   xmlns="http://www.w3.org/2000/svg"
   xmlns:svg="http://www.w3.org/2000/svg">
  <sodipodi:namedview
     id="namedview98"
     pagecolor="#505050"
     bordercolor="#ffffff"
     borderopacity="1"
     inkscape:showpageshadow="0"
     inkscape:pageopacity="0"
     inkscape:pagecheckerboard="1"
     inkscape:deskcolor="#d1d1d1"
     inkscape:zoom="0.69441257"
     inkscape:cx="1981.531"
     inkscape:cy="1306.86"
     inkscape:window-width="3840"
     inkscape:window-height="2054"
     inkscape:window-x="-11"
     inkscape:window-y="-11"
     inkscape:window-maximized="1"
     inkscape:current-layer="Ebene_1" />
  <defs
     id="defs1">
    <style
       id="style1">
      .cls-1, .cls-2 {
        fill: #474746;
      }

      .cls-2 {
        stroke-linecap: round;
        stroke-linejoin: round;
      }

      .cls-2, .cls-3, .cls-4 {
        stroke: #474746;
      }

      .cls-5 {
        font-family: Outfit-SemiBold, Outfit;
        font-weight: 600;
      }

      .cls-5, .cls-6 {
        fill: #1d1d1b;
        font-size: 71px;
      }

      .cls-7 {
        fill: #fff;
      }

      .cls-8 {
        fill: #d6d6d7;
      }

      .cls-6 {
        font-family: Outfit-Regular, Outfit;
      }

      .cls-9 {
        letter-spacing: -.01em;
      }

      .cls-10 {
        letter-spacing: -.02em;
      }

      .cls-11 {
        letter-spacing: -.03em;
      }

      .cls-12 {
        letter-spacing: -.03em;
      }

      .cls-13 {
        letter-spacing: -.03em;
      }

      .cls-14 {
        letter-spacing: -.03em;
      }

      .cls-3 {
        stroke-width: 10px;
      }

      .cls-3, .cls-4 {
        fill: none;
        stroke-miterlimit: 10;
      }

      .cls-4 {
        stroke-width: 15px;
      }

      .cls-15 {
        letter-spacing: -.01em;
      }

      .cls-16 {
        letter-spacing: 0em;
      }
    </style>
  </defs>
  <rect
     class="cls-7"
     x="0"
     y="0"
     width="3961.52"
     height="2613.72"
     id="rect1" />
  <g
     id="g80">
    <path
       class="cls-8"
       d="M3786.57,1056.65c0-12.07,9.78-21.85,21.85-21.85v-11.99c-12.07,0-21.85-9.78-21.85-21.85s9.78-21.85,21.85-21.85v-11.99c-12.07,0-21.85-9.78-21.85-21.85s9.78-21.85,21.85-21.85v-11.99c-12.07,0-21.85-9.78-21.85-21.85s9.78-21.85,21.85-21.85v-11.99c-12.07,0-21.85-9.78-21.85-21.85s9.78-21.85,21.85-21.85v-14.85c-12.07,0-21.85-9.78-21.85-21.85s9.78-21.85,21.85-21.85v-11.99c-12.07,0-21.85-9.78-21.85-21.85s9.78-21.85,21.85-21.85v-11.99c-12.07,0-21.85-9.78-21.85-21.85s9.78-21.85,21.85-21.85v-11.99c-12.07,0-21.85-9.78-21.85-21.85s9.78-21.85,21.85-21.85v-11.99c-12.07,0-21.85-9.78-21.85-21.85s9.78-21.85,21.85-21.85v-11.99c-12.07,0-21.85-9.78-21.85-21.85s9.78-21.85,21.85-21.85v-11.99c-12.07,0-21.85-9.78-21.85-21.85s9.78-21.85,21.85-21.85v-11.99c-12.07,0-21.85-9.78-21.85-21.85s9.78-21.85,21.85-21.85v-11.99c-12.07,0-21.85-9.78-21.85-21.85s9.78-21.85,21.85-21.85v-11.99c-12.07,0-21.85-9.78-21.85-21.85s9.78-21.85,21.85-21.85v-11.99c-12.07,0-21.85-9.78-21.85-21.85s9.78-21.85,21.85-21.85v-11.99c-12.07,0-21.85-9.78-21.85-21.85s9.78-21.85,21.85-21.85v-19.31h-22.49c0,12.07-9.78,21.85-21.85,21.85s-21.85-9.78-21.85-21.85h-11.99c0,12.07-9.78,21.85-21.85,21.85s-21.85-9.78-21.85-21.85h-11.99c0,12.07-9.78,21.85-21.85,21.85s-21.85-9.78-21.85-21.85h-11.99c0,12.07-9.78,21.85-21.85,21.85s-21.85-9.78-21.85-21.85h-11.99c0,12.07-9.78,21.85-21.85,21.85s-21.85-9.78-21.85-21.85h-14.85c0,12.07-9.78,21.85-21.85,21.85s-21.85-9.78-21.85-21.85h-11.99c0,12.07-9.78,21.85-21.85,21.85s-21.85-9.78-21.85-21.85h-11.99c0,12.07-9.78,21.85-21.85,21.85s-21.85-9.78-21.85-21.85h-11.99c0,12.07-9.78,21.85-21.85,21.85s-21.85-9.78-21.85-21.85h-11.99c0,12.07-9.78,21.85-21.85,21.85s-21.85-9.78-21.85-21.85h-11.99c0,12.07-9.78,21.85-21.85,21.85s-21.85-9.78-21.85-21.85h-11.99c0,12.07-9.78,21.85-21.85,21.85s-21.85-9.78-21.85-21.85h-11.99c0,12.07-9.78,21.85-21.85,21.85s-21.85-9.78-21.85-21.85h-11.99c0,12.07-9.78,21.85-21.85,21.85s-21.85-9.78-21.85-21.85h-11.99c0,12.07-9.78,21.85-21.85,21.85s-21.85-9.78-21.85-21.85h-11.99c0,12.07-9.78,21.85-21.85,21.85s-21.85-9.78-21.85-21.85h-11.99c0,12.07-9.78,21.85-21.85,21.85s-21.85-9.78-21.85-21.85h-18.25v19.31h0c12.07,0,21.85,9.78,21.85,21.85s-9.78,21.85-21.85,21.85h0v11.99h0c12.07,0,21.85,9.78,21.85,21.85s-9.78,21.85-21.85,21.85h0v11.99h0c12.07,0,21.85,9.78,21.85,21.85s-9.78,21.85-21.85,21.85h0v11.99h0c12.07,0,21.85,9.78,21.85,21.85s-9.78,21.85-21.85,21.85h0v11.99h0c12.07,0,21.85,9.78,21.85,21.85s-9.78,21.85-21.85,21.85h0v11.99h0c12.07,0,21.85,9.78,21.85,21.85s-9.78,21.85-21.85,21.85h0v11.99h0c12.07,0,21.85,9.78,21.85,21.85s-9.78,21.85-21.85,21.85h0v11.99h0c12.07,0,21.85,9.78,21.85,21.85s-9.78,21.85-21.85,21.85h0v11.99h0c12.07,0,21.85,9.78,21.85,21.85s-9.78,21.85-21.85,21.85h0v11.99h0c12.07,0,21.85,9.78,21.85,21.85s-9.78,21.85-21.85,21.85h0v11.99h0c12.07,0,21.85,9.78,21.85,21.85s-9.78,21.85-21.85,21.85h0v11.99h0c12.07,0,21.85,9.78,21.85,21.85s-9.78,21.85-21.85,21.85h0v14.85h0c12.07,0,21.85,9.78,21.85,21.85s-9.78,21.85-21.85,21.85h0v11.99h0c12.07,0,21.85,9.78,21.85,21.85s-9.78,21.85-21.85,21.85h0v11.99h0c12.07,0,21.85,9.78,21.85,21.85s-9.78,21.85-21.85,21.85h0v11.99h0c12.07,0,21.85,9.78,21.85,21.85s-9.78,21.85-21.85,21.85h0v11.99h0c12.07,0,21.85,9.78,21.85,21.85s-9.78,21.85-21.85,21.85h0v21.43h18.25c0-12.07,9.78-21.85,21.85-21.85s21.85,9.78,21.85,21.85h11.99c0-12.07,9.78-21.85,21.85-21.85s21.85,9.78,21.85,21.85h11.99c0-12.07,9.78-21.85,21.85-21.85s21.85,9.78,21.85,21.85h11.99c0-12.07,9.78-21.85,21.85-21.85s21.85,9.78,21.85,21.85h11.99c0-12.07,9.78-21.85,21.85-21.85s21.85,9.78,21.85,21.85h11.99c0-12.07,9.78-21.85,21.85-21.85s21.85,9.78,21.85,21.85h11.99c0-12.07,9.78-21.85,21.85-21.85s21.85,9.78,21.85,21.85h11.99c0-12.07,9.78-21.85,21.85-21.85s21.85,9.78,21.85,21.85h11.99c0-12.07,9.78-21.85,21.85-21.85s21.85,9.78,21.85,21.85h11.99c0-12.07,9.78-21.85,21.85-21.85s21.85,9.78,21.85,21.85h11.99c0-12.07,9.78-21.85,21.85-21.85s21.85,9.78,21.85,21.85h11.99c0-12.07,9.78-21.85,21.85-21.85s21.85,9.78,21.85,21.85h14.85c0-12.07,9.78-21.85,21.85-21.85s21.85,9.78,21.85,21.85h11.99c0-12.07,9.78-21.85,21.85-21.85s21.85,9.78,21.85,21.85h11.99c0-12.07,9.78-21.85,21.85-21.85s21.85,9.78,21.85,21.85h11.99c0-12.07,9.78-21.85,21.85-21.85s21.85,9.78,21.85,21.85h11.99c0-12.07,9.78-21.85,21.85-21.85s21.85,9.78,21.85,21.85h22.49v-21.43c-12.07,0-21.85-9.78-21.85-21.85Z"
       id="path1" />
    <rect
       class="cls-4"
       x="2931.98"
       y="223.5"
       width="774.52"
       height="774.52"
       id="rect2" />
    <g
       id="g13">
      <polygon
         class="cls-1"
         points="3181.57 353.63 3195.65 353.63 3196.09 353.63 3210.17 353.63 3210.6 353.63 3225.12 353.63 3225.12 338.68 3210.6 338.68 3210.17 338.68 3196.09 338.68 3195.65 338.68 3181.57 338.68 3181.14 338.68 3166.62 338.68 3166.62 353.63 3181.14 353.63 3181.57 353.63"
         id="polygon2" />
      <polygon
         class="cls-1"
         points="3225.12 397.17 3225.12 382.66 3225.12 382.22 3225.12 367.71 3210.6 367.71 3210.17 367.71 3195.65 367.71 3195.65 382.66 3210.17 382.66 3210.17 397.17 3225.12 397.17"
         id="polygon3" />
      <path
         class="cls-1"
         d="M3181.14,455.23h14.95v-14.51h14.51v-14.95h-14.51v-29.03h-29.46v43.98h14.51v14.51ZM3195.65,426.2v14.08h-14.08v-14.08h14.08Z"
         id="path3" />
      <rect
         class="cls-1"
         x="3573.03"
         y="454.8"
         width="14.95"
         height="14.95"
         id="rect3" />
      <polygon
         class="cls-1"
         points="3573.03 498.34 3558.52 498.34 3558.52 513.29 3573.03 513.29 3573.03 527.81 3587.98 527.81 3587.98 512.86 3573.47 512.86 3573.47 498.78 3587.98 498.78 3587.98 483.83 3573.03 483.83 3573.03 498.34"
         id="polygon4" />
      <rect
         class="cls-1"
         x="3050.5"
         y="512.86"
         width="14.95"
         height="14.95"
         id="rect4" />
      <rect
         class="cls-1"
         x="3050.5"
         y="541.89"
         width="14.95"
         height="14.95"
         id="rect5" />
      <path
         class="cls-1"
         d="M3573.03,541.89h-14.08v-14.51h-29.03v-14.51h-29.03v-28.59h14.08v14.51h29.46v-14.95h-29.03v-14.08h14.51v-14.95h-29.46v29.03h-14.51v29.03h-14.51v14.51h-28.59v-14.08h14.51v-29.03h14.51v-14.95h-29.46v14.51h-14.08v-29.03h-14.51v-28.59h14.08v14.51h14.95v-14.51h14.08v29.03h14.95v-43.98h-29.03v-14.08h14.51v-14.51h14.51v-14.95h-14.51v-14.08h14.51v-14.95h-14.95v14.51h-14.51v14.51h-14.51v29.03h-14.51v14.51h-14.51v43.54h-28.59v-14.08h14.51v-29.46h-14.51v-14.08h29.03v-29.03h14.51v-14.95h-43.98v14.51h-14.51v14.95h14.51v14.08h-14.51v29.03h-14.51v14.51h-14.08v-14.51h-14.51v-14.08h14.51v-29.03h14.51v-29.46h-14.95v14.51h-14.51v29.03h-14.51v29.03h-14.08v-14.51h-14.51v-14.08h14.51v-14.51h14.51v-29.03h14.51v-14.95h-14.95v14.51h-14.08v-14.51h-43.98v29.46h14.51v14.08h-14.51v29.03h-14.51v29.46h14.51v14.51h14.95v-14.51h14.51v-14.51h14.08v14.51h14.51v14.08h-29.03v87.09h-14.08v-29.03h-43.98v14.51h-28.59v-14.08h14.51v-14.51h14.51v-14.51h28.59v14.51h14.95v-29.46h-43.98v14.51h-14.08v-14.51h-14.95v14.95h14.51v14.08h-29.03v29.46h14.51v14.51h14.51v14.51h14.95v-14.51h14.51v-14.51h14.08v14.51h14.51v57.62h-14.08v-14.51h-29.03v-14.51h-14.95v29.46h43.54v14.51h14.51v14.08h-14.51v14.95h14.95v-14.51h14.08v43.11h-14.08v-14.51h-14.95v43.98h29.03v14.51h29.03v28.59h-14.08v-14.51h-29.03v-14.51h-14.95v14.51h-14.08v-58.06h-14.51v-14.51h-14.95v43.98h14.51v14.08h-14.51v14.95h14.51v28.59h-43.11v-14.08h14.51v-14.95h-29.03v-14.08h29.03v-58.49h-14.95v43.54h-14.08v-14.51h-14.95v14.95h14.51v14.08h-14.51v14.95h14.51v14.08h-14.51v14.95h29.03v101.6h29.46v-29.03h14.51v-14.51h14.08v14.51h14.51v14.08h-14.51v14.95h14.51v14.51h14.95v-29.03h14.08v14.51h29.46v-14.95h-29.03v-28.59h14.08v14.51h14.95v-14.51h14.51v-14.51h14.51v-14.95h-14.51v-14.51h-29.03v-14.08h14.51v-14.51h14.08v14.51h29.03v14.51h14.95v-29.03h14.08v14.51h14.51v14.08h-14.51v14.95h14.95v-14.51h14.08v43.54h14.51v14.08h-43.11v-14.08h14.51v-14.95h-29.03v-14.51h-14.95v29.46h14.51v14.08h-14.51v14.95h14.51v29.03h43.98v-29.03h14.51v-14.51h28.59v28.59h-29.03v14.95h29.46v-14.51h28.59v14.51h14.95v-14.51h14.08v14.51h14.95v-14.51h14.08v14.51h58.49v-43.98h-14.51v-14.08h14.51v-43.98h-14.51v-14.08h14.51v-14.95h-14.51v-14.08h14.51v-14.95h-14.51v-14.51h-14.51v-14.51h-14.51v-14.08h28.59v14.51h14.95v-58.49h-58.06v-28.59h28.59v14.51h29.46v-14.95h-29.03v-28.59h14.08v14.51h14.95v-14.95h-14.51v-14.08h14.51v-14.95h-14.95ZM3253.71,832.18h-14.08v-14.08h14.08v14.08ZM3268.22,759.61h-14.08v-14.08h14.08v14.08ZM3224.68,774.12h-14.08v-14.08h14.08v14.08ZM3239.63,731.01h14.08v14.08h-14.08v-14.08ZM3181.57,817.66v-14.08h14.51v-29.03h14.08v14.51h14.95v-14.51h43.11v14.08h-29.03v29.03h-14.08v-14.51h-14.95v14.51h-14.51v14.51h-14.08v-14.51ZM3297.25,789.07h14.51v14.08h-28.59v-14.08h14.08ZM3529.92,687.47h14.08v14.08h-14.08v-14.08ZM3558.52,716.06h-14.08v-14.08h14.08v14.08ZM3529.49,716.06v14.95h29.03v14.51h14.51v14.08h-14.51v43.54h-14.51v14.51h-14.08v-28.59h14.51v-14.95h-14.51v-14.08h14.51v-14.95h-29.03v-14.51h-14.51v-14.08h14.51v-14.51h14.08v14.08ZM3558.52,832.18h-14.08v-14.08h14.08v14.08ZM3514.97,832.18h-14.08v-14.08h14.08v14.08ZM3485.94,832.18h-14.08v-14.08h14.08v14.08ZM3413.37,774.12h-14.08v-14.08h14.08v14.08ZM3413.81,731.01h14.08v14.08h-14.08v-14.08ZM3384.34,716.06h-14.08v-14.08h14.08v14.08ZM3326.72,658v-14.51h-14.51v-14.08h28.59v14.51h14.95v-14.51h14.08v43.11h-14.51v14.51h-14.08v-14.51h-14.51v-14.51ZM3355.75,513.29h14.08v14.08h-14.08v-14.08ZM3399.29,542.32v-14.51h43.11v14.08h-14.51v29.03h-14.51v14.51h-14.51v14.95h14.51v14.08h-14.51v29.46h14.51v14.08h-14.51v14.51h-14.08v-87.09h-14.51v-14.08h14.51v-14.95h-14.51v-28.59h14.08v14.51h14.95ZM3471.86,585.87h28.59v14.08h-28.59v-14.08ZM3500.46,716.06h-14.51v14.51h-14.51v14.51h-28.59v-14.08h14.51v-14.95h-29.03v-14.51h-14.51v-28.59h14.08v14.51h14.95v-14.51h14.51v-14.95h-14.51v-14.08h14.51v-29.03h43.11v14.08h-29.03v14.95h14.51v14.08h-14.51v29.03h-14.51v14.95h43.54v14.08ZM3500.46,803.15h-28.59v-43.11h43.11v43.11h-14.51ZM3486.38,731.01h14.08v14.08h-14.08v-14.08ZM3427.88,628.97v14.51h-14.08v-28.59h14.08v14.08ZM3355.75,585.87h14.08v14.08h-14.08v-14.08ZM3355.75,687.47h14.08v14.08h-14.08v-14.08ZM3384.78,687.47h14.08v14.08h-14.08v-14.08ZM3442.83,788.63v-28.59h14.08v43.11h-14.08v-14.51ZM3471.86,847.13h14.08v14.08h-14.08v-14.08ZM3500.89,614.46v-14.08h14.08v14.08h-14.08ZM3515.41,585.87h14.08v14.08h-14.08v-14.08ZM3514.97,585.43h-14.08v-14.08h14.08v14.08ZM3471.43,542.32h14.51v14.08h-14.51v29.03h-14.51v14.51h-14.51v14.51h-14.08v-14.51h-14.51v-14.08h29.03v-29.03h14.51v-14.51h14.08ZM3399.29,484.26v-14.51h14.08v29.03h14.51v14.08h-28.59v-14.51h-14.95v14.51h-14.08v-14.51h-14.51v-29.03h-14.51v-14.08h28.59v14.51h14.51v14.51h14.95ZM3355.75,426.2h14.08v14.08h-14.08v-14.08ZM3326.28,454.8h-14.08v-14.08h14.08v14.08ZM3311.77,440.28h-14.08v-14.08h14.08v14.08ZM3384.34,382.22h-14.08v-14.08h14.08v14.08ZM3254.14,382.66h14.08v14.08h-14.08v-14.08ZM3253.71,426.2v14.08h-14.08v-14.08h14.08ZM3254.14,411.69h14.08v14.08h-14.08v-14.08ZM3268.22,353.63h14.51v14.08h-28.59v-14.08h14.08ZM3297.69,469.75v-14.51h14.08v43.54h14.95v-29.03h14.08v29.03h14.51v14.08h-14.51v43.98h14.51v14.08h-14.51v29.03h-14.51v14.51h-57.62v-14.08h43.54v-14.95h-14.51v-14.08h14.51v-14.95h-14.51v-14.08h29.03v-29.46h-14.95v14.51h-14.08v-14.51h-14.51v-14.08h14.51v-14.95h-14.51v-14.08h14.51ZM3297.25,527.81v14.08h-14.08v-14.08h14.08ZM3268.66,570.92v-28.59h14.08v14.51h14.51v14.08h-14.51v14.51h-14.08v-14.51ZM3283.17,658v-14.08h28.59v14.08h-14.51v29.03h-14.08v-29.03ZM3326.72,745.09h-14.51v-14.08h14.51v-14.95h-14.51v-14.51h-14.51v-14.08h14.51v-14.51h14.08v29.03h14.51v43.11h-14.08ZM3355.75,716.5h14.08v14.08h-14.08v-14.08ZM3370.26,745.09v-14.08h14.51v-14.51h28.59v14.08h-14.51v14.51h-28.59ZM3413.81,788.63v-14.08h14.08v28.59h-14.08v-14.51ZM3486.38,846.69v-14.08h14.08v14.08h-14.08ZM3515.41,846.69v-14.08h28.59v14.08h-28.59ZM3573.03,847.13v14.08h-28.59v-14.08h14.51v-14.51h14.08v14.51ZM3573.03,643.92v14.08h-14.08v-14.08h14.08ZM3544,643.92v28.59h-14.51v14.51h-14.08v-14.51h-14.51v-14.08h14.51v-14.51h28.59ZM3529.92,585.43v-14.51h-14.51v-14.51h-14.51v-14.51h-14.51v-14.08h43.11v29.03h14.95v-14.51h14.08v28.59h-14.51v14.51h-14.08Z"
         id="path5" />
      <rect
         class="cls-1"
         x="3224.68"
         y="556.4"
         width="14.95"
         height="14.95"
         id="rect6" />
      <rect
         class="cls-1"
         x="3050.5"
         y="570.92"
         width="14.95"
         height="14.95"
         id="rect7" />
      <path
         class="cls-1"
         d="M3065.45,745.53v-29.03h14.08v43.54h43.98v-29.46h-14.95v14.51h-14.08v-28.59h14.51v-14.51h14.51v-29.46h-29.03v-14.08h43.11v14.51h14.95v-14.95h-14.51v-14.08h87.09v-29.46h-43.98v14.51h-43.54v14.51h-28.59v-43.11h28.59v14.51h14.95v-14.95h-14.51v-14.08h43.54v-14.95h-14.51v-29.03h-29.03v-14.08h14.51v-14.95h-29.03v-14.08h29.03v-14.51h14.51v-29.46h-102.04v29.03h-14.51v14.95h29.03v14.51h14.51v28.59h-14.51v14.95h14.95v-14.51h14.08v28.59h-14.51v14.95h14.51v14.08h-14.51v14.51h-14.51v29.46h14.51v14.08h-28.59v-29.03h-14.95v29.46h14.51v28.59h-14.51v73.01h14.95v-14.51ZM3108.56,687.47v14.08h-14.51v14.51h-14.08v-28.59h28.59ZM3123.51,542.32h14.08v14.08h-14.08v-14.08ZM3123.51,571.35h14.08v14.08h-14.08v-14.08ZM3152.11,570.92h-14.08v-14.08h14.08v14.08ZM3123.08,469.75h29.03v14.08h-29.03v14.51h-28.59v-14.08h14.51v-14.51h14.08ZM3094.05,469.75v14.08h-14.08v-14.08h14.08Z"
         id="path7" />
      <rect
         class="cls-1"
         x="3485.94"
         y="774.12"
         width="14.95"
         height="14.95"
         id="rect8" />
      <rect
         class="cls-1"
         x="3311.77"
         y="861.21"
         width="14.95"
         height="14.95"
         id="rect9" />
      <path
         class="cls-1"
         d="M3152.11,338.68h-101.6v101.6h101.6v-101.6ZM3137.59,425.77h-72.57v-72.57h72.57v72.57Z"
         id="path9" />
      <path
         class="cls-1"
         d="M3587.55,338.68h-101.6v101.6h101.6v-101.6ZM3573.03,425.77h-72.57v-72.57h72.57v72.57Z"
         id="path10" />
      <path
         class="cls-1"
         d="M3050.5,875.72h101.6v-101.6h-101.6v101.6ZM3065.02,788.63h72.57v72.57h-72.57v-72.57Z"
         id="path11" />
      <rect
         class="cls-1"
         x="3079.53"
         y="367.71"
         width="43.54"
         height="43.54"
         id="rect11" />
      <rect
         class="cls-1"
         x="3514.97"
         y="367.71"
         width="43.54"
         height="43.54"
         id="rect12" />
      <rect
         class="cls-1"
         x="3079.53"
         y="803.15"
         width="43.54"
         height="43.54"
         id="rect13" />
    </g>
    <g
       id="g28">
      <path
         class="cls-2"
         d="M3063.96,304.46c-3.18,0-5.89-.62-8.12-1.85-2.24-1.23-3.95-3.04-5.14-5.41-1.19-2.37-1.78-5.23-1.78-8.56s.59-5.99,1.78-8.33c1.19-2.34,2.92-4.16,5.18-5.46s4.96-1.94,8.08-1.94,5.89.62,8.12,1.85c2.24,1.24,3.95,3,5.14,5.3,1.19,2.3,1.78,5.02,1.78,8.17,0,3.33-.6,6.21-1.78,8.63-1.19,2.42-2.9,4.3-5.14,5.62-2.24,1.33-4.94,1.99-8.12,1.99ZM3064.01,302.23c2.93,0,5.11-1.13,6.53-3.4,1.42-2.27,2.13-5.76,2.13-10.48,0-2.84-.36-5.24-1.09-7.22-.73-1.98-1.75-3.48-3.08-4.51-1.33-1.03-2.89-1.55-4.67-1.55-2.62,0-4.71,1.15-6.25,3.45-1.54,2.3-2.31,5.58-2.31,9.83s.73,7.75,2.18,10.21c1.45,2.45,3.64,3.68,6.57,3.68Z"
         id="path13" />
      <path
         class="cls-2"
         d="M3098.12,303.86h-15.18v-1.76c1.3,0,2.24-.11,2.82-.32.59-.22.97-.64,1.16-1.27s.28-1.6.28-2.89v-18.88c0-1.45-.3-2.4-.9-2.85s-1.69-.67-3.26-.67v-1.76h13.7c1.51,0,2.99.11,4.42.32,1.43.22,2.71.62,3.82,1.21,1.11.59,2,1.39,2.66,2.43.66,1.04,1,2.37,1,4.01,0,1.85-.34,3.39-1.02,4.63-.68,1.24-1.6,2.22-2.75,2.96-1.16.74-2.48,1.27-3.96,1.57-1.48.31-3.02.46-4.63.46-.53,0-1.07-.05-1.64-.16-.57-.11-1.07-.22-1.5-.35v7.27c0,1.24.11,2.16.32,2.78.22.62.69,1.03,1.41,1.23.72.2,1.81.3,3.26.3v1.76ZM3095.57,288.63c1.51,0,2.78-.19,3.8-.56s1.78-1.04,2.29-2.01c.51-.97.76-2.37.76-4.19,0-2.13-.54-3.72-1.62-4.77-1.08-1.05-2.82-1.57-5.23-1.57-.43,0-.83.02-1.2.05-.37.03-.79.08-1.25.14v12.68c.31.03.65.08,1.02.14.37.06.85.09,1.43.09Z"
         id="path14" />
      <path
         class="cls-2"
         d="M3137.32,303.86h-25.87v-1.76c1.14,0,2.03-.08,2.66-.25s1.08-.53,1.34-1.09c.26-.56.39-1.42.39-2.59v-18.7c0-1.17-.1-2.06-.3-2.66-.2-.6-.62-1.01-1.25-1.23-.63-.22-1.58-.32-2.85-.32v-1.81h25.41l.28,8.1h-2.04c-.22-1.45-.53-2.58-.95-3.38-.42-.8-1.08-1.36-1.99-1.67-.91-.31-2.26-.46-4.05-.46h-6.39v11.06h4.63c1.48,0,2.58-.09,3.31-.28.72-.19,1.2-.58,1.43-1.18.23-.6.35-1.5.35-2.71h1.9v10.69h-1.9c0-1.3-.12-2.24-.35-2.85-.23-.6-.71-.99-1.43-1.16-.73-.17-1.83-.26-3.31-.26h-4.63v11.94h5.65c1.63,0,2.96-.08,3.98-.25s1.83-.49,2.45-.95c.62-.46,1.13-1.11,1.53-1.94s.8-1.91,1.2-3.24h1.94l-1.16,8.93Z"
         id="path15" />
      <path
         class="cls-2"
         d="M3170.5,304.18h-3.93l-18.24-24.21h-1.53l-1.2-2.08c-.56-.77-1.06-1.34-1.5-1.71s-.91-.63-1.39-.76c-.48-.14-1.06-.21-1.74-.21v-1.76h9.9l16.57,21.98h.23v-14.25c0-1.3-.08-2.38-.23-3.26-.15-.88-.53-1.55-1.13-2.01s-1.61-.7-3.03-.7v-1.76h11.38v1.76c-1.27,0-2.2.23-2.8.7s-.98,1.15-1.13,2.06-.23,2.01-.23,3.31v22.91ZM3152.31,303.86h-11.34v-1.76c1.23,0,2.16-.32,2.78-.95.62-.63,1.03-1.52,1.25-2.66.22-1.14.32-2.48.32-4.03v-17.77h2.78v19.9c0,1.54.11,2.71.32,3.49.22.79.63,1.32,1.25,1.6.62.28,1.5.42,2.64.42v1.76Z"
         id="path16" />
      <path
         class="cls-2"
         d="M3199.19,303.86h-11.43v-1.76c1.23,0,2.15-.1,2.75-.3s1.01-.67,1.23-1.41c.22-.74.32-1.9.32-3.47v-17.4c0-1.17-.11-2.07-.32-2.68-.22-.62-.63-1.04-1.23-1.27-.6-.23-1.49-.35-2.66-.35v-1.76h11.66l9.12,22.12h.28l9.07-22.12h10.88v1.76c-1.05,0-1.87.12-2.45.35-.59.23-.99.66-1.2,1.27-.22.62-.32,1.5-.32,2.64v18.75c0,1.05.12,1.85.35,2.41s.64.94,1.23,1.16c.59.22,1.4.32,2.45.32v1.76h-13.98v-1.76c1.2,0,2.1-.11,2.68-.32.59-.22.97-.6,1.16-1.16s.28-1.36.28-2.41v-18.98h-.28l-10.27,24.62h-2.73l-10.46-24.62h-.23v17.68c0,1.58.1,2.73.3,3.47.2.74.59,1.21,1.18,1.41.59.2,1.46.3,2.64.3v1.76Z"
         id="path17" />
      <path
         class="cls-2"
         d="M3249.41,304.46c-4.54,0-7.82-.94-9.86-2.82-2.04-1.88-3.05-4.97-3.05-9.26v-13.1c0-1.08-.12-1.91-.35-2.5-.23-.59-.66-.99-1.3-1.23-.63-.23-1.57-.35-2.8-.35v-1.76h14.76v1.76c-1.27,0-2.21.12-2.85.35-.63.23-1.05.66-1.25,1.27-.2.62-.3,1.51-.3,2.68v12.31c0,2.01.24,3.69.72,5.04.48,1.36,1.31,2.38,2.5,3.05,1.19.68,2.83,1.02,4.93,1.02,2.96,0,5.11-.68,6.43-2.04,1.33-1.36,1.99-3.62,1.99-6.8v-10.92c0-1.64-.09-2.88-.28-3.75-.19-.86-.59-1.45-1.2-1.76-.62-.31-1.57-.46-2.87-.46v-1.76h11.76v1.76c-1.33,0-2.3.15-2.92.46-.62.31-1.01.88-1.18,1.71-.17.83-.26,2.05-.26,3.66v10.64c0,4.26-.97,7.45-2.92,9.58s-5.18,3.19-9.72,3.19Z"
         id="path18" />
      <path
         class="cls-2"
         d="M3270.83,304.5h-1.81l-.42-10h1.99c.52,2.04,1.11,3.59,1.76,4.67s1.45,1.82,2.41,2.22c.96.4,2.11.6,3.47.6,1.05,0,2-.14,2.87-.42s1.56-.74,2.08-1.39c.52-.65.79-1.51.79-2.59,0-1.33-.35-2.42-1.04-3.29-.69-.86-1.58-1.62-2.66-2.27-1.08-.65-2.24-1.26-3.47-1.85-1.36-.71-2.64-1.46-3.84-2.27s-2.17-1.78-2.89-2.94c-.73-1.16-1.09-2.63-1.09-4.42,0-1.67.41-3.06,1.23-4.19.82-1.13,1.96-1.98,3.43-2.57,1.46-.59,3.15-.88,5.07-.88,1.26,0,2.27.1,3.03.3.76.2,1.37.4,1.85.6s.9.3,1.27.3c.31,0,.59-.08.86-.23.26-.15.45-.48.58-.97h1.53l.32,9.58h-1.9c-.68-2.72-1.57-4.65-2.68-5.81s-2.64-1.73-4.58-1.73c-1.6,0-2.83.32-3.68.95-.85.63-1.27,1.61-1.27,2.94,0,1.14.32,2.09.97,2.85.65.76,1.5,1.43,2.57,2.01s2.2,1.19,3.4,1.8c1.08.56,2.14,1.13,3.17,1.71,1.03.59,1.97,1.27,2.8,2.06.83.79,1.5,1.7,2.01,2.75.51,1.05.76,2.29.76,3.7,0,1.88-.46,3.46-1.39,4.74s-2.2,2.25-3.82,2.92c-1.62.66-3.5.99-5.62.99-1.51,0-2.71-.12-3.59-.35-.88-.23-1.56-.46-2.04-.7-.48-.23-.89-.35-1.23-.35s-.63.13-.86.39-.35.62-.35,1.09Z"
         id="path19" />
      <path
         class="cls-2"
         d="M3307.35,303.86h-14.58v-1.76c1.36,0,2.34-.12,2.96-.35.62-.23,1.01-.68,1.18-1.34.17-.66.26-1.66.26-2.99v-17.45c0-1.23-.09-2.19-.26-2.87-.17-.68-.56-1.16-1.18-1.46-.62-.29-1.6-.44-2.96-.44v-1.76h14.67v1.76c-1.39,0-2.4.15-3.03.44-.63.29-1.02.79-1.16,1.48-.14.7-.21,1.64-.21,2.85v17.45c0,1.3.09,2.28.26,2.96.17.68.56,1.13,1.16,1.37.6.23,1.57.35,2.89.35v1.76Z"
         id="path20" />
      <path
         class="cls-2"
         d="M3325.81,304.41c-3.3,0-6.03-.67-8.19-2.01-2.16-1.34-3.76-3.19-4.81-5.53-1.05-2.34-1.57-5.01-1.57-8.01,0-3.46.66-6.37,1.97-8.75,1.31-2.37,3.13-4.17,5.46-5.39,2.33-1.22,5.02-1.83,8.08-1.83,1.63,0,2.93.13,3.89.39.96.26,1.71.53,2.27.79.56.26,1.05.39,1.48.39.46,0,.79-.17.97-.51.19-.34.37-.69.56-1.06h1.76v11.11h-1.99c-.59-2.96-1.64-5.17-3.15-6.62s-3.46-2.18-5.83-2.18c-2.99,0-5.26,1.1-6.8,3.31-1.54,2.21-2.31,5.34-2.31,9.42,0,2.96.39,5.37,1.18,7.22s1.94,3.2,3.47,4.05,3.37,1.27,5.53,1.27,4.08-.39,5.58-1.18c1.5-.79,2.91-1.92,4.23-3.4l1.34,1.2c-.96,1.36-2.01,2.59-3.15,3.7-1.14,1.11-2.51,1.99-4.1,2.64-1.59.65-3.54.97-5.85.97Z"
         id="path21" />
      <path
         class="cls-2"
         d="M3361.73,303.86h-10.27v-1.76c.83,0,1.5-.13,2.01-.39s.99-.76,1.43-1.48c.45-.73.96-1.78,1.55-3.17l9.95-23.84h3.75l10.37,24.58c.65,1.48,1.3,2.57,1.97,3.26.66.7,1.55,1.04,2.66,1.04v1.76h-13.93v-1.76c.4,0,.83-.03,1.27-.09.45-.06.83-.2,1.13-.42.31-.22.46-.57.46-1.06,0-.34-.08-.81-.23-1.41-.15-.6-.37-1.23-.65-1.87l-1.53-3.84-.37-1.11-4.67-12.59h-.19l-5.09,12.59-.32,1.11-1.85,4.49c-.12.4-.25.83-.39,1.27-.14.45-.21.87-.21,1.27,0,.71.24,1.16.72,1.36.48.2,1.29.3,2.43.3v1.76ZM3372.46,293.95h-12.26l.79-2.22h10.69l.79,2.22Z"
         id="path22" />
      <path
         class="cls-2"
         d="M3400.42,304.41c-3.3,0-6.03-.67-8.19-2.01-2.16-1.34-3.76-3.19-4.81-5.53-1.05-2.34-1.57-5.01-1.57-8.01,0-3.46.66-6.37,1.97-8.75,1.31-2.37,3.13-4.17,5.46-5.39,2.33-1.22,5.02-1.83,8.08-1.83,1.63,0,2.93.13,3.89.39.96.26,1.71.53,2.27.79.56.26,1.05.39,1.48.39.46,0,.79-.17.97-.51.19-.34.37-.69.56-1.06h1.76v11.11h-1.99c-.59-2.96-1.64-5.17-3.15-6.62s-3.46-2.18-5.83-2.18c-2.99,0-5.26,1.1-6.8,3.31-1.54,2.21-2.31,5.34-2.31,9.42,0,2.96.39,5.37,1.18,7.22s1.94,3.2,3.47,4.05,3.37,1.27,5.53,1.27,4.08-.39,5.58-1.18c1.5-.79,2.91-1.92,4.23-3.4l1.34,1.2c-.96,1.36-2.01,2.59-3.15,3.7-1.14,1.11-2.51,1.99-4.1,2.64-1.59.65-3.54.97-5.85.97Z"
         id="path23" />
      <path
         class="cls-2"
         d="M3425.45,303.86h-10.27v-1.76c.83,0,1.5-.13,2.01-.39s.99-.76,1.43-1.48c.45-.73.96-1.78,1.55-3.17l9.95-23.84h3.75l10.37,24.58c.65,1.48,1.3,2.57,1.97,3.26.66.7,1.55,1.04,2.66,1.04v1.76h-13.93v-1.76c.4,0,.83-.03,1.27-.09.45-.06.83-.2,1.13-.42.31-.22.46-.57.46-1.06,0-.34-.08-.81-.23-1.41-.15-.6-.37-1.23-.65-1.87l-1.53-3.84-.37-1.11-4.67-12.59h-.19l-5.09,12.59-.32,1.11-1.85,4.49c-.12.4-.25.83-.39,1.27-.14.45-.21.87-.21,1.27,0,.71.24,1.16.72,1.36.48.2,1.29.3,2.43.3v1.76ZM3436.19,293.95h-12.26l.79-2.22h10.69l.79,2.22Z"
         id="path24" />
      <path
         class="cls-2"
         d="M3464.28,303.86h-13.42v-1.76c1.3,0,2.26-.1,2.89-.3s1.04-.62,1.23-1.25c.19-.63.28-1.56.28-2.8v-18.6c0-1.14-.14-1.98-.42-2.52s-.73-.9-1.37-1.07c-.63-.17-1.5-.25-2.61-.25v-1.85h13.1c2.34,0,4.6.22,6.76.67,2.16.45,4.08,1.22,5.76,2.31s3.01,2.6,3.98,4.51,1.46,4.35,1.46,7.31-.44,5.35-1.32,7.34c-.88,1.99-2.12,3.59-3.73,4.81-1.6,1.22-3.48,2.1-5.62,2.64s-4.47.81-6.96.81ZM3463.49,301.54c2.5,0,4.64-.36,6.43-1.07,1.79-.71,3.16-1.98,4.12-3.82s1.44-4.48,1.44-7.94c0-4.16-1-7.36-3.01-9.58-2.01-2.22-5.12-3.33-9.35-3.33h-.9c-.29,0-.66.02-1.09.05v25.59c.4.03.8.05,1.2.07s.79.02,1.16.02Z"
         id="path25" />
      <path
         class="cls-2"
         d="M3511.58,303.86h-25.87v-1.76c1.14,0,2.03-.08,2.66-.25s1.08-.53,1.34-1.09c.26-.56.39-1.42.39-2.59v-18.7c0-1.17-.1-2.06-.3-2.66-.2-.6-.62-1.01-1.25-1.23-.63-.22-1.58-.32-2.85-.32v-1.81h25.41l.28,8.1h-2.04c-.22-1.45-.53-2.58-.95-3.38-.42-.8-1.08-1.36-1.99-1.67-.91-.31-2.26-.46-4.05-.46h-6.39v11.06h4.63c1.48,0,2.58-.09,3.31-.28.72-.19,1.2-.58,1.43-1.18.23-.6.35-1.5.35-2.71h1.9v10.69h-1.9c0-1.3-.12-2.24-.35-2.85-.23-.6-.71-.99-1.43-1.16-.73-.17-1.83-.26-3.31-.26h-4.63v11.94h5.65c1.63,0,2.96-.08,3.98-.25s1.83-.49,2.45-.95c.62-.46,1.13-1.11,1.53-1.94s.8-1.91,1.2-3.24h1.94l-1.16,8.93Z"
         id="path26" />
      <path
         class="cls-2"
         d="M3526.71,303.86h-11.43v-1.76c1.23,0,2.15-.1,2.75-.3s1.01-.67,1.23-1.41c.22-.74.32-1.9.32-3.47v-17.4c0-1.17-.11-2.07-.32-2.68-.22-.62-.63-1.04-1.23-1.27-.6-.23-1.49-.35-2.66-.35v-1.76h11.66l9.12,22.12h.28l9.07-22.12h10.88v1.76c-1.05,0-1.87.12-2.45.35-.59.23-.99.66-1.2,1.27-.22.62-.32,1.5-.32,2.64v18.75c0,1.05.12,1.85.35,2.41s.64.94,1.23,1.16c.59.22,1.4.32,2.45.32v1.76h-13.98v-1.76c1.2,0,2.1-.11,2.68-.32.59-.22.97-.6,1.16-1.16s.28-1.36.28-2.41v-18.98h-.28l-10.27,24.62h-2.73l-10.46-24.62h-.23v17.68c0,1.58.1,2.73.3,3.47.2.74.59,1.21,1.18,1.41.59.2,1.46.3,2.64.3v1.76Z"
         id="path27" />
      <path
         class="cls-2"
         d="M3581.6,303.86h-15.23v-1.76c1.36,0,2.36-.08,3.01-.25s1.07-.58,1.27-1.23c.2-.65.3-1.65.3-3.01v-5.79l-6.11-10.18c-.9-1.51-1.65-2.69-2.27-3.54-.62-.85-1.17-1.48-1.67-1.9-.49-.42-.96-.69-1.39-.81-.43-.12-.93-.19-1.48-.19v-1.76h13.65v1.76c-1.23,0-2.03.09-2.38.28s-.53.45-.53.79c0,.56.23,1.23.69,2.04l3.98,6.9,1.9,3.7h.28l5.88-10.87c.12-.22.23-.48.32-.79.09-.31.14-.59.14-.83,0-.37-.16-.66-.49-.88-.32-.22-1.07-.32-2.24-.32v-1.76h10.32v1.76c-.86.06-1.6.19-2.2.39-.6.2-1.17.59-1.69,1.16-.53.57-1.16,1.46-1.9,2.66l-6.9,12.36v5.83c0,1.36.13,2.35.39,2.99.26.63.74,1.04,1.43,1.23s1.66.28,2.89.28v1.76Z"
         id="path28" />
    </g>
    <g
       id="g44">
      <path
         class="cls-2"
         d="M3574.52,910.38c3.18,0,5.89.62,8.12,1.85,2.24,1.23,3.95,3.04,5.14,5.41,1.19,2.37,1.78,5.23,1.78,8.56s-.59,5.99-1.78,8.33c-1.19,2.34-2.92,4.16-5.18,5.46s-4.96,1.94-8.08,1.94-5.89-.62-8.12-1.85c-2.24-1.24-3.95-3-5.14-5.3-1.19-2.3-1.78-5.02-1.78-8.17,0-3.33.6-6.21,1.78-8.63,1.19-2.42,2.9-4.3,5.14-5.62,2.24-1.33,4.94-1.99,8.12-1.99ZM3574.47,912.6c-2.93,0-5.11,1.13-6.53,3.4s-2.13,5.76-2.13,10.48c0,2.84.36,5.24,1.09,7.22.73,1.98,1.75,3.48,3.08,4.51,1.33,1.03,2.89,1.55,4.67,1.55,2.62,0,4.71-1.15,6.25-3.45,1.54-2.3,2.31-5.58,2.31-9.83s-.73-7.75-2.18-10.21c-1.45-2.45-3.64-3.68-6.57-3.68Z"
         id="path29" />
      <path
         class="cls-2"
         d="M3540.37,910.98h15.18v1.76c-1.3,0-2.24.11-2.82.32-.59.22-.97.64-1.16,1.27s-.28,1.6-.28,2.89v18.88c0,1.45.3,2.4.9,2.85s1.69.67,3.26.67v1.76h-13.7c-1.51,0-2.99-.11-4.42-.32-1.43-.22-2.71-.62-3.82-1.21-1.11-.59-2-1.39-2.66-2.43-.66-1.04-1-2.37-1-4.01,0-1.85.34-3.39,1.02-4.63.68-1.24,1.6-2.22,2.75-2.96,1.16-.74,2.48-1.27,3.96-1.57,1.48-.31,3.02-.46,4.63-.46.53,0,1.07.05,1.64.16.57.11,1.07.22,1.5.35v-7.27c0-1.24-.11-2.16-.32-2.78-.22-.62-.69-1.03-1.41-1.23-.72-.2-1.81-.3-3.26-.3v-1.76ZM3542.91,926.21c-1.51,0-2.78.19-3.8.56s-1.78,1.04-2.29,2.01c-.51.97-.76,2.37-.76,4.19,0,2.13.54,3.72,1.62,4.77,1.08,1.05,2.82,1.57,5.23,1.57.43,0,.83-.02,1.2-.05.37-.03.79-.08,1.25-.14v-12.68c-.31-.03-.65-.08-1.02-.14-.37-.06-.85-.09-1.43-.09Z"
         id="path30" />
      <path
         class="cls-2"
         d="M3501.17,910.98h25.87v1.76c-1.14,0-2.03.08-2.66.25s-1.08.53-1.34,1.09c-.26.56-.39,1.42-.39,2.59v18.7c0,1.17.1,2.06.3,2.66.2.6.62,1.01,1.25,1.23.63.22,1.58.32,2.85.32v1.81h-25.41l-.28-8.1h2.04c.22,1.45.53,2.58.95,3.38.42.8,1.08,1.36,1.99,1.67.91.31,2.26.46,4.05.46h6.39v-11.06h-4.63c-1.48,0-2.58.09-3.31.28-.72.19-1.2.58-1.43,1.18-.23.6-.35,1.5-.35,2.71h-1.9v-10.69h1.9c0,1.3.12,2.24.35,2.85.23.6.71.99,1.43,1.16.73.17,1.83.26,3.31.26h4.63v-11.94h-5.65c-1.63,0-2.96.08-3.98.25s-1.83.49-2.45.95c-.62.46-1.13,1.11-1.53,1.94s-.8,1.91-1.2,3.24h-1.94l1.16-8.93Z"
         id="path31" />
      <path
         class="cls-2"
         d="M3467.99,910.66h3.93l18.24,24.21h1.53l1.2,2.08c.56.77,1.06,1.34,1.5,1.71s.91.63,1.39.76c.48.14,1.06.21,1.74.21v1.76h-9.9l-16.57-21.98h-.23v14.25c0,1.3.08,2.38.23,3.26.15.88.53,1.55,1.13,2.01s1.61.7,3.03.7v1.76h-11.38v-1.76c1.27,0,2.2-.23,2.8-.7s.98-1.15,1.13-2.06.23-2.01.23-3.31v-22.91ZM3486.17,910.98h11.34v1.76c-1.23,0-2.16.32-2.78.95-.62.63-1.03,1.52-1.25,2.66-.22,1.14-.32,2.48-.32,4.03v17.77h-2.78v-19.9c0-1.54-.11-2.71-.32-3.49-.22-.79-.63-1.32-1.25-1.6-.62-.28-1.5-.42-2.64-.42v-1.76Z"
         id="path32" />
      <path
         class="cls-2"
         d="M3439.29,910.98h11.43v1.76c-1.23,0-2.15.1-2.75.3s-1.01.67-1.23,1.41c-.22.74-.32,1.9-.32,3.47v17.4c0,1.17.11,2.07.32,2.68.22.62.63,1.04,1.23,1.27.6.23,1.49.35,2.66.35v1.76h-11.66l-9.12-22.12h-.28l-9.07,22.12h-10.88v-1.76c1.05,0,1.87-.12,2.45-.35.59-.23.99-.66,1.2-1.27.22-.62.32-1.5.32-2.64v-18.75c0-1.05-.12-1.85-.35-2.41s-.64-.94-1.23-1.16c-.59-.22-1.4-.32-2.45-.32v-1.76h13.98v1.76c-1.2,0-2.1.11-2.68.32-.59.22-.97.6-1.16,1.16s-.28,1.36-.28,2.41v18.98h.28l10.27-24.62h2.73l10.46,24.62h.23v-17.68c0-1.58-.1-2.73-.3-3.47-.2-.74-.59-1.21-1.18-1.41-.59-.2-1.46-.3-2.64-.3v-1.76Z"
         id="path33" />
      <path
         class="cls-2"
         d="M3389.08,910.38c4.54,0,7.82.94,9.86,2.82,2.04,1.88,3.05,4.97,3.05,9.26v13.1c0,1.08.12,1.91.35,2.5.23.59.66.99,1.3,1.23.63.23,1.57.35,2.8.35v1.76h-14.76v-1.76c1.27,0,2.21-.12,2.85-.35.63-.23,1.05-.66,1.25-1.27.2-.62.3-1.51.3-2.68v-12.31c0-2.01-.24-3.69-.72-5.04-.48-1.36-1.31-2.38-2.5-3.05-1.19-.68-2.83-1.02-4.93-1.02-2.96,0-5.11.68-6.43,2.04-1.33,1.36-1.99,3.62-1.99,6.8v10.92c0,1.64.09,2.88.28,3.75.19.86.59,1.45,1.2,1.76.62.31,1.57.46,2.87.46v1.76h-11.76v-1.76c1.33,0,2.3-.15,2.92-.46.62-.31,1.01-.88,1.18-1.71.17-.83.26-2.05.26-3.66v-10.64c0-4.26.97-7.45,2.92-9.58s5.18-3.19,9.72-3.19Z"
         id="path34" />
      <path
         class="cls-2"
         d="M3367.65,910.34h1.81l.42,10h-1.99c-.52-2.04-1.11-3.59-1.76-4.67s-1.45-1.82-2.41-2.22c-.96-.4-2.11-.6-3.47-.6-1.05,0-2,.14-2.87.42s-1.56.74-2.08,1.39c-.52.65-.79,1.51-.79,2.59,0,1.33.35,2.42,1.04,3.29.69.86,1.58,1.62,2.66,2.27,1.08.65,2.24,1.26,3.47,1.85,1.36.71,2.64,1.46,3.84,2.27s2.17,1.78,2.89,2.94c.73,1.16,1.09,2.63,1.09,4.42,0,1.67-.41,3.06-1.23,4.19-.82,1.13-1.96,1.98-3.43,2.57-1.46.59-3.15.88-5.07.88-1.26,0-2.27-.1-3.03-.3-.76-.2-1.37-.4-1.85-.6s-.9-.3-1.27-.3c-.31,0-.59.08-.86.23-.26.15-.45.48-.58.97h-1.53l-.32-9.58h1.9c.68,2.72,1.57,4.65,2.68,5.81s2.64,1.73,4.58,1.73c1.6,0,2.83-.32,3.68-.95.85-.63,1.27-1.61,1.27-2.94,0-1.14-.32-2.09-.97-2.85-.65-.76-1.5-1.43-2.57-2.01s-2.2-1.19-3.4-1.8c-1.08-.56-2.14-1.13-3.17-1.71-1.03-.59-1.97-1.27-2.8-2.06-.83-.79-1.5-1.7-2.01-2.75-.51-1.05-.76-2.29-.76-3.7,0-1.88.46-3.46,1.39-4.74s2.2-2.25,3.82-2.92c1.62-.66,3.5-.99,5.62-.99,1.51,0,2.71.12,3.59.35.88.23,1.56.46,2.04.7.48.23.89.35,1.23.35s.63-.13.86-.39.35-.62.35-1.09Z"
         id="path35" />
      <path
         class="cls-2"
         d="M3331.14,910.98h14.58v1.76c-1.36,0-2.34.12-2.96.35-.62.23-1.01.68-1.18,1.34-.17.66-.26,1.66-.26,2.99v17.45c0,1.23.09,2.19.26,2.87.17.68.56,1.16,1.18,1.46.62.29,1.6.44,2.96.44v1.76h-14.67v-1.76c1.39,0,2.4-.15,3.03-.44.63-.29,1.02-.79,1.16-1.48.14-.7.21-1.64.21-2.85v-17.45c0-1.3-.09-2.28-.26-2.96-.17-.68-.56-1.13-1.16-1.37-.6-.23-1.57-.35-2.89-.35v-1.76Z"
         id="path36" />
      <path
         class="cls-2"
         d="M3312.67,910.43c3.3,0,6.03.67,8.19,2.01,2.16,1.34,3.76,3.19,4.81,5.53,1.05,2.34,1.57,5.01,1.57,8.01,0,3.46-.66,6.37-1.97,8.75-1.31,2.37-3.13,4.17-5.46,5.39-2.33,1.22-5.02,1.83-8.08,1.83-1.63,0-2.93-.13-3.89-.39-.96-.26-1.71-.53-2.27-.79-.56-.26-1.05-.39-1.48-.39-.46,0-.79.17-.97.51-.19.34-.37.69-.56,1.06h-1.76v-11.11h1.99c.59,2.96,1.64,5.17,3.15,6.62s3.46,2.18,5.83,2.18c2.99,0,5.26-1.1,6.8-3.31,1.54-2.21,2.31-5.34,2.31-9.42,0-2.96-.39-5.37-1.18-7.22s-1.94-3.2-3.47-4.05-3.37-1.27-5.53-1.27-4.08.39-5.58,1.18c-1.5.79-2.91,1.92-4.23,3.4l-1.34-1.2c.96-1.36,2.01-2.59,3.15-3.7,1.14-1.11,2.51-1.99,4.1-2.64,1.59-.65,3.54-.97,5.85-.97Z"
         id="path37" />
      <path
         class="cls-2"
         d="M3276.76,910.98h10.27v1.76c-.83,0-1.5.13-2.01.39s-.99.76-1.43,1.48c-.45.73-.96,1.78-1.55,3.17l-9.95,23.84h-3.75l-10.37-24.58c-.65-1.48-1.3-2.57-1.97-3.26-.66-.7-1.55-1.04-2.66-1.04v-1.76h13.93v1.76c-.4,0-.83.03-1.27.09-.45.06-.83.2-1.13.42-.31.22-.46.57-.46,1.06,0,.34.08.81.23,1.41.15.6.37,1.23.65,1.87l1.53,3.84.37,1.11,4.67,12.59h.19l5.09-12.59.32-1.11,1.85-4.49c.12-.4.25-.83.39-1.27.14-.45.21-.87.21-1.27,0-.71-.24-1.16-.72-1.36-.48-.2-1.29-.3-2.43-.3v-1.76ZM3266.02,920.89h12.26l-.79,2.22h-10.69l-.79-2.22Z"
         id="path38" />
      <path
         class="cls-2"
         d="M3238.07,910.43c3.3,0,6.03.67,8.19,2.01,2.16,1.34,3.76,3.19,4.81,5.53,1.05,2.34,1.57,5.01,1.57,8.01,0,3.46-.66,6.37-1.97,8.75-1.31,2.37-3.13,4.17-5.46,5.39-2.33,1.22-5.02,1.83-8.08,1.83-1.63,0-2.93-.13-3.89-.39-.96-.26-1.71-.53-2.27-.79-.56-.26-1.05-.39-1.48-.39-.46,0-.79.17-.97.51-.19.34-.37.69-.56,1.06h-1.76v-11.11h1.99c.59,2.96,1.64,5.17,3.15,6.62,1.51,1.45,3.46,2.18,5.83,2.18,2.99,0,5.26-1.1,6.8-3.31,1.54-2.21,2.31-5.34,2.31-9.42,0-2.96-.39-5.37-1.18-7.22s-1.94-3.2-3.47-4.05-3.37-1.27-5.53-1.27-4.08.39-5.58,1.18c-1.5.79-2.91,1.92-4.23,3.4l-1.34-1.2c.96-1.36,2.01-2.59,3.15-3.7,1.14-1.11,2.51-1.99,4.1-2.64,1.59-.65,3.54-.97,5.85-.97Z"
         id="path39" />
      <path
         class="cls-2"
         d="M3213.03,910.98h10.27v1.76c-.83,0-1.5.13-2.01.39s-.99.76-1.43,1.48c-.45.73-.96,1.78-1.55,3.17l-9.95,23.84h-3.75l-10.37-24.58c-.65-1.48-1.3-2.57-1.97-3.26-.66-.7-1.55-1.04-2.66-1.04v-1.76h13.93v1.76c-.4,0-.83.03-1.27.09-.45.06-.83.2-1.13.42-.31.22-.46.57-.46,1.06,0,.34.08.81.23,1.41.15.6.37,1.23.65,1.87l1.53,3.84.37,1.11,4.67,12.59h.19l5.09-12.59.32-1.11,1.85-4.49c.12-.4.25-.83.39-1.27.14-.45.21-.87.21-1.27,0-.71-.24-1.16-.72-1.36-.48-.2-1.29-.3-2.43-.3v-1.76ZM3202.29,920.89h12.26l-.79,2.22h-10.69l-.79-2.22Z"
         id="path40" />
      <path
         class="cls-2"
         d="M3174.2,910.98h13.42v1.76c-1.3,0-2.26.1-2.89.3s-1.04.62-1.23,1.25c-.19.63-.28,1.56-.28,2.8v18.6c0,1.14.14,1.98.42,2.52s.73.9,1.37,1.07c.63.17,1.5.25,2.61.25v1.85h-13.1c-2.34,0-4.6-.22-6.76-.67-2.16-.45-4.08-1.22-5.76-2.31s-3.01-2.6-3.98-4.51-1.46-4.35-1.46-7.31.44-5.35,1.32-7.34c.88-1.99,2.12-3.59,3.73-4.81,1.6-1.22,3.48-2.1,5.62-2.64s4.47-.81,6.96-.81ZM3174.99,913.3c-2.5,0-4.64.36-6.43,1.07-1.79.71-3.16,1.98-4.12,3.82s-1.44,4.48-1.44,7.94c0,4.16,1,7.36,3.01,9.58,2.01,2.22,5.12,3.33,9.35,3.33h.9c.29,0,.66-.02,1.09-.05v-25.59c-.4-.03-.8-.05-1.2-.07s-.79-.02-1.16-.02Z"
         id="path41" />
      <path
         class="cls-2"
         d="M3126.9,910.98h25.87v1.76c-1.14,0-2.03.08-2.66.25s-1.08.53-1.34,1.09c-.26.56-.39,1.42-.39,2.59v18.7c0,1.17.1,2.06.3,2.66.2.6.62,1.01,1.25,1.23.63.22,1.58.32,2.85.32v1.81h-25.41l-.28-8.1h2.04c.22,1.45.53,2.58.95,3.38.42.8,1.08,1.36,1.99,1.67.91.31,2.26.46,4.05.46h6.39v-11.06h-4.63c-1.48,0-2.58.09-3.31.28-.72.19-1.2.58-1.43,1.18-.23.6-.35,1.5-.35,2.71h-1.9v-10.69h1.9c0,1.3.12,2.24.35,2.85.23.6.71.99,1.43,1.16.73.17,1.83.26,3.31.26h4.63v-11.94h-5.65c-1.63,0-2.96.08-3.98.25s-1.83.49-2.45.95c-.62.46-1.13,1.11-1.53,1.94s-.8,1.91-1.2,3.24h-1.94l1.16-8.93Z"
         id="path42" />
      <path
         class="cls-2"
         d="M3111.77,910.98h11.43v1.76c-1.23,0-2.15.1-2.75.3s-1.01.67-1.23,1.41c-.22.74-.32,1.9-.32,3.47v17.4c0,1.17.11,2.07.32,2.68.22.62.63,1.04,1.23,1.27.6.23,1.49.35,2.66.35v1.76h-11.66l-9.12-22.12h-.28l-9.07,22.12h-10.88v-1.76c1.05,0,1.87-.12,2.45-.35.59-.23.99-.66,1.2-1.27.22-.62.32-1.5.32-2.64v-18.75c0-1.05-.12-1.85-.35-2.41s-.64-.94-1.23-1.16c-.59-.22-1.4-.32-2.45-.32v-1.76h13.98v1.76c-1.2,0-2.1.11-2.68.32-.59.22-.97.6-1.16,1.16s-.28,1.36-.28,2.41v18.98h.28l10.27-24.62h2.73l10.46,24.62h.23v-17.68c0-1.58-.1-2.73-.3-3.47-.2-.74-.59-1.21-1.18-1.41-.59-.2-1.46-.3-2.64-.3v-1.76Z"
         id="path43" />
      <path
         class="cls-2"
         d="M3056.88,910.98h15.23v1.76c-1.36,0-2.36.08-3.01.25s-1.07.58-1.27,1.23c-.2.65-.3,1.65-.3,3.01v5.79l6.11,10.18c.9,1.51,1.65,2.69,2.27,3.54.62.85,1.17,1.48,1.67,1.9.49.42.96.69,1.39.81.43.12.93.19,1.48.19v1.76h-13.65v-1.76c1.23,0,2.03-.09,2.38-.28s.53-.45.53-.79c0-.56-.23-1.23-.69-2.04l-3.98-6.9-1.9-3.7h-.28l-5.88,10.87c-.12.22-.23.48-.32.79-.09.31-.14.59-.14.83,0,.37.16.66.49.88.32.22,1.07.32,2.24.32v1.76h-10.32v-1.76c.86-.06,1.6-.19,2.2-.39.6-.2,1.17-.59,1.69-1.16.53-.57,1.16-1.46,1.9-2.66l6.9-12.36v-5.83c0-1.36-.13-2.35-.39-2.99-.26-.63-.74-1.04-1.43-1.23s-1.66-.28-2.89-.28v-1.76Z"
         id="path44" />
    </g>
    <g
       id="g60">
      <path
         class="cls-2"
         d="M3624.97,352.14c0-3.18.62-5.89,1.85-8.12,1.23-2.24,3.04-3.95,5.41-5.14,2.37-1.19,5.23-1.78,8.56-1.78s5.99.59,8.33,1.78c2.34,1.19,4.16,2.92,5.46,5.18s1.94,4.96,1.94,8.08-.62,5.89-1.85,8.12c-1.24,2.24-3,3.95-5.3,5.14-2.3,1.19-5.02,1.78-8.17,1.78-3.33,0-6.21-.6-8.63-1.78-2.42-1.19-4.3-2.9-5.62-5.14-1.33-2.24-1.99-4.94-1.99-8.12ZM3627.19,352.19c0,2.93,1.13,5.11,3.4,6.53s5.76,2.13,10.48,2.13c2.84,0,5.24-.36,7.22-1.09,1.98-.73,3.48-1.75,4.51-3.08,1.03-1.33,1.55-2.89,1.55-4.67,0-2.62-1.15-4.71-3.45-6.25-2.3-1.54-5.58-2.31-9.83-2.31s-7.75.73-10.21,2.18c-2.45,1.45-3.68,3.64-3.68,6.57Z"
         id="path45" />
      <path
         class="cls-2"
         d="M3625.57,386.3v-15.18h1.76c0,1.3.11,2.24.32,2.82.22.59.64.97,1.27,1.16s1.6.28,2.89.28h18.88c1.45,0,2.4-.3,2.85-.9s.67-1.69.67-3.26h1.76v13.7c0,1.51-.11,2.99-.32,4.42-.22,1.43-.62,2.71-1.21,3.82-.59,1.11-1.39,2-2.43,2.66-1.04.66-2.37,1-4.01,1-1.85,0-3.39-.34-4.63-1.02-1.24-.68-2.22-1.6-2.96-2.75-.74-1.16-1.27-2.48-1.57-3.96-.31-1.48-.46-3.02-.46-4.63,0-.53.05-1.07.16-1.64.11-.57.22-1.07.35-1.5h-7.27c-1.24,0-2.16.11-2.78.32-.62.22-1.03.69-1.23,1.41-.2.72-.3,1.81-.3,3.26h-1.76ZM3640.8,383.75c0,1.51.19,2.78.56,3.8s1.04,1.78,2.01,2.29c.97.51,2.37.76,4.19.76,2.13,0,3.72-.54,4.77-1.62,1.05-1.08,1.57-2.82,1.57-5.23,0-.43-.02-.83-.05-1.2-.03-.37-.08-.79-.14-1.25h-12.68c-.03.31-.08.65-.14,1.02-.06.37-.09.85-.09,1.43Z"
         id="path46" />
      <path
         class="cls-2"
         d="M3625.57,425.49v-25.87h1.76c0,1.14.08,2.03.25,2.66s.53,1.08,1.09,1.34c.56.26,1.42.39,2.59.39h18.7c1.17,0,2.06-.1,2.66-.3.6-.2,1.01-.62,1.23-1.25.22-.63.32-1.58.32-2.85h1.81v25.41l-8.1.28v-2.04c1.45-.22,2.58-.53,3.38-.95.8-.42,1.36-1.08,1.67-1.99.31-.91.46-2.26.46-4.05v-6.39h-11.06v4.63c0,1.48.09,2.58.28,3.31.19.72.58,1.2,1.18,1.43.6.23,1.5.35,2.71.35v1.9h-10.69v-1.9c1.3,0,2.24-.12,2.85-.35.6-.23.99-.71,1.16-1.43.17-.73.26-1.83.26-3.31v-4.63h-11.94v5.65c0,1.63.08,2.96.25,3.98s.49,1.83.95,2.45c.46.62,1.11,1.13,1.94,1.53s1.91.8,3.24,1.2v1.94l-8.93-1.16Z"
         id="path47" />
      <path
         class="cls-2"
         d="M3625.24,458.68v-3.93l24.21-18.24v-1.53l2.08-1.2c.77-.56,1.34-1.06,1.71-1.5s.63-.91.76-1.39c.14-.48.21-1.06.21-1.74h1.76v9.9l-21.98,16.57v.23h14.25c1.3,0,2.38-.08,3.26-.23.88-.15,1.55-.53,2.01-1.13s.7-1.61.7-3.03h1.76v11.38h-1.76c0-1.27-.23-2.2-.7-2.8s-1.15-.98-2.06-1.13-2.01-.23-3.31-.23h-22.91ZM3625.57,440.49v-11.34h1.76c0,1.23.32,2.16.95,2.78.63.62,1.52,1.03,2.66,1.25,1.14.22,2.48.32,4.03.32h17.77v2.78h-19.9c-1.54,0-2.71.11-3.49.32-.79.22-1.32.63-1.6,1.25-.28.62-.42,1.5-.42,2.64h-1.76Z"
         id="path48" />
      <path
         class="cls-2"
         d="M3625.57,487.37v-11.43h1.76c0,1.23.1,2.15.3,2.75s.67,1.01,1.41,1.23c.74.22,1.9.32,3.47.32h17.4c1.17,0,2.07-.11,2.68-.32.62-.22,1.04-.63,1.27-1.23.23-.6.35-1.49.35-2.66h1.76v11.66l-22.12,9.12v.28l22.12,9.07v10.88h-1.76c0-1.05-.12-1.87-.35-2.45-.23-.59-.66-.99-1.27-1.2-.62-.22-1.5-.32-2.64-.32h-18.75c-1.05,0-1.85.12-2.41.35s-.94.64-1.16,1.23c-.22.59-.32,1.4-.32,2.45h-1.76v-13.98h1.76c0,1.2.11,2.1.32,2.68.22.59.6.97,1.16,1.16s1.36.28,2.41.28h18.98v-.28l-24.62-10.27v-2.73l24.62-10.46v-.23h-17.68c-1.58,0-2.73.1-3.47.3-.74.2-1.21.59-1.41,1.18-.2.59-.3,1.46-.3,2.64h-1.76Z"
         id="path49" />
      <path
         class="cls-2"
         d="M3624.97,537.58c0-4.54.94-7.82,2.82-9.86,1.88-2.04,4.97-3.05,9.26-3.05h13.1c1.08,0,1.91-.12,2.5-.35.59-.23.99-.66,1.23-1.3.23-.63.35-1.57.35-2.8h1.76v14.76h-1.76c0-1.27-.12-2.21-.35-2.85-.23-.63-.66-1.05-1.27-1.25-.62-.2-1.51-.3-2.68-.3h-12.31c-2.01,0-3.69.24-5.04.72-1.36.48-2.38,1.31-3.05,2.5-.68,1.19-1.02,2.83-1.02,4.93,0,2.96.68,5.11,2.04,6.43,1.36,1.33,3.62,1.99,6.8,1.99h10.92c1.64,0,2.88-.09,3.75-.28.86-.19,1.45-.59,1.76-1.2.31-.62.46-1.57.46-2.87h1.76v11.76h-1.76c0-1.33-.15-2.3-.46-2.92-.31-.62-.88-1.01-1.71-1.18-.83-.17-2.05-.26-3.66-.26h-10.64c-4.26,0-7.45-.97-9.58-2.92s-3.19-5.18-3.19-9.72Z"
         id="path50" />
      <path
         class="cls-2"
         d="M3624.92,559.01v-1.81l10-.42v1.99c-2.04.52-3.59,1.11-4.67,1.76s-1.82,1.45-2.22,2.41c-.4.96-.6,2.11-.6,3.47,0,1.05.14,2,.42,2.87s.74,1.56,1.39,2.08c.65.52,1.51.79,2.59.79,1.33,0,2.42-.35,3.29-1.04.86-.69,1.62-1.58,2.27-2.66.65-1.08,1.26-2.24,1.85-3.47.71-1.36,1.46-2.64,2.27-3.84s1.78-2.17,2.94-2.89c1.16-.73,2.63-1.09,4.42-1.09,1.67,0,3.06.41,4.19,1.23,1.13.82,1.98,1.96,2.57,3.43.59,1.46.88,3.15.88,5.07,0,1.26-.1,2.27-.3,3.03-.2.76-.4,1.37-.6,1.85s-.3.9-.3,1.27c0,.31.08.59.23.86.15.26.48.45.97.58v1.53l-9.58.32v-1.9c2.72-.68,4.65-1.57,5.81-2.68s1.73-2.64,1.73-4.58c0-1.6-.32-2.83-.95-3.68-.63-.85-1.61-1.27-2.94-1.27-1.14,0-2.09.32-2.85.97-.76.65-1.43,1.5-2.01,2.57s-1.19,2.2-1.8,3.4c-.56,1.08-1.13,2.14-1.71,3.17-.59,1.03-1.27,1.97-2.06,2.8-.79.83-1.7,1.5-2.75,2.01-1.05.51-2.29.76-3.7.76-1.88,0-3.46-.46-4.74-1.39s-2.25-2.2-2.92-3.82c-.66-1.62-.99-3.5-.99-5.62,0-1.51.12-2.71.35-3.59.23-.88.46-1.56.7-2.04.23-.48.35-.89.35-1.23s-.13-.63-.39-.86-.62-.35-1.09-.35Z"
         id="path51" />
      <path
         class="cls-2"
         d="M3625.57,595.52v-14.58h1.76c0,1.36.12,2.34.35,2.96.23.62.68,1.01,1.34,1.18.66.17,1.66.26,2.99.26h17.45c1.23,0,2.19-.09,2.87-.26.68-.17,1.16-.56,1.46-1.18.29-.62.44-1.6.44-2.96h1.76v14.67h-1.76c0-1.39-.15-2.4-.44-3.03-.29-.63-.79-1.02-1.48-1.16-.7-.14-1.64-.21-2.85-.21h-17.45c-1.3,0-2.28.09-2.96.26-.68.17-1.13.56-1.37,1.16-.23.6-.35,1.57-.35,2.89h-1.76Z"
         id="path52" />
      <path
         class="cls-2"
         d="M3625.01,613.99c0-3.3.67-6.03,2.01-8.19,1.34-2.16,3.19-3.76,5.53-4.81,2.34-1.05,5.01-1.57,8.01-1.57,3.46,0,6.37.66,8.75,1.97,2.37,1.31,4.17,3.13,5.39,5.46,1.22,2.33,1.83,5.02,1.83,8.08,0,1.63-.13,2.93-.39,3.89-.26.96-.53,1.71-.79,2.27-.26.56-.39,1.05-.39,1.48,0,.46.17.79.51.97.34.19.69.37,1.06.56v1.76h-11.11v-1.99c2.96-.59,5.17-1.64,6.62-3.15s2.18-3.46,2.18-5.83c0-2.99-1.1-5.26-3.31-6.8-2.21-1.54-5.34-2.31-9.42-2.31-2.96,0-5.37.39-7.22,1.18s-3.2,1.94-4.05,3.47-1.27,3.37-1.27,5.53.39,4.08,1.18,5.58c.79,1.5,1.92,2.91,3.4,4.23l-1.2,1.34c-1.36-.96-2.59-2.01-3.7-3.15-1.11-1.14-1.99-2.51-2.64-4.1-.65-1.59-.97-3.54-.97-5.85Z"
         id="path53" />
      <path
         class="cls-2"
         d="M3625.57,649.9v-10.27h1.76c0,.83.13,1.5.39,2.01s.76.99,1.48,1.43c.73.45,1.78.96,3.17,1.55l23.84,9.95v3.75l-24.58,10.37c-1.48.65-2.57,1.3-3.26,1.97-.7.66-1.04,1.55-1.04,2.66h-1.76v-13.93h1.76c0,.4.03.83.09,1.27.06.45.2.83.42,1.13.22.31.57.46,1.06.46.34,0,.81-.08,1.41-.23.6-.15,1.23-.37,1.87-.65l3.84-1.53,1.11-.37,12.59-4.67v-.19l-12.59-5.09-1.11-.32-4.49-1.85c-.4-.12-.83-.25-1.27-.39-.45-.14-.87-.21-1.27-.21-.71,0-1.16.24-1.36.72-.2.48-.3,1.29-.3,2.43h-1.76ZM3635.47,660.64v-12.26l2.22.79v10.69l-2.22.79Z"
         id="path54" />
      <path
         class="cls-2"
         d="M3625.01,688.59c0-3.3.67-6.03,2.01-8.19,1.34-2.16,3.19-3.76,5.53-4.81,2.34-1.05,5.01-1.57,8.01-1.57,3.46,0,6.37.66,8.75,1.97,2.37,1.31,4.17,3.13,5.39,5.46,1.22,2.33,1.83,5.02,1.83,8.08,0,1.63-.13,2.93-.39,3.89-.26.96-.53,1.71-.79,2.27-.26.56-.39,1.05-.39,1.48,0,.46.17.79.51.97.34.19.69.37,1.06.56v1.76h-11.11v-1.99c2.96-.59,5.17-1.64,6.62-3.15s2.18-3.46,2.18-5.83c0-2.99-1.1-5.26-3.31-6.8-2.21-1.54-5.34-2.31-9.42-2.31-2.96,0-5.37.39-7.22,1.18s-3.2,1.94-4.05,3.47-1.27,3.37-1.27,5.53.39,4.08,1.18,5.58c.79,1.5,1.92,2.91,3.4,4.23l-1.2,1.34c-1.36-.96-2.59-2.01-3.7-3.15-1.11-1.14-1.99-2.51-2.64-4.1-.65-1.59-.97-3.54-.97-5.85Z"
         id="path55" />
      <path
         class="cls-2"
         d="M3625.57,713.63v-10.27h1.76c0,.83.13,1.5.39,2.01s.76.99,1.48,1.43c.73.45,1.78.96,3.17,1.55l23.84,9.95v3.75l-24.58,10.37c-1.48.65-2.57,1.3-3.26,1.97-.7.66-1.04,1.55-1.04,2.66h-1.76v-13.93h1.76c0,.4.03.83.09,1.27.06.45.2.83.42,1.13.22.31.57.46,1.06.46.34,0,.81-.08,1.41-.23.6-.15,1.23-.37,1.87-.65l3.84-1.53,1.11-.37,12.59-4.67v-.19l-12.59-5.09-1.11-.32-4.49-1.85c-.4-.12-.83-.25-1.27-.39-.45-.14-.87-.21-1.27-.21-.71,0-1.16.24-1.36.72-.2.48-.3,1.29-.3,2.43h-1.76ZM3635.47,724.37v-12.26l2.22.79v10.69l-2.22.79Z"
         id="path56" />
      <path
         class="cls-2"
         d="M3625.57,752.46v-13.42h1.76c0,1.3.1,2.26.3,2.89s.62,1.04,1.25,1.23c.63.19,1.56.28,2.8.28h18.6c1.14,0,1.98-.14,2.52-.42s.9-.73,1.07-1.37c.17-.63.25-1.5.25-2.61h1.85v13.1c0,2.34-.22,4.6-.67,6.76-.45,2.16-1.22,4.08-2.31,5.76s-2.6,3.01-4.51,3.98-4.35,1.46-7.31,1.46-5.35-.44-7.34-1.32c-1.99-.88-3.59-2.12-4.81-3.73-1.22-1.6-2.1-3.48-2.64-5.62s-.81-4.47-.81-6.96ZM3627.88,751.67c0,2.5.36,4.64,1.07,6.43.71,1.79,1.98,3.16,3.82,4.12s4.48,1.44,7.94,1.44c4.16,0,7.36-1,9.58-3.01,2.22-2.01,3.33-5.12,3.33-9.35v-.9c0-.29-.02-.66-.05-1.09h-25.59c-.03.4-.05.8-.07,1.2s-.02.79-.02,1.16Z"
         id="path57" />
      <path
         class="cls-2"
         d="M3625.57,799.76v-25.87h1.76c0,1.14.08,2.03.25,2.66s.53,1.08,1.09,1.34c.56.26,1.42.39,2.59.39h18.7c1.17,0,2.06-.1,2.66-.3.6-.2,1.01-.62,1.23-1.25.22-.63.32-1.58.32-2.85h1.81v25.41l-8.1.28v-2.04c1.45-.22,2.58-.53,3.38-.95.8-.42,1.36-1.08,1.67-1.99.31-.91.46-2.26.46-4.05v-6.39h-11.06v4.63c0,1.48.09,2.58.28,3.31.19.72.58,1.2,1.18,1.43.6.23,1.5.35,2.71.35v1.9h-10.69v-1.9c1.3,0,2.24-.12,2.85-.35.6-.23.99-.71,1.16-1.43.17-.73.26-1.83.26-3.31v-4.63h-11.94v5.65c0,1.63.08,2.96.25,3.98s.49,1.83.95,2.45c.46.62,1.11,1.13,1.94,1.53s1.91.8,3.24,1.2v1.94l-8.93-1.16Z"
         id="path58" />
      <path
         class="cls-2"
         d="M3625.57,814.89v-11.43h1.76c0,1.23.1,2.15.3,2.75s.67,1.01,1.41,1.23c.74.22,1.9.32,3.47.32h17.4c1.17,0,2.07-.11,2.68-.32.62-.22,1.04-.63,1.27-1.23.23-.6.35-1.49.35-2.66h1.76v11.66l-22.12,9.12v.28l22.12,9.07v10.88h-1.76c0-1.05-.12-1.87-.35-2.45-.23-.59-.66-.99-1.27-1.2-.62-.22-1.5-.32-2.64-.32h-18.75c-1.05,0-1.85.12-2.41.35s-.94.64-1.16,1.23c-.22.59-.32,1.4-.32,2.45h-1.76v-13.98h1.76c0,1.2.11,2.1.32,2.68.22.59.6.97,1.16,1.16s1.36.28,2.41.28h18.98v-.28l-24.62-10.27v-2.73l24.62-10.46v-.23h-17.68c-1.58,0-2.73.1-3.47.3-.74.2-1.21.59-1.41,1.18-.2.59-.3,1.46-.3,2.64h-1.76Z"
         id="path59" />
      <path
         class="cls-2"
         d="M3625.57,869.78v-15.23h1.76c0,1.36.08,2.36.25,3.01s.58,1.07,1.23,1.27c.65.2,1.65.3,3.01.3h5.79l10.18-6.11c1.51-.9,2.69-1.65,3.54-2.27.85-.62,1.48-1.17,1.9-1.67.42-.49.69-.96.81-1.39.12-.43.19-.93.19-1.48h1.76v13.65h-1.76c0-1.23-.09-2.03-.28-2.38s-.45-.53-.79-.53c-.56,0-1.23.23-2.04.69l-6.9,3.98-3.7,1.9v.28l10.87,5.88c.22.12.48.23.79.32.31.09.59.14.83.14.37,0,.66-.16.88-.49.22-.32.32-1.07.32-2.24h1.76v10.32h-1.76c-.06-.86-.19-1.6-.39-2.2-.2-.6-.59-1.17-1.16-1.69-.57-.53-1.46-1.16-2.66-1.9l-12.36-6.9h-5.83c-1.36,0-2.35.13-2.99.39-.63.26-1.04.74-1.23,1.43s-.28,1.66-.28,2.89h-1.76Z"
         id="path60" />
    </g>
    <g
       id="g76">
      <path
         class="cls-2"
         d="M3016.28,862.7c0,3.18-.62,5.89-1.85,8.12-1.23,2.24-3.04,3.95-5.41,5.14-2.37,1.19-5.23,1.78-8.56,1.78s-5.99-.59-8.33-1.78c-2.34-1.19-4.16-2.92-5.46-5.18s-1.94-4.96-1.94-8.08c0-3.18.62-5.89,1.85-8.12,1.24-2.24,3-3.95,5.3-5.14,2.3-1.19,5.02-1.78,8.17-1.78,3.33,0,6.21.6,8.63,1.78,2.42,1.19,4.3,2.9,5.62,5.14,1.33,2.24,1.99,4.94,1.99,8.12ZM3014.06,862.65c0-2.93-1.13-5.11-3.4-6.53s-5.76-2.13-10.48-2.13c-2.84,0-5.24.36-7.22,1.09-1.98.73-3.48,1.75-4.51,3.08-1.03,1.33-1.55,2.89-1.55,4.67,0,2.62,1.15,4.71,3.45,6.25,2.3,1.54,5.58,2.31,9.83,2.31s7.75-.73,10.21-2.18c2.45-1.45,3.68-3.64,3.68-6.57Z"
         id="path61" />
      <path
         class="cls-2"
         d="M3015.68,828.54v15.18h-1.76c0-1.3-.11-2.24-.32-2.82-.22-.59-.64-.97-1.27-1.16s-1.6-.28-2.89-.28h-18.88c-1.45,0-2.4.3-2.85.9s-.67,1.69-.67,3.26h-1.76v-13.7c0-1.51.11-2.99.32-4.42.22-1.43.62-2.71,1.21-3.82.59-1.11,1.39-2,2.43-2.66,1.04-.66,2.37-1,4.01-1,1.85,0,3.39.34,4.63,1.02,1.24.68,2.22,1.6,2.96,2.75.74,1.16,1.27,2.48,1.57,3.96.31,1.48.46,3.02.46,4.63,0,.53-.05,1.07-.16,1.64-.11.57-.22,1.07-.35,1.5h7.27c1.24,0,2.16-.11,2.78-.32.62-.22,1.03-.69,1.23-1.41.2-.72.3-1.81.3-3.26h1.76ZM3000.45,831.09c0-1.51-.19-2.78-.56-3.8s-1.04-1.78-2.01-2.29c-.97-.51-2.37-.76-4.19-.76-2.13,0-3.72.54-4.77,1.62-1.05,1.08-1.57,2.82-1.57,5.23,0,.43.02.83.05,1.2.03.37.08.79.14,1.25h12.68c.03-.31.08-.65.14-1.02.06-.37.09-.85.09-1.43Z"
         id="path62" />
      <path
         class="cls-2"
         d="M3015.68,789.35v25.87h-1.76c0-1.14-.08-2.03-.25-2.66s-.53-1.08-1.09-1.34c-.56-.26-1.42-.39-2.59-.39h-18.7c-1.17,0-2.06.1-2.66.3-.6.2-1.01.62-1.23,1.25-.22.63-.32,1.58-.32,2.85h-1.81v-25.41s8.1-.28,8.1-.28v2.04c-1.45.22-2.58.53-3.38.95-.8.42-1.36,1.08-1.67,1.99-.31.91-.46,2.26-.46,4.05v6.39s11.06,0,11.06,0v-4.63c0-1.48-.09-2.58-.28-3.31-.19-.72-.58-1.2-1.18-1.43-.6-.23-1.5-.35-2.71-.35v-1.9h10.69v1.9c-1.3,0-2.24.12-2.85.35-.6.23-.99.71-1.16,1.43-.17.73-.26,1.83-.26,3.31v4.63s11.94,0,11.94,0v-5.65c0-1.63-.08-2.96-.25-3.98s-.49-1.83-.95-2.45c-.46-.62-1.11-1.13-1.94-1.53s-1.91-.8-3.24-1.2v-1.94s8.93,1.16,8.93,1.16Z"
         id="path63" />
      <path
         class="cls-2"
         d="M3016,756.16v3.93s-24.21,18.24-24.21,18.24v1.53s-2.08,1.2-2.08,1.2c-.77.56-1.34,1.06-1.71,1.5s-.63.91-.76,1.39c-.14.48-.21,1.06-.21,1.74h-1.76v-9.9s21.98-16.57,21.98-16.57v-.23s-14.25,0-14.25,0c-1.3,0-2.38.08-3.26.23-.88.15-1.55.53-2.01,1.13s-.7,1.61-.7,3.03h-1.76v-11.38h1.76c0,1.27.23,2.2.7,2.8s1.15.98,2.06,1.13,2.01.23,3.31.23h22.91ZM3015.68,774.35v11.34h-1.76c0-1.23-.32-2.16-.95-2.78-.63-.62-1.52-1.03-2.66-1.25-1.14-.22-2.48-.32-4.03-.32h-17.77v-2.78h19.9c1.54,0,2.71-.11,3.49-.32.79-.22,1.32-.63,1.6-1.25.28-.62.42-1.5.42-2.64h1.76Z"
         id="path64" />
      <path
         class="cls-2"
         d="M3015.68,727.47v11.43h-1.76c0-1.23-.1-2.15-.3-2.75s-.67-1.01-1.41-1.23c-.74-.22-1.9-.32-3.47-.32h-17.4c-1.17,0-2.07.11-2.68.32-.62.22-1.04.63-1.27,1.23-.23.6-.35,1.49-.35,2.66h-1.76v-11.66s22.12-9.12,22.12-9.12v-.28s-22.12-9.07-22.12-9.07v-10.88h1.76c0,1.05.12,1.87.35,2.45.23.59.66.99,1.27,1.2.62.22,1.5.32,2.64.32h18.75c1.05,0,1.85-.12,2.41-.35s.94-.64,1.16-1.23c.22-.59.32-1.4.32-2.45h1.76v13.98h-1.76c0-1.2-.11-2.1-.32-2.68-.22-.59-.6-.97-1.16-1.16s-1.36-.28-2.41-.28h-18.98s0,.28,0,.28l24.62,10.27v2.73s-24.62,10.46-24.62,10.46v.23s17.68,0,17.68,0c1.58,0,2.73-.1,3.47-.3.74-.2,1.21-.59,1.41-1.18.2-.59.3-1.46.3-2.64h1.76Z"
         id="path65" />
      <path
         class="cls-2"
         d="M3016.28,677.26c0,4.54-.94,7.82-2.82,9.86-1.88,2.04-4.97,3.05-9.26,3.05h-13.1c-1.08,0-1.91.12-2.5.35-.59.23-.99.66-1.23,1.3-.23.63-.35,1.57-.35,2.8h-1.76v-14.76h1.76c0,1.27.12,2.21.35,2.85.23.63.66,1.05,1.27,1.25.62.2,1.51.3,2.68.3h12.31c2.01,0,3.69-.24,5.04-.72,1.36-.48,2.38-1.31,3.05-2.5.68-1.19,1.02-2.83,1.02-4.93,0-2.96-.68-5.11-2.04-6.43-1.36-1.33-3.62-1.99-6.8-1.99h-10.92c-1.64,0-2.88.09-3.75.28-.86.19-1.45.59-1.76,1.2-.31.62-.46,1.57-.46,2.87h-1.76v-11.76h1.76c0,1.33.15,2.3.46,2.92.31.62.88,1.01,1.71,1.18.83.17,2.05.26,3.66.26h10.64c4.26,0,7.45.97,9.58,2.92s3.19,5.18,3.19,9.72Z"
         id="path66" />
      <path
         class="cls-2"
         d="M3016.33,655.83v1.81s-10,.42-10,.42v-1.99c2.04-.52,3.59-1.11,4.67-1.76s1.82-1.45,2.22-2.41c.4-.96.6-2.11.6-3.47,0-1.05-.14-2-.42-2.87s-.74-1.56-1.39-2.08c-.65-.52-1.51-.79-2.59-.79-1.33,0-2.42.35-3.29,1.04-.86.69-1.62,1.58-2.27,2.66-.65,1.08-1.26,2.24-1.85,3.47-.71,1.36-1.46,2.64-2.27,3.84s-1.78,2.17-2.94,2.89c-1.16.73-2.63,1.09-4.42,1.09-1.67,0-3.06-.41-4.19-1.23-1.13-.82-1.98-1.96-2.57-3.43-.59-1.46-.88-3.15-.88-5.07,0-1.26.1-2.27.3-3.03.2-.76.4-1.37.6-1.85s.3-.9.3-1.27c0-.31-.08-.59-.23-.86-.15-.26-.48-.45-.97-.58v-1.53s9.58-.32,9.58-.32v1.9c-2.72.68-4.65,1.57-5.81,2.68s-1.73,2.64-1.73,4.58c0,1.6.32,2.83.95,3.68.63.85,1.61,1.27,2.94,1.27,1.14,0,2.09-.32,2.85-.97.76-.65,1.43-1.5,2.01-2.57s1.19-2.2,1.8-3.4c.56-1.08,1.13-2.14,1.71-3.17.59-1.03,1.27-1.97,2.06-2.8.79-.83,1.7-1.5,2.75-2.01,1.05-.51,2.29-.76,3.7-.76,1.88,0,3.46.46,4.74,1.39s2.25,2.2,2.92,3.82c.66,1.62.99,3.5.99,5.62,0,1.51-.12,2.71-.35,3.59-.23.88-.46,1.56-.7,2.04-.23.48-.35.89-.35,1.23s.13.63.39.86.62.35,1.09.35Z"
         id="path67" />
      <path
         class="cls-2"
         d="M3015.68,619.31v14.58h-1.76c0-1.36-.12-2.34-.35-2.96-.23-.62-.68-1.01-1.34-1.18-.66-.17-1.66-.26-2.99-.26h-17.45c-1.23,0-2.19.09-2.87.26-.68.17-1.16.56-1.46,1.18-.29.62-.44,1.6-.44,2.96h-1.76v-14.67h1.76c0,1.39.15,2.4.44,3.03.29.63.79,1.02,1.48,1.16.7.14,1.64.21,2.85.21h17.45c1.3,0,2.28-.09,2.96-.26.68-.17,1.13-.56,1.37-1.16.23-.6.35-1.57.35-2.89h1.76Z"
         id="path68" />
      <path
         class="cls-2"
         d="M3016.23,600.85c0,3.3-.67,6.03-2.01,8.19-1.34,2.16-3.19,3.76-5.53,4.81-2.34,1.05-5.01,1.57-8.01,1.57-3.46,0-6.37-.66-8.75-1.97-2.37-1.31-4.17-3.13-5.39-5.46-1.22-2.33-1.83-5.02-1.83-8.08,0-1.63.13-2.93.39-3.89.26-.96.53-1.71.79-2.27.26-.56.39-1.05.39-1.48,0-.46-.17-.79-.51-.97-.34-.19-.69-.37-1.06-.56v-1.76h11.11v1.99c-2.96.59-5.17,1.64-6.62,3.15s-2.18,3.46-2.18,5.83c0,2.99,1.1,5.26,3.31,6.8,2.21,1.54,5.34,2.31,9.42,2.31,2.96,0,5.37-.39,7.22-1.18s3.2-1.94,4.05-3.47,1.27-3.37,1.27-5.53c0-2.22-.39-4.08-1.18-5.58-.79-1.5-1.92-2.91-3.4-4.23l1.2-1.34c1.36.96,2.59,2.01,3.7,3.15,1.11,1.14,1.99,2.51,2.64,4.1.65,1.59.97,3.54.97,5.85Z"
         id="path69" />
      <path
         class="cls-2"
         d="M3015.68,564.94v10.27h-1.76c0-.83-.13-1.5-.39-2.01s-.76-.99-1.48-1.43c-.73-.45-1.78-.96-3.17-1.55l-23.84-9.95v-3.75s24.58-10.37,24.58-10.37c1.48-.65,2.57-1.3,3.26-1.97.7-.66,1.04-1.55,1.04-2.66h1.76v13.93h-1.76c0-.4-.03-.83-.09-1.27-.06-.45-.2-.83-.42-1.13-.22-.31-.57-.46-1.06-.46-.34,0-.81.08-1.41.23-.6.15-1.23.37-1.87.65l-3.84,1.53-1.11.37-12.59,4.67v.19s12.59,5.09,12.59,5.09l1.11.32,4.49,1.85c.4.12.83.25,1.27.39.45.14.87.21,1.27.21.71,0,1.16-.24,1.36-.72.2-.48.3-1.29.3-2.43h1.76ZM3005.77,554.2v12.26s-2.22-.79-2.22-.79v-10.69s2.22-.79,2.22-.79Z"
         id="path70" />
      <path
         class="cls-2"
         d="M3016.23,526.25c0,3.3-.67,6.03-2.01,8.19-1.34,2.16-3.19,3.76-5.53,4.81-2.34,1.05-5.01,1.57-8.01,1.57-3.46,0-6.37-.66-8.75-1.97-2.37-1.31-4.17-3.13-5.39-5.46-1.22-2.33-1.83-5.02-1.83-8.08,0-1.63.13-2.93.39-3.89.26-.96.53-1.71.79-2.27.26-.56.39-1.05.39-1.48,0-.46-.17-.79-.51-.97-.34-.19-.69-.37-1.06-.56v-1.76h11.11v1.99c-2.96.59-5.17,1.64-6.62,3.15-1.45,1.51-2.18,3.46-2.18,5.83,0,2.99,1.1,5.26,3.31,6.8,2.21,1.54,5.34,2.31,9.42,2.31,2.96,0,5.37-.39,7.22-1.18s3.2-1.94,4.05-3.47,1.27-3.37,1.27-5.53-.39-4.08-1.18-5.58c-.79-1.5-1.92-2.91-3.4-4.23l1.2-1.34c1.36.96,2.59,2.01,3.7,3.15,1.11,1.14,1.99,2.51,2.64,4.1.65,1.59.97,3.54.97,5.85Z"
         id="path71" />
      <path
         class="cls-2"
         d="M3015.68,501.21v10.27h-1.76c0-.83-.13-1.5-.39-2.01s-.76-.99-1.48-1.43c-.73-.45-1.78-.96-3.17-1.55l-23.84-9.95v-3.75s24.58-10.37,24.58-10.37c1.48-.65,2.57-1.3,3.26-1.97.7-.66,1.04-1.55,1.04-2.66h1.76v13.93h-1.76c0-.4-.03-.83-.09-1.27-.06-.45-.2-.83-.42-1.13-.22-.31-.57-.46-1.06-.46-.34,0-.81.08-1.41.23-.6.15-1.23.37-1.87.65l-3.84,1.53-1.11.37-12.59,4.67v.19s12.59,5.09,12.59,5.09l1.11.32,4.49,1.85c.4.12.83.25,1.27.39.45.14.87.21,1.27.21.71,0,1.16-.24,1.36-.72.2-.48.3-1.29.3-2.43h1.76ZM3005.77,490.47v12.26s-2.22-.79-2.22-.79v-10.69s2.22-.79,2.22-.79Z"
         id="path72" />
      <path
         class="cls-2"
         d="M3015.68,462.38v13.42h-1.76c0-1.3-.1-2.26-.3-2.89s-.62-1.04-1.25-1.23c-.63-.19-1.56-.28-2.8-.28h-18.6c-1.14,0-1.98.14-2.52.42s-.9.73-1.07,1.37c-.17.63-.25,1.5-.25,2.61h-1.85v-13.1c0-2.34.22-4.6.67-6.76.45-2.16,1.22-4.08,2.31-5.76s2.6-3.01,4.51-3.98,4.35-1.46,7.31-1.46,5.35.44,7.34,1.32c1.99.88,3.59,2.12,4.81,3.73,1.22,1.6,2.1,3.48,2.64,5.62s.81,4.47.81,6.96ZM3013.37,463.17c0-2.5-.36-4.64-1.07-6.43-.71-1.79-1.98-3.16-3.82-4.12s-4.48-1.44-7.94-1.44c-4.16,0-7.36,1-9.58,3.01-2.22,2.01-3.33,5.12-3.33,9.35v.9c0,.29.02.66.05,1.09h25.59c.03-.4.05-.8.07-1.2s.02-.79.02-1.16Z"
         id="path73" />
      <path
         class="cls-2"
         d="M3015.68,415.08v25.87h-1.76c0-1.14-.08-2.03-.25-2.66s-.53-1.08-1.09-1.34c-.56-.26-1.42-.39-2.59-.39h-18.7c-1.17,0-2.06.1-2.66.3-.6.2-1.01.62-1.23,1.25-.22.63-.32,1.58-.32,2.85h-1.81v-25.41s8.1-.28,8.1-.28v2.04c-1.45.22-2.58.53-3.38.95-.8.42-1.36,1.08-1.67,1.99-.31.91-.46,2.26-.46,4.05v6.39s11.06,0,11.06,0v-4.63c0-1.48-.09-2.58-.28-3.31-.19-.72-.58-1.2-1.18-1.43-.6-.23-1.5-.35-2.71-.35v-1.9h10.69v1.9c-1.3,0-2.24.12-2.85.35-.6.23-.99.71-1.16,1.43-.17.73-.26,1.83-.26,3.31v4.63s11.94,0,11.94,0v-5.65c0-1.63-.08-2.96-.25-3.98s-.49-1.83-.95-2.45c-.46-.62-1.11-1.13-1.94-1.53s-1.91-.8-3.24-1.2v-1.94s8.93,1.16,8.93,1.16Z"
         id="path74" />
      <path
         class="cls-2"
         d="M3015.68,399.95v11.43h-1.76c0-1.23-.1-2.15-.3-2.75s-.67-1.01-1.41-1.23c-.74-.22-1.9-.32-3.47-.32h-17.4c-1.17,0-2.07.11-2.68.32-.62.22-1.04.63-1.27,1.23-.23.6-.35,1.49-.35,2.66h-1.76v-11.66s22.12-9.12,22.12-9.12v-.28s-22.12-9.07-22.12-9.07v-10.88h1.76c0,1.05.12,1.87.35,2.45.23.59.66.99,1.27,1.2.62.22,1.5.32,2.64.32h18.75c1.05,0,1.85-.12,2.41-.35s.94-.64,1.16-1.23c.22-.59.32-1.4.32-2.45h1.76v13.98h-1.76c0-1.2-.11-2.1-.32-2.68-.22-.59-.6-.97-1.16-1.16s-1.36-.28-2.41-.28h-18.98s0,.28,0,.28l24.62,10.27v2.73s-24.62,10.46-24.62,10.46v.23s17.68,0,17.68,0c1.58,0,2.73-.1,3.47-.3.74-.2,1.21-.59,1.41-1.18.2-.59.3-1.46.3-2.64h1.76Z"
         id="path75" />
      <path
         class="cls-2"
         d="M3015.68,345.06v15.23h-1.76c0-1.36-.08-2.36-.25-3.01s-.58-1.07-1.23-1.27c-.65-.2-1.65-.3-3.01-.3h-5.79s-10.18,6.11-10.18,6.11c-1.51.9-2.69,1.65-3.54,2.27-.85.62-1.48,1.17-1.9,1.67-.42.49-.69.96-.81,1.39-.12.43-.19.93-.19,1.48h-1.76v-13.65h1.76c0,1.23.09,2.03.28,2.38s.45.53.79.53c.56,0,1.23-.23,2.04-.69l6.9-3.98,3.7-1.9v-.28s-10.87-5.88-10.87-5.88c-.22-.12-.48-.23-.79-.32-.31-.09-.59-.14-.83-.14-.37,0-.66.16-.88.49-.22.32-.32,1.07-.32,2.24h-1.76v-10.32h1.76c.06.86.19,1.6.39,2.2.2.6.59,1.17,1.16,1.69.57.53,1.46,1.16,2.66,1.9l12.36,6.9h5.83c1.36,0,2.35-.13,2.99-.39.63-.26,1.04-.74,1.23-1.43s.28-1.66.28-2.89h1.76Z"
         id="path76" />
    </g>
    <g
       id="g79">
      <rect
         class="cls-1"
         x="2978.75"
         y="904.37"
         width="43.54"
         height="43.54"
         id="rect76" />
      <rect
         class="cls-1"
         x="3616.19"
         y="904.37"
         width="43.54"
         height="43.54"
         id="rect77" />
      <rect
         class="cls-1"
         x="2978.75"
         y="266.93"
         width="43.54"
         height="43.54"
         id="rect78" />
      <rect
         class="cls-1"
         x="3616.19"
         y="266.93"
         width="43.54"
         height="43.54"
         id="rect79" />
    </g>
  </g>
  <line
     class="cls-4"
     x1="2107.6"
     y1="141.37"
     x2="2107.6"
     y2="2475.17"
     id="line80" />
  <line
     class="cls-3"
     x1="2364.44"
     y1="1876.1"
     x2="3758.22"
     y2="1876.1"
     id="line81" />
  <line
     class="cls-3"
     x1="2364.44"
     y1="2084.82"
     x2="3758.22"
     y2="2084.82"
     id="line82" />
  <line
     class="cls-3"
     x1="2364.44"
     y1="2300.49"
     x2="3758.22"
     y2="2300.49"
     id="line83" />
</svg>
